# Low-poly camping hatchback / trim
mtllib camping_hatchback.mtl
o CampingHatchback_trim
usemtl trim
v 0.000000 0.397801 -2.013922
v 0.238550 0.712446 -2.023512
v 0.000000 0.712453 -2.026204
v -0.238550 0.712446 -2.023512
v 0.238286 0.718220 -2.021363
v 0.000000 0.718240 -2.024063
v -0.238286 0.718220 -2.021363
v 0.471767 0.382102 -2.003473
v 0.460063 0.382102 -2.003473
v 0.477334 0.397676 -2.003548
v 0.448785 0.395656 -2.003538
v 0.309394 0.397912 -1.998444
v 0.207008 0.397875 -2.011506
v -0.207008 0.397875 -2.011506
v 0.478752 0.423275 -1.998544
v 0.452658 0.423271 -2.001145
v 0.436835 0.429989 -1.995998
v 0.483253 0.471436 -1.988344
v 0.447319 0.471436 -1.996149
v 0.436835 0.471436 -1.995998
v 0.309394 0.471436 -1.998444
v 0.458503 0.712456 -1.995223
v -0.458503 0.712456 -1.995223
v 0.458110 0.718402 -1.993133
v -0.458110 0.718402 -1.993133
v 0.217550 0.879337 -1.992585
v -0.217550 0.879337 -1.992585
v 0.508210 0.397399 -1.964215
v 0.411781 0.397949 -1.985383
v -0.411561 0.397960 -1.985429
v -0.508844 0.397576 -1.964114
v 0.492599 0.429893 -1.983831
v 0.500405 0.471436 -1.974023
v 0.411781 0.471436 -1.985383
v 0.557773 0.715552 -1.975336
v -0.557773 0.715552 -1.975336
v 0.438014 0.877585 -1.968880
v 0.437438 0.881360 -1.971484
v -0.437438 0.881360 -1.971484
v -0.438014 0.877585 -1.968880
v 0.601801 0.714871 -1.949536
v -0.601800 0.714871 -1.949536
v 0.524156 0.878875 -1.958300
v 0.509567 0.879365 -1.960563
v -0.509567 0.879365 -1.960563
v -0.524155 0.878875 -1.958300
v 0.550895 0.377767 -1.937452
v -0.550895 0.377767 -1.937452
v 0.550895 0.471436 -1.937452
v 0.515043 0.948402 -1.914367
v 0.511261 0.952784 -1.916107
v -0.511261 0.952784 -1.916107
v -0.515043 0.948403 -1.914367
v 0.647858 0.712724 -1.887532
v -0.647858 0.712725 -1.887532
v 0.594858 0.357263 -1.875838
v -0.594858 0.357263 -1.875838
v 0.594858 0.471436 -1.875838
v 0.647828 0.714967 -1.886856
v -0.647828 0.714968 -1.886856
v 0.499368 1.034357 -1.845430
v -0.499368 1.034357 -1.845430
v 0.503637 1.040464 -1.838240
v -0.503636 1.040464 -1.838240
v 0.652710 0.462012 -1.816464
v 0.635963 0.448778 -1.815873
v -0.635962 0.448779 -1.815873
v -0.652710 0.462012 -1.816464
v 0.662661 0.519158 -1.817273
v -0.662661 0.519158 -1.817273
v 0.668373 0.593774 -1.815689
v -0.668373 0.593774 -1.815689
v 0.670226 0.658113 -1.813817
v -0.670225 0.658114 -1.813817
v 0.502395 1.042062 -1.824594
v -0.502395 1.042062 -1.824594
v 0.618937 0.336362 -1.796636
v -0.618937 0.336362 -1.796636
v 0.615046 0.337882 -1.798507
v -0.615046 0.337882 -1.798507
v 0.625840 0.366747 -1.803472
v -0.625840 0.366747 -1.803472
v 0.652509 0.462121 -1.810214
v 0.635724 0.448995 -1.809765
v -0.635724 0.448995 -1.809765
v -0.652509 0.462121 -1.810214
v 0.614684 0.471436 -1.796256
v 0.662527 0.519170 -1.810949
v -0.662526 0.519171 -1.810949
v 0.668262 0.593961 -1.809264
v -0.668262 0.593961 -1.809264
v 0.670096 0.658451 -1.807400
v -0.670095 0.658451 -1.807400
v 0.668385 0.711949 -1.807372
v -0.668385 0.711950 -1.807372
v 0.667276 0.713730 -1.807528
v -0.667276 0.713730 -1.807528
v 0.659822 0.814445 -1.795710
v -0.659821 0.814445 -1.795710
v 0.624797 0.310342 -1.683666
v 0.339498 0.313427 -1.686049
v 0.624797 0.471436 -1.683666
v 0.339498 0.471436 -1.686049
v 0.484832 1.104630 -1.655285
v -0.484832 1.104630 -1.655285
v 0.493671 1.116135 -1.655093
v -0.493671 1.116136 -1.655093
v 0.632938 0.289586 -1.597895
v 0.405992 0.289587 -1.597895
v 0.347993 0.289587 -1.597895
v 0.231996 0.289587 -1.597895
v 0.000000 0.289587 -1.597895
v -0.231995 0.289587 -1.597895
v -0.347993 0.289587 -1.597895
v -0.405992 0.289587 -1.597895
v -0.632938 0.289587 -1.597895
v 0.640903 0.341248 -1.593241
v 0.405992 0.341248 -1.593241
v -0.405992 0.341248 -1.593241
v -0.640903 0.341248 -1.593241
v 0.656874 0.436032 -1.568925
v 0.405992 0.436032 -1.568925
v -0.405992 0.436032 -1.568925
v -0.656873 0.436032 -1.568925
v 0.673420 0.446586 -1.563863
v 0.405992 0.446586 -1.563863
v -0.405992 0.446587 -1.563863
v -0.673420 0.446587 -1.563863
v -0.701967 0.724903 -1.572667
v -0.695418 0.810598 -1.571377
v -0.687196 0.854279 -1.572837
v -0.689140 0.847463 -1.566379
v 0.688891 0.502700 -1.525196
v 0.405992 0.502700 -1.525196
v -0.405992 0.502700 -1.525196
v -0.688891 0.502700 -1.525196
v 0.476591 1.180556 -1.494178
v -0.476590 1.180556 -1.494178
v 0.703810 0.560270 -1.443082
v 0.405992 0.560270 -1.443082
v -0.405992 0.560271 -1.443082
v -0.703810 0.560271 -1.443082
v -0.719979 0.725483 -1.392459
v -0.714993 0.806399 -1.390524
v -0.708112 0.842903 -1.389693
v 0.712155 0.586773 -1.364876
v 0.405992 0.586773 -1.364876
v -0.405992 0.586773 -1.364876
v -0.712155 0.586773 -1.364876
v -0.721149 0.718621 -1.385870
v -0.715694 0.806346 -1.383766
v -0.707611 0.849376 -1.382789
v 0.466421 1.256191 -1.335438
v 0.461313 1.245052 -1.332615
v -0.461313 1.245052 -1.332615
v -0.466421 1.256191 -1.335438
v 0.720064 0.599301 -1.283596
v 0.405992 0.599301 -1.283596
v -0.405992 0.599301 -1.283596
v -0.720064 0.599302 -1.283596
v 0.405992 0.286312 -1.239132
v 0.000000 0.286312 -1.239132
v -0.405992 0.286312 -1.239132
v 0.724840 0.593815 -1.195315
v 0.405992 0.593816 -1.195315
v -0.405992 0.593816 -1.195315
v -0.724840 0.593816 -1.195315
v 0.454437 1.304856 -1.211495
v -0.454437 1.304857 -1.211495
v 0.721841 0.801556 -1.170839
v -0.721841 0.801556 -1.170839
v 0.714669 0.844039 -1.175949
v 0.705167 0.853490 -1.180914
v -0.705167 0.853491 -1.180914
v -0.714668 0.844039 -1.175949
v 0.681220 0.927044 -1.178613
v -0.681219 0.927044 -1.178613
v 0.612663 1.019641 -1.166910
v -0.612663 1.019641 -1.166910
v 0.612663 1.019327 -1.158973
v 0.606354 1.034818 -1.151274
v -0.606354 1.034819 -1.151274
v -0.612663 1.019327 -1.158973
v 0.727598 0.566997 -1.094919
v 0.405992 0.566997 -1.094919
v -0.405992 0.566997 -1.094919
v -0.727597 0.566997 -1.094919
v 0.733143 0.691386 -1.095888
v -0.733143 0.691386 -1.095888
v 0.733702 0.650331 -1.066763
v -0.733702 0.650331 -1.066763
v 0.736208 0.691267 -1.087446
v -0.736207 0.691267 -1.087446
v 0.736774 0.650238 -1.058230
v -0.736773 0.650238 -1.058230
v 0.451173 1.356080 -1.041206
v -0.451172 1.356081 -1.041206
v 0.724638 0.510175 -1.018041
v 0.405992 0.510175 -1.018041
v -0.405992 0.510176 -1.018041
v -0.724638 0.510176 -1.018041
v 0.731033 0.581155 -1.019144
v -0.731033 0.581155 -1.019144
v 0.734108 0.581022 -1.010541
v -0.734107 0.581022 -1.010541
v 0.713289 0.438916 -0.963449
v 0.405992 0.438916 -0.963449
v -0.405992 0.438916 -0.963449
v -0.713289 0.438916 -0.963449
v 0.725174 0.507095 -0.967457
v -0.725174 0.507095 -0.967457
v 0.698162 0.429341 -0.954788
v 0.405992 0.429341 -0.954788
v -0.405992 0.429342 -0.954788
v -0.698162 0.429342 -0.954788
v 0.504498 1.281757 -0.952795
v -0.504497 1.281757 -0.952795
v 0.714638 0.430852 -0.919482
v 0.701269 0.422606 -0.921196
v -0.701269 0.422607 -0.921196
v -0.714638 0.430852 -0.919482
v 0.448793 1.370519 -0.929200
v -0.448793 1.370519 -0.929200
v 0.684766 0.330203 -0.911162
v 0.405992 0.330203 -0.911162
v -0.405992 0.330203 -0.911162
v -0.684766 0.330203 -0.911162
v 0.477216 1.349907 -0.897546
v -0.477215 1.349907 -0.897546
v 0.454327 1.378523 -0.908809
v -0.454327 1.378523 -0.908809
v 0.679538 0.283037 -0.880369
v 0.405992 0.283037 -0.880369
v -0.405992 0.283037 -0.880369
v -0.679538 0.283037 -0.880369
v 0.474528 1.356292 -0.883775
v -0.474527 1.356292 -0.883775
v 0.466762 1.377553 -0.869118
v 0.453159 1.376287 -0.871159
v -0.453159 1.376288 -0.871159
v -0.466761 1.377553 -0.869118
v 0.449043 1.373444 -0.856762
v -0.449042 1.373444 -0.856762
v 0.454165 1.372037 -0.825140
v -0.454165 1.372037 -0.825140
v 0.454192 1.373618 -0.782918
v -0.454192 1.373618 -0.782918
v 0.458733 1.374731 -0.666243
v -0.458732 1.374731 -0.666243
v 0.688499 0.281356 -0.653755
v 0.000000 0.279432 -0.654988
v -0.688498 0.281356 -0.653755
v 0.449122 1.378434 -0.657424
v -0.449122 1.378434 -0.657424
v 0.453058 1.378924 -0.505105
v -0.453057 1.378924 -0.505105
v 0.694049 0.279620 -0.381237
v 0.000000 0.277697 -0.382470
v -0.694049 0.279620 -0.381237
v 0.447134 1.381651 -0.375866
v -0.447134 1.381651 -0.375866
v 0.457192 1.376320 -0.346669
v -0.457191 1.376320 -0.346669
v 0.452402 1.378761 -0.322592
v -0.452402 1.378761 -0.322592
v 0.511129 1.287707 -0.293386
v -0.511129 1.287707 -0.293386
v 0.471634 1.371726 -0.301507
v 0.457253 1.375878 -0.287691
v -0.457252 1.375879 -0.287691
v -0.471634 1.371726 -0.301507
v 0.593383 1.085031 -0.265526
v -0.593383 1.085031 -0.265526
v 0.553620 1.185999 -0.275798
v -0.553619 1.185999 -0.275798
v 0.511181 1.287631 -0.286357
v -0.511180 1.287632 -0.286357
v 0.448030 1.381193 -0.280141
v -0.448030 1.381193 -0.280141
v 0.700381 0.329874 -0.241680
v -0.700381 0.329874 -0.241680
v 0.726223 0.827066 -0.239289
v -0.726223 0.827066 -0.239289
v 0.702308 0.896873 -0.244223
v -0.702308 0.896874 -0.244223
v 0.635941 0.983265 -0.247736
v -0.635941 0.983266 -0.247736
v 0.626939 1.000242 -0.250086
v -0.626939 1.000242 -0.250086
v 0.593435 1.084804 -0.258087
v -0.593434 1.084804 -0.258087
v 0.457283 1.375657 -0.258202
v -0.457283 1.375658 -0.258202
v 0.700446 0.329833 -0.233959
v -0.700446 0.329833 -0.233959
v 0.721277 0.419136 -0.231969
v -0.721277 0.419136 -0.231969
v 0.741311 0.780405 -0.232064
v -0.741311 0.780405 -0.232064
v 0.726274 0.826814 -0.231650
v -0.726274 0.826814 -0.231650
v 0.702359 0.896599 -0.236580
v -0.702359 0.896599 -0.236580
v 0.448478 1.380964 -0.232278
v -0.448478 1.380964 -0.232278
v 0.464132 1.371385 -0.104722
v 0.452305 1.378608 -0.109003
v -0.452305 1.378608 -0.109003
v -0.464132 1.371386 -0.104722
v 0.694718 0.277537 0.005792
v 0.000000 0.275613 0.004558
v -0.694718 0.277537 0.005792
v 0.458829 1.363848 0.019133
v -0.458828 1.363848 0.019133
v 0.470568 1.358111 0.038660
v -0.470567 1.358111 0.038660
v 0.469676 1.340097 0.118937
v -0.469675 1.340097 0.118937
v 0.482714 1.303897 0.197743
v -0.482713 1.303897 0.197743
v 0.475548 1.300658 0.214356
v -0.475547 1.300658 0.214356
v 0.692503 0.276406 0.252738
v 0.000000 0.274482 0.251505
v -0.692503 0.276406 0.252738
v 0.519905 1.207789 0.357417
v -0.519905 1.207790 0.357417
v 0.507840 1.216471 0.363473
v -0.507839 1.216471 0.363473
v 0.553103 1.121666 0.483312
v -0.553102 1.121666 0.483312
v 0.690290 0.275275 0.499777
v 0.000000 0.273352 0.498544
v -0.690289 0.275276 0.499777
v 0.695721 0.323980 0.511768
v -0.695721 0.323980 0.511768
v 0.544563 1.122589 0.505183
v -0.544563 1.122589 0.505183
v 0.590151 1.018056 0.621532
v 0.577376 1.031166 0.634903
v -0.577376 1.031167 0.634903
v -0.590151 1.018056 0.621532
v 0.688085 0.273843 0.755069
v 0.000000 0.271920 0.753836
v -0.688085 0.273844 0.755069
v 0.692183 0.319134 0.761427
v -0.692183 0.319134 0.761427
v 0.627032 0.926180 0.757649
v -0.627032 0.926180 0.757649
v 0.697874 0.324889 0.766451
v -0.697874 0.324889 0.766451
v 0.723961 0.405711 0.785838
v 0.706978 0.395312 0.782820
v -0.706978 0.395312 0.782820
v -0.723961 0.405711 0.785838
v 0.649115 0.937257 0.765527
v -0.649115 0.937257 0.765527
v 0.723381 0.405030 0.792697
v -0.723381 0.405030 0.792697
v 0.743597 0.477114 0.808492
v 0.736304 0.476190 0.800234
v -0.736304 0.476190 0.800234
v -0.743596 0.477114 0.808492
v 0.743120 0.542642 0.809463
v -0.743120 0.542643 0.809463
v 0.745208 0.600114 0.812131
v -0.745208 0.600114 0.812131
v 0.744811 0.638096 0.811677
v -0.744811 0.638096 0.811677
v 0.732401 0.739340 0.806419
v -0.732401 0.739341 0.806419
v 0.725768 0.777825 0.807398
v -0.725767 0.777826 0.807398
v 0.723230 0.790881 0.804582
v -0.723230 0.790881 0.804582
v 0.697517 0.853834 0.794244
v -0.697516 0.853834 0.794244
v 0.750341 0.542977 0.817761
v -0.750341 0.542977 0.817761
v 0.752409 0.600044 0.820480
v -0.752409 0.600044 0.820480
v 0.751996 0.637191 0.820021
v -0.751996 0.637191 0.820021
v 0.739739 0.737491 0.814661
v -0.739739 0.737491 0.814661
v 0.595229 0.895480 0.819835
v -0.595229 0.895481 0.819835
v 0.683151 0.277626 0.861601
v 0.661350 0.275703 0.860368
v 0.405824 0.275703 0.860368
v 0.000000 0.275703 0.860368
v -0.405823 0.275703 0.860368
v -0.661350 0.275703 0.860368
v -0.683151 0.277627 0.861601
v 0.724982 0.777497 0.840159
v -0.724982 0.777497 0.840159
v 0.724864 0.788000 0.838896
v -0.724864 0.788001 0.838896
v 0.661639 0.271252 0.874765
v 0.405992 0.271253 0.874765
v 0.000000 0.271253 0.874765
v -0.405992 0.271253 0.874765
v -0.661639 0.271253 0.874765
v 0.601034 0.930164 0.882854
v -0.601034 0.930164 0.882854
v 0.695293 0.325599 0.891344
v 0.680532 0.317919 0.889374
v 0.405992 0.321930 0.890422
v -0.405992 0.321930 0.890422
v -0.680532 0.317919 0.889374
v -0.695293 0.325599 0.891344
v 0.719354 0.409716 0.916421
v 0.703153 0.400991 0.913194
v 0.405992 0.405354 0.914807
v -0.405992 0.405354 0.914807
v -0.703153 0.400991 0.913194
v -0.719354 0.409717 0.916421
v 0.731025 0.470691 0.937288
v 0.405992 0.470691 0.937288
v -0.405992 0.470691 0.937288
v -0.731024 0.470691 0.937288
v 0.738663 0.536276 0.966678
v 0.405992 0.536276 0.966678
v -0.405992 0.536276 0.966678
v -0.738663 0.536276 0.966678
v 0.740544 0.593870 1.007902
v 0.405992 0.593870 1.007902
v -0.405992 0.593871 1.007902
v -0.740544 0.593871 1.007902
v 0.718949 0.777616 1.029601
v -0.718949 0.777617 1.029601
v 0.741609 0.635695 1.066648
v 0.405992 0.635695 1.066648
v -0.405992 0.635695 1.066648
v -0.741609 0.635695 1.066648
v 0.717316 0.772046 1.062655
v -0.717315 0.772046 1.062655
v 0.735022 0.658245 1.135997
v 0.405992 0.658245 1.135997
v -0.405992 0.658245 1.135997
v -0.735021 0.658245 1.135997
v 0.730879 0.666614 1.208992
v 0.405992 0.666614 1.208992
v -0.405992 0.666615 1.208992
v -0.730879 0.666615 1.208992
v 0.405992 0.266014 1.234202
v 0.000000 0.280101 1.234202
v -0.405992 0.266014 1.234202
v 0.710131 0.765177 1.250299
v -0.710130 0.765177 1.250299
v 0.726122 0.668172 1.282381
v 0.405992 0.668172 1.282381
v -0.405992 0.668172 1.282381
v -0.726122 0.668172 1.282381
v 0.707845 0.760092 1.284571
v -0.707845 0.760092 1.284571
v 0.720926 0.661594 1.355610
v 0.405992 0.661595 1.355610
v -0.405992 0.661595 1.355610
v -0.720926 0.661595 1.355610
v 0.718608 0.638221 1.424205
v 0.405992 0.638221 1.424205
v -0.405992 0.638221 1.424205
v -0.718608 0.638221 1.424205
v 0.717060 0.596354 1.484408
v 0.710306 0.595521 1.483112
v 0.405992 0.595521 1.483112
v -0.405992 0.595521 1.483112
v -0.710306 0.595521 1.483112
v -0.717060 0.596354 1.484408
v 0.695291 0.749100 1.478283
v -0.695291 0.749100 1.478283
v 0.716925 0.583845 1.494877
v 0.405992 0.580583 1.494258
v -0.405992 0.580583 1.494258
v -0.716925 0.583845 1.494877
v 0.739370 0.539820 1.526458
v 0.405992 0.539820 1.526458
v -0.405992 0.539820 1.526458
v -0.739370 0.539820 1.526458
v 0.701756 0.361259 1.586483
v 0.405992 0.361259 1.586483
v -0.405992 0.361259 1.586483
v -0.701756 0.361259 1.586483
v 0.709798 0.385579 1.585198
v 0.686715 0.380845 1.583897
v 0.405992 0.383212 1.584547
v -0.405992 0.383212 1.584547
v -0.686715 0.380845 1.583897
v -0.709798 0.385579 1.585198
v 0.720961 0.413914 1.579794
v 0.405992 0.413914 1.579794
v -0.405992 0.413914 1.579794
v -0.720961 0.413914 1.579794
v 0.730524 0.468829 1.564391
v 0.405992 0.468829 1.564391
v -0.405992 0.468829 1.564391
v -0.730524 0.468829 1.564391
v 0.672927 0.260776 1.593639
v -0.672927 0.260776 1.593639
v 0.616849 0.263124 1.593639
v 0.560772 0.265472 1.593639
v 0.504695 0.267820 1.593639
v 0.448618 0.270167 1.593639
v 0.392541 0.272515 1.593639
v 0.336463 0.274863 1.593639
v 0.280386 0.277211 1.593639
v 0.224309 0.279559 1.593639
v 0.168232 0.281907 1.593639
v 0.112154 0.284255 1.593639
v 0.056077 0.286602 1.593639
v -0.056077 0.286602 1.593639
v -0.112154 0.284255 1.593639
v -0.168232 0.281907 1.593639
v -0.224309 0.279559 1.593639
v -0.280386 0.277211 1.593639
v -0.336463 0.274863 1.593639
v -0.392540 0.272516 1.593639
v -0.448618 0.270168 1.593639
v -0.504695 0.267820 1.593639
v -0.560772 0.265472 1.593639
v -0.616849 0.263124 1.593639
v 0.000000 0.288950 1.593639
v 0.688859 0.326991 1.592807
v 0.405992 0.326991 1.592807
v -0.405992 0.326991 1.592807
v -0.688859 0.326991 1.592807
v 0.663868 0.264806 1.648818
v -0.663868 0.264806 1.648818
v 0.647680 0.741621 1.711922
v -0.647680 0.741621 1.711922
v 0.648544 0.270116 1.721779
v -0.648544 0.270116 1.721779
v 0.649295 0.737654 1.712598
v -0.649295 0.737654 1.712598
v 0.679658 0.580605 1.771957
v -0.679657 0.580606 1.771957
v 0.677998 0.589847 1.771358
v -0.677997 0.589847 1.771358
v 0.623176 0.276797 1.806893
v -0.623176 0.276797 1.806893
v 0.613158 0.733478 1.806325
v -0.613158 0.733478 1.806325
v 0.579663 0.283128 1.879838
v -0.579663 0.283128 1.879838
v 0.635371 0.580285 1.869553
v -0.635370 0.580285 1.869553
v 0.634793 0.589396 1.863441
v -0.634793 0.589396 1.863441
v 0.517912 0.286844 1.926514
v -0.517912 0.286844 1.926514
v 0.563961 0.583622 1.933614
v -0.563961 0.583623 1.933614
v 0.468336 0.287706 1.942696
v 0.434071 0.288385 1.953944
v -0.434071 0.288385 1.953944
v -0.468335 0.287706 1.942696
v 0.258054 0.708310 1.944528
v 0.131167 0.709269 1.957142
v 0.000000 0.707526 1.962343
v -0.131167 0.709269 1.957142
v -0.258054 0.708310 1.944528
v 0.304830 0.288642 1.972295
v 0.278639 0.294684 1.972879
v -0.278639 0.294685 1.972879
v -0.304830 0.288642 1.972295
v 0.244128 0.676437 1.965627
v 0.126379 0.674851 1.980589
v 0.000000 0.673546 1.985820
v -0.126379 0.674851 1.980589
v -0.244128 0.676437 1.965627
v 0.130029 0.703603 1.963094
v 0.000000 0.701654 1.968408
v -0.130028 0.703603 1.963094
v 0.104221 0.294223 1.990945
v 0.026947 0.294029 1.993403
v 0.000000 0.288950 1.996994
v -0.026947 0.294029 1.993403
v -0.104221 0.294223 1.990945
v 0.120206 0.627518 2.009402
v 0.000000 0.630882 2.012212
v -0.120206 0.627518 2.009402
v 0.239192 0.638574 1.987907
v 0.121549 0.638043 2.002997
v 0.000000 0.637628 2.008037
v -0.121548 0.638043 2.002997
v -0.239192 0.638574 1.987907
v 0.279884 0.387177 2.019059
v -0.279884 0.387178 2.019059
v 0.000000 0.623816 2.016587
v 0.108993 0.387178 2.038922
v 0.026628 0.387178 2.042033
v -0.026628 0.387178 2.042033
v -0.108993 0.387178 2.038922
v 0.314717 0.718336 -2.012691
v 0.308844 0.718336 -2.013444
v -0.308844 0.718336 -2.013444
v -0.314717 0.718336 -2.012691
v 0.326342 0.716011 -1.996187
v 0.293140 0.716129 -2.000325
v -0.293140 0.716129 -2.000325
v -0.326342 0.716011 -1.996187
v 0.313839 0.791082 -2.001666
v 0.307960 0.791082 -2.002359
v -0.307960 0.791082 -2.002359
v -0.313839 0.791082 -2.001666
v 0.313495 0.819577 -1.997348
v 0.307614 0.819577 -1.998017
v -0.307613 0.819577 -1.998017
v -0.313495 0.819577 -1.997348
v 0.316554 0.876828 -1.977293
v 0.301722 0.876911 -1.978771
v -0.301721 0.876911 -1.978771
v -0.316554 0.876828 -1.977293
v 0.699687 0.904247 -1.092907
v -0.699687 0.904247 -1.092907
v 0.678278 0.946620 -1.092593
v -0.678278 0.946620 -1.092593
v 0.703387 0.900275 -0.956836
v -0.703387 0.900275 -0.956836
v 0.681659 0.942903 -0.956517
v -0.681659 0.942904 -0.956517
v 0.704399 0.327805 -0.911943
v -0.704399 0.327805 -0.911943
v 0.699188 0.280749 -0.881133
v -0.699188 0.280749 -0.881133
v 0.705956 0.327694 -0.878617
v -0.705956 0.327694 -0.878617
v 0.700597 0.280566 -0.850442
v -0.700597 0.280566 -0.850442
v 0.718161 0.326937 -0.672453
v 0.708816 0.326937 -0.672453
v -0.708816 0.326937 -0.672453
v -0.718161 0.326937 -0.672453
v 0.712877 0.279399 -0.654198
v 0.703532 0.279399 -0.654198
v -0.703532 0.279399 -0.654198
v -0.712877 0.279399 -0.654198
v 0.718445 0.277776 -0.381419
v 0.709100 0.277776 -0.381419
v -0.709100 0.277776 -0.381419
v -0.718445 0.277776 -0.381419
v 0.718951 0.325896 -0.385446
v -0.718951 0.325896 -0.385446
v 0.718036 0.873709 -0.168497
v 0.710505 0.873709 -0.168497
v -0.710504 0.873709 -0.168497
v -0.718036 0.873709 -0.168497
v 0.695951 0.916970 -0.169289
v 0.685457 0.916970 -0.169289
v -0.685456 0.916971 -0.169289
v -0.695951 0.916971 -0.169289
v 0.715296 0.871707 -0.032393
v 0.707765 0.871707 -0.032393
v -0.707764 0.871707 -0.032393
v -0.715296 0.871707 -0.032393
v 0.692888 0.914623 -0.033196
v 0.682393 0.914623 -0.033196
v -0.682393 0.914624 -0.033196
v -0.692887 0.914624 -0.033196
v 0.719105 0.275604 0.005819
v 0.709760 0.275604 0.005819
v -0.709760 0.275604 0.005819
v -0.719105 0.275604 0.005819
v 0.720156 0.323875 0.011605
v -0.720156 0.323876 0.011605
v 0.716863 0.274266 0.252853
v 0.707518 0.274266 0.252853
v -0.707518 0.274266 0.252853
v -0.716863 0.274266 0.252853
v 0.718519 0.322389 0.261336
v -0.718519 0.322389 0.261336
v 0.648655 0.958567 0.451464
v 0.625699 0.948251 0.450881
v -0.625699 0.948251 0.450881
v -0.648655 0.958567 0.451464
v 0.640690 0.979234 0.451241
v 0.617734 0.968917 0.450658
v -0.617734 0.968917 0.450658
v -0.640690 0.979234 0.451241
v 0.583752 1.057081 0.449706
v -0.583752 1.057081 0.449706
v 0.606708 1.067398 0.450289
v 0.573265 1.084289 0.449412
v -0.573265 1.084289 0.449412
v -0.606708 1.067398 0.450289
v 0.827236 1.091619 0.461171
v 0.804422 1.100288 0.459238
v 0.596221 1.094605 0.449996
v -0.596221 1.094605 0.449996
v -0.804422 1.100288 0.459238
v -0.827235 1.091619 0.461171
v 0.585734 1.121813 0.449702
v 0.559632 1.119660 0.449031
v -0.559631 1.119660 0.449031
v -0.585734 1.121813 0.449702
v 0.804859 0.981713 0.479230
v -0.804859 0.981713 0.479230
v 0.826632 0.998600 0.479573
v 0.803061 0.988657 0.478340
v -0.803060 0.988657 0.478340
v -0.826632 0.998600 0.479573
v 0.840000 1.023144 0.472696
v 0.833664 1.025042 0.476296
v 0.651307 1.030825 0.484243
v -0.651306 1.030825 0.484243
v -0.833664 1.025042 0.476296
v -0.840000 1.023144 0.472696
v 0.840000 1.045518 0.468912
v 0.833662 1.046080 0.472706
v 0.649777 1.052411 0.480588
v -0.649777 1.052411 0.480588
v -0.833662 1.046081 0.472706
v -0.840000 1.045518 0.468912
v 0.840000 1.067710 0.465159
v 0.833662 1.066876 0.469190
v 0.680834 1.087374 0.475253
v 0.658389 1.078284 0.478904
v -0.658389 1.078284 0.478904
v -0.680834 1.087374 0.475253
v -0.833662 1.066876 0.469190
v -0.840000 1.067710 0.465159
v 0.827987 1.091194 0.477904
v 0.804730 1.101014 0.475771
v 0.679812 1.092468 0.477877
v -0.679812 1.092469 0.477877
v -0.804730 1.101015 0.475771
v -0.827987 1.091194 0.477904
v 0.714621 0.272928 0.499887
v 0.705276 0.272928 0.499887
v -0.705276 0.272928 0.499887
v -0.714621 0.272929 0.499887
v 0.721555 0.320902 0.511067
v 0.712210 0.320902 0.511067
v -0.712210 0.320903 0.511067
v -0.721555 0.320903 0.511067
v 0.804859 0.981713 0.502317
v 0.670899 0.975595 0.494316
v 0.656291 0.974691 0.496355
v -0.656291 0.974691 0.496355
v -0.670899 0.975595 0.494316
v -0.804859 0.981713 0.502317
v 0.829708 0.994685 0.505013
v 0.803676 0.990109 0.488319
v -0.803676 0.990110 0.488319
v -0.829707 0.994685 0.505013
v 0.840000 1.023154 0.495781
v 0.647248 1.025141 0.507419
v 0.623596 1.020571 0.510695
v -0.623596 1.020572 0.510695
v -0.647248 1.025141 0.507419
v -0.840000 1.023155 0.495781
v 0.840000 1.045518 0.491999
v 0.650086 1.053127 0.497123
v -0.650085 1.053128 0.497123
v -0.840000 1.045518 0.491999
v 0.840000 1.067692 0.488249
v 0.654859 1.081041 0.499207
v -0.654859 1.081041 0.499207
v -0.840000 1.067692 0.488249
v 0.823537 1.094351 0.504771
v 0.678999 1.094289 0.497287
v -0.678999 1.094290 0.497287
v -0.823537 1.094351 0.504771
v 0.648029 0.955788 0.521685
v 0.625073 0.945472 0.521102
v -0.625073 0.945472 0.521102
v -0.648029 0.955789 0.521685
v 0.805697 0.981929 0.533140
v 0.671663 0.971121 0.515948
v 0.648384 0.969455 0.517923
v -0.648384 0.969455 0.517923
v -0.671662 0.971121 0.515948
v -0.805696 0.981929 0.533140
v 0.832689 1.017366 0.526659
v -0.832688 1.017367 0.526659
v 0.825957 1.041396 0.525879
v -0.825956 1.041396 0.525879
v 0.831205 1.067719 0.517117
v 0.811480 1.072114 0.528094
v -0.811479 1.072115 0.528094
v -0.831205 1.067719 0.517117
v 0.804855 1.100210 0.514727
v -0.804854 1.100211 0.514727
v 0.643055 0.966764 0.555318
v -0.643055 0.966764 0.555318
v 0.811471 1.005406 0.537881
v -0.811471 1.005406 0.537881
v 0.624341 1.016980 0.543740
v -0.624340 1.016980 0.543740
v 0.655507 1.051075 0.562426
v -0.655506 1.051075 0.562426
v 0.683782 1.084155 0.548060
v 0.657807 1.071578 0.542057
v -0.657807 1.071578 0.542057
v -0.683781 1.084156 0.548060
v 0.673173 0.970433 0.563949
v 0.652800 0.976138 0.570959
v -0.652799 0.976138 0.570959
v -0.673173 0.970434 0.563949
v 0.678557 0.991151 0.580078
v -0.678556 0.991151 0.580078
v 0.680044 1.025831 0.580181
v 0.650617 1.021186 0.570508
v -0.650617 1.021186 0.570508
v -0.680044 1.025831 0.580181
v 0.682570 1.059559 0.572286
v -0.682569 1.059560 0.572286
v 0.647403 0.953009 0.591907
v 0.624447 0.942693 0.591323
v -0.624446 0.942693 0.591323
v -0.647402 0.953010 0.591907
v 0.628997 1.001855 0.604447
v 0.606041 1.000424 0.603863
v -0.606041 1.000424 0.603863
v -0.628997 1.001855 0.604447
v 0.645426 0.954152 0.657746
v 0.620444 0.958603 0.650591
v -0.620444 0.958603 0.650591
v -0.645426 0.954152 0.657746
v 0.623766 0.939675 0.667588
v -0.623766 0.939675 0.667588
v 0.707706 0.271252 0.755461
v -0.707706 0.271253 0.755461
v 0.719918 0.319078 0.769338
v 0.710573 0.319078 0.769338
v -0.710573 0.319078 0.769338
v -0.719918 0.319078 0.769338
v 0.595229 0.895480 0.819835
v -0.595229 0.895481 0.819835
v 0.753541 0.697526 0.855475
v -0.753540 0.697526 0.855475
v 0.745071 0.733748 0.854600
v -0.745071 0.733748 0.854600
v 0.749365 0.738974 0.857779
v -0.749365 0.738974 0.857779
v -0.453265 0.936351 0.859196
v -0.452086 0.944003 0.854059
v 0.701836 0.271252 0.874765
v -0.701836 0.271253 0.874765
v 0.756526 0.700754 0.863338
v -0.756526 0.700754 0.863338
v 0.750144 0.733681 0.863318
v -0.750144 0.733681 0.863318
v 0.601034 0.930164 0.882854
v -0.601034 0.930164 0.882854
v -0.368253 0.949521 0.886065
v -0.454400 0.942997 0.862978
v 0.714048 0.319078 0.888643
v 0.704703 0.319078 0.888643
v -0.704702 0.319078 0.888643
v -0.714048 0.319078 0.888643
v 0.424284 0.894982 0.911319
v 0.411289 0.900569 0.909388
v -0.293899 0.952896 0.912438
v -0.371081 0.948821 0.896917
v 0.752904 0.703005 0.934637
v -0.752904 0.703006 0.934637
v 0.747396 0.731420 0.934627
v -0.747396 0.731420 0.934627
v 0.427982 0.882132 0.930881
v 0.437438 0.910011 0.936093
v 0.397940 0.897780 0.921802
v 0.430741 0.928640 0.930210
v 0.406316 0.926691 0.932588
v 0.292953 0.936828 0.927039
v -0.396277 0.932044 0.921288
v 0.423275 0.942152 0.934170
v 0.292911 0.944244 0.925196
v -0.252926 0.962075 0.933997
v -0.279631 0.954878 0.927303
v -0.294845 0.956189 0.925061
v -0.397798 0.940483 0.920402
v -0.258925 0.969166 0.936661
v -0.281561 0.968229 0.929597
v -0.293243 0.965958 0.928641
v 0.749514 0.696742 0.940124
v -0.749514 0.696743 0.940124
v 0.746445 0.734468 0.942682
v 0.735688 0.734330 0.940127
v -0.735688 0.734330 0.940127
v -0.746445 0.734468 0.942682
v 0.745802 0.738974 0.937535
v -0.745801 0.738974 0.937535
v 0.414633 0.879343 0.943295
v 0.401638 0.884931 0.941364
v 0.451300 0.894254 0.945913
v 0.430667 0.907597 0.954551
v 0.408429 0.908491 0.955405
v -0.451299 0.894254 0.945913
v 0.440179 0.923215 0.952515
v 0.406710 0.922931 0.953467
v 0.345631 0.933056 0.950182
v 0.411259 0.941522 0.942170
v 0.341324 0.949159 0.956227
v 0.329530 0.946332 0.957567
v 0.204028 0.949334 0.948785
v 0.148567 0.960759 0.960014
v 0.122208 0.957991 0.958524
v 0.103178 0.958660 0.960366
v -0.105994 0.949600 0.960177
v -0.197611 0.953455 0.948209
v -0.255397 0.949026 0.949943
v -0.268457 0.954326 0.953338
v -0.289013 0.961931 0.938004
v -0.254721 0.967101 0.942394
v -0.279040 0.963470 0.938179
v 0.502164 0.930875 0.967561
v 0.418822 0.924279 0.966919
v 0.345316 0.931573 0.972004
v 0.329465 0.931079 0.977425
v 0.203048 0.934324 0.981986
v 0.153331 0.936561 0.978894
v -0.203047 0.934324 0.981986
v -0.258102 0.931201 0.968438
v -0.502163 0.930875 0.967561
v 0.341180 0.946497 0.977999
v 0.327161 0.950794 0.973663
v 0.149351 0.949934 0.976547
v 0.121470 0.954777 0.970716
v 0.107197 0.956038 0.971262
v 0.025793 0.954296 0.973666
v -0.107915 0.951144 0.967384
v -0.257197 0.952529 0.971090
v -0.265857 0.950851 0.971695
v 0.149026 0.965835 0.968042
v 0.120398 0.966338 0.971288
v 0.107758 0.967404 0.971452
v 0.019753 0.910572 1.011741
v 0.153788 0.930663 0.994498
v 0.012979 0.934291 1.009165
v 0.001403 0.914803 1.005155
v 0.326526 0.945717 0.988942
v 0.153377 0.950723 0.995649
v 0.104054 0.938003 1.001136
v 0.009243 0.942868 1.005989
v -0.079980 0.955634 1.009352
v -0.092998 0.954862 1.008141
v 0.259876 0.902183 1.016232
v 0.016452 0.898817 1.032065
v -0.011608 0.900512 1.030200
v -0.013819 0.908184 1.017098
v -0.259876 0.902183 1.016232
v 0.020202 0.935083 1.026094
v -0.013370 0.932696 1.031451
v -0.071868 0.935994 1.027969
v 0.020486 0.950546 1.035149
v 0.003249 0.947486 1.022931
v -0.013207 0.941586 1.036657
v -0.078497 0.948503 1.028149
v -0.095463 0.948864 1.029940
v -0.081534 0.968000 1.018405
v -0.095539 0.969043 1.019855
v 0.131098 0.906362 1.045973
v -0.000105 0.902476 1.045679
v -0.131097 0.906362 1.045973
v 0.316705 0.932611 1.050478
v 0.016983 0.927774 1.049021
v -0.006518 0.927579 1.050234
v -0.316705 0.932611 1.050478
v 0.017796 0.942486 1.056674
v -0.010815 0.943773 1.055532
v -0.013027 0.951445 1.042430
v -0.084693 0.956808 1.039607
v -0.095562 0.958636 1.038979
v 0.000582 0.939047 1.063227
v 0.158141 0.937292 1.090811
v -0.158141 0.937292 1.090811
v 0.000000 0.938636 1.103682
v 0.553173 0.721198 1.852898
v -0.553173 0.721198 1.852898
v 0.545335 0.725925 1.868011
v 0.529205 0.719974 1.864993
v -0.529205 0.719974 1.864993
v -0.545335 0.725925 1.868011
v 0.567506 0.630179 1.901032
v 0.553603 0.631245 1.910111
v -0.553603 0.631245 1.910111
v -0.567506 0.630179 1.901032
v 0.559057 0.667210 1.895327
v -0.559057 0.667210 1.895327
v 0.474590 0.300637 1.936420
v -0.474590 0.300637 1.936420
v 0.444111 0.301504 1.947369
v -0.444111 0.301504 1.947369
v 0.478342 0.318656 1.948546
v 0.447010 0.320538 1.953968
v -0.447010 0.320538 1.953968
v -0.478342 0.318656 1.948546
v 0.307301 0.302661 1.968892
v -0.307301 0.302661 1.968892
v 0.332982 0.320431 1.969608
v -0.332982 0.320431 1.969608
v 0.483760 0.344684 1.966060
v 0.446965 0.345027 1.972141
v 0.333626 0.345137 1.978064
v -0.333626 0.345137 1.978064
v -0.446965 0.345027 1.972141
v -0.483760 0.344684 1.966060
v 0.488237 0.366183 1.972765
v 0.446714 0.369066 1.975765
v -0.446714 0.369066 1.975765
v -0.488237 0.366184 1.972765
v 0.492713 0.387683 1.979469
v -0.492713 0.387684 1.979469
v 0.332493 0.345081 1.990032
v 0.306140 0.345172 1.992506
v -0.306140 0.345172 1.992506
v -0.332493 0.345081 1.990032
v 0.447567 0.369911 1.987915
v 0.332982 0.368905 1.996417
v -0.332982 0.368905 1.996417
v -0.447567 0.369911 1.987915
v 0.456602 0.387683 1.992631
v -0.456602 0.387684 1.992631
v 0.304978 0.387684 2.016120
v -0.304978 0.387684 2.016120
v 0.189174 1.024272 -1.874198
v 0.000000 1.025810 -1.873325
v -0.189174 1.024272 -1.874198
v 0.191636 1.047799 -1.877148
v 0.000000 1.047771 -1.880189
v -0.191636 1.047799 -1.877148
v 0.408882 1.025877 -1.848001
v 0.188626 1.028941 -1.862436
v -0.188626 1.028941 -1.862436
v -0.408881 1.025878 -1.848001
v 0.411333 1.047866 -1.854903
v -0.411333 1.047866 -1.854903
v 0.477175 1.026569 -1.824027
v -0.477174 1.026569 -1.824027
v 0.479230 1.048175 -1.832070
v -0.479230 1.048176 -1.832070
v 0.556547 1.039012 -1.643952
v -0.556546 1.039012 -1.643952
v 0.471346 1.095694 -1.652036
v 0.459910 1.097079 -1.653583
v -0.459909 1.097079 -1.653583
v -0.471346 1.095695 -1.652036
v 0.469199 1.117509 -1.661450
v -0.469199 1.117510 -1.661450
v 0.549513 1.059437 -1.628177
v -0.549512 1.059437 -1.628177
v 0.539817 1.066769 -1.622624
v 0.515403 1.067466 -1.626567
v 0.511008 1.068031 -1.623276
v -0.511008 1.068031 -1.623276
v -0.515402 1.067466 -1.626567
v -0.539816 1.066769 -1.622624
v 0.543581 1.065637 -1.604153
v 0.519879 1.065608 -1.608358
v -0.519879 1.065608 -1.608358
v -0.543581 1.065637 -1.604153
v 0.525653 1.108345 -1.590571
v 0.504530 1.106025 -1.588372
v -0.504530 1.106025 -1.588372
v -0.525653 1.108345 -1.590571
v 0.531659 1.096300 -1.580819
v 0.510371 1.096080 -1.583624
v -0.510370 1.096080 -1.583624
v -0.531659 1.096300 -1.580819
v 0.458655 1.176811 -1.494540
v -0.458655 1.176811 -1.494540
v 0.451305 1.188407 -1.500259
v -0.451304 1.188407 -1.500259
v 0.514365 1.162899 -1.446008
v 0.502049 1.172277 -1.451007
v 0.486717 1.174243 -1.451039
v -0.486717 1.174243 -1.451039
v -0.502049 1.172277 -1.451007
v -0.514365 1.162900 -1.446008
v 0.601966 1.028544 -1.387750
v -0.601966 1.028544 -1.387750
v 0.595342 1.046010 -1.374550
v 0.579558 1.053823 -1.369027
v -0.579558 1.053823 -1.369027
v -0.595341 1.046010 -1.374550
v 0.445692 1.257884 -1.338988
v -0.445692 1.257884 -1.338988
v 0.447823 1.236179 -1.329220
v -0.447822 1.236179 -1.329220
v 0.436403 1.237603 -1.330875
v -0.436403 1.237603 -1.330875
v 0.150864 1.308656 -1.313770
v -0.150864 1.308656 -1.313770
v 0.152242 1.332547 -1.316764
v 0.000000 1.323487 -1.323397
v -0.152241 1.332547 -1.316764
v 0.000000 1.338692 -1.323243
v 0.502791 1.231081 -1.298312
v 0.478572 1.231251 -1.299516
v -0.478572 1.231251 -1.299516
v -0.502791 1.231082 -1.298312
v 0.496057 1.245338 -1.304465
v 0.475064 1.242626 -1.302904
v -0.475063 1.242626 -1.302904
v -0.496057 1.245338 -1.304465
v 0.149628 1.313791 -1.302254
v -0.149628 1.313791 -1.302254
v 0.299675 1.301132 -1.271037
v -0.299674 1.301132 -1.271037
v 0.303830 1.321398 -1.281408
v -0.303830 1.321399 -1.281408
v 0.432824 1.299931 -1.245849
v -0.432824 1.299931 -1.245849
v 0.439216 1.283453 -1.221798
v 0.428568 1.279220 -1.236566
v -0.428567 1.279220 -1.236566
v -0.439215 1.283453 -1.221798
v 0.441892 1.303946 -1.232313
v -0.441892 1.303946 -1.232313
v 0.617133 1.031123 -1.193525
v -0.617133 1.031124 -1.193525
v 0.598410 1.045334 -1.202579
v -0.598409 1.045334 -1.202579
v 0.603563 1.043962 -1.183994
v 0.584111 1.044263 -1.186763
v -0.584111 1.044264 -1.186763
v -0.603563 1.043962 -1.183994
v 0.494428 1.283775 -1.166511
v 0.471216 1.283998 -1.168004
v -0.471215 1.283998 -1.168004
v -0.494428 1.283775 -1.166511
v 0.487720 1.298185 -1.172291
v 0.466722 1.295446 -1.170797
v -0.466721 1.295446 -1.170797
v -0.487719 1.298185 -1.172291
v 0.581300 1.106324 -1.147567
v 0.560104 1.107052 -1.147015
v -0.560104 1.107052 -1.147015
v -0.581299 1.106324 -1.147567
v 0.492232 1.298996 -1.128543
v 0.466904 1.305111 -1.131025
v -0.466903 1.305111 -1.131025
v -0.492231 1.298996 -1.128543
v 0.485483 1.313788 -1.133256
v -0.485483 1.313788 -1.133256
v 0.546109 1.195512 -1.074312
v 0.524708 1.195909 -1.073671
v -0.524707 1.195909 -1.073671
v -0.546109 1.195512 -1.074312
v 0.620600 1.033242 -1.049653
v -0.620599 1.033242 -1.049653
v 0.616928 1.038732 -1.055261
v 0.598460 1.038728 -1.050394
v -0.598460 1.038728 -1.050394
v -0.616927 1.038733 -1.055261
v 0.577444 1.086570 -1.041284
v -0.577444 1.086571 -1.041284
v 0.594930 1.090549 -1.050904
v 0.571203 1.091170 -1.052325
v -0.571202 1.091170 -1.052325
v -0.594930 1.090549 -1.050904
v 0.602116 1.037051 -1.036299
v -0.602115 1.037051 -1.036299
v 0.490948 1.322251 -1.032219
v 0.465207 1.328758 -1.032784
v -0.465207 1.328758 -1.032784
v -0.490947 1.322251 -1.032219
v 0.484139 1.337507 -1.035088
v -0.484138 1.337507 -1.035088
v 0.559265 1.177850 -0.990512
v -0.559265 1.177850 -0.990512
v 0.514617 1.277672 -0.996690
v 0.504398 1.285344 -1.006188
v -0.504398 1.285344 -1.006188
v -0.514616 1.277672 -0.996690
v 0.484138 1.297179 -0.999462
v -0.484137 1.297179 -0.999462
v 0.555740 1.168805 -0.977340
v 0.537085 1.176342 -0.984853
v -0.537085 1.176343 -0.984853
v -0.555739 1.168805 -0.977340
v 0.491081 1.333364 -0.967887
v 0.466740 1.333364 -0.967887
v -0.466739 1.333364 -0.967887
v -0.491081 1.333364 -0.967887
v 0.464785 1.347304 -0.939612
v -0.464784 1.347304 -0.939612
v 0.486087 1.350533 -0.934082
v -0.486087 1.350533 -0.934082
v 0.521571 1.268079 -0.904424
v 0.501636 1.266752 -0.900006
v -0.501635 1.266752 -0.900006
v -0.521571 1.268080 -0.904424
v 0.490493 1.350966 -0.827902
v 0.467310 1.349482 -0.825092
v -0.467309 1.349482 -0.825092
v -0.490492 1.350966 -0.827902
v 0.491618 1.348409 -0.674646
v 0.466065 1.354804 -0.671726
v -0.466065 1.354804 -0.671726
v -0.491618 1.348409 -0.674646
v 0.486816 1.363675 -0.675019
v -0.486816 1.363675 -0.675019
v 0.491100 1.349915 -0.510214
v 0.466592 1.349915 -0.509009
v -0.466592 1.349915 -0.509009
v -0.491100 1.349915 -0.510214
v 0.479033 1.364360 -0.509010
v -0.479032 1.364360 -0.509010
v 0.564961 1.186079 -0.343847
v 0.540378 1.186079 -0.343847
v -0.540378 1.186079 -0.343847
v -0.564961 1.186079 -0.343847
v 0.522688 1.287153 -0.352977
v 0.498105 1.287153 -0.352977
v -0.498105 1.287153 -0.352977
v -0.522688 1.287153 -0.352977
v 0.521415 1.288523 -0.337720
v -0.521415 1.288523 -0.337720
v 0.490602 1.351927 -0.358122
v 0.466019 1.349357 -0.355193
v -0.466018 1.349357 -0.355193
v -0.490601 1.351927 -0.358122
v 0.477080 1.363977 -0.343784
v -0.477080 1.363978 -0.343784
v 0.633474 1.006725 -0.327644
v 0.609386 1.005757 -0.323225
v -0.609385 1.005757 -0.323225
v -0.633474 1.006725 -0.327644
v 0.604079 1.086247 -0.327138
v 0.580579 1.086087 -0.326441
v -0.580578 1.086087 -0.326441
v -0.604078 1.086248 -0.327138
v 0.563688 1.187449 -0.328590
v 0.541271 1.187128 -0.327196
v -0.541271 1.187129 -0.327196
v -0.563688 1.187449 -0.328590
v 0.498998 1.288202 -0.336327
v -0.498998 1.288202 -0.336327
v 0.646330 0.985727 -0.309948
v -0.646330 0.985728 -0.309948
v 0.641633 0.998611 -0.311113
v 0.630854 1.006540 -0.312039
v 0.610278 1.006420 -0.310872
v -0.610278 1.006420 -0.310872
v -0.630854 1.006540 -0.312039
v -0.641633 0.998611 -0.311113
v 0.522418 1.286241 -0.244719
v 0.489695 1.287022 -0.240478
v -0.489695 1.287022 -0.240478
v -0.522418 1.286242 -0.244719
v 0.495215 1.347787 -0.239316
v 0.470632 1.344342 -0.242438
v 0.454413 1.362215 -0.254762
v -0.454413 1.362215 -0.254762
v -0.470632 1.344343 -0.242438
v -0.495215 1.347787 -0.239316
v 0.484673 1.366993 -0.259876
v -0.484673 1.366993 -0.259876
v 0.564771 1.184048 -0.225785
v 0.532048 1.184829 -0.221544
v -0.532048 1.184829 -0.221544
v -0.564771 1.184048 -0.225785
v 0.523059 1.289380 -0.227670
v 0.498476 1.289380 -0.227670
v -0.498476 1.289381 -0.227670
v -0.523059 1.289381 -0.227670
v 0.641402 0.993881 -0.189107
v 0.631198 1.001751 -0.191293
v 0.601059 1.002113 -0.187692
v -0.601059 1.002113 -0.187692
v -0.631198 1.001751 -0.191293
v -0.641402 0.993882 -0.189107
v 0.604865 1.083982 -0.198431
v 0.576212 1.084372 -0.196310
v -0.576212 1.084372 -0.196310
v -0.604864 1.083982 -0.198431
v 0.565412 1.187187 -0.208737
v 0.540829 1.187187 -0.208737
v -0.540829 1.187187 -0.208737
v -0.565411 1.187187 -0.208737
v 0.646101 0.980849 -0.186675
v -0.646101 0.980849 -0.186675
v 0.635607 1.001187 -0.174276
v 0.611024 1.001187 -0.174276
v -0.611024 1.001187 -0.174276
v -0.635607 1.001187 -0.174276
v 0.496780 1.352993 -0.105546
v 0.476539 1.344373 -0.106053
v 0.461714 1.357326 -0.105273
v -0.461714 1.357326 -0.105273
v -0.476539 1.344373 -0.106053
v -0.496780 1.352993 -0.105546
v 0.508051 1.330346 0.042937
v 0.483486 1.330346 0.043023
v -0.483485 1.330346 0.043023
v -0.508050 1.330346 0.042937
v 0.499815 1.347352 0.045987
v 0.468982 1.343122 0.045228
v -0.468981 1.343122 0.045228
v -0.499815 1.347352 0.045987
v 0.510572 1.312104 0.107085
v -0.510572 1.312104 0.107085
v 0.479307 1.319676 0.109327
v -0.479307 1.319676 0.109327
v 0.503705 1.328285 0.112840
v -0.503705 1.328285 0.112840
v 0.489277 1.287728 0.172152
v -0.489277 1.287728 0.172152
v 0.520517 1.275663 0.201290
v 0.485778 1.279426 0.203434
v 0.455259 1.273835 0.208591
v -0.455258 1.273835 0.208591
v -0.485778 1.279426 0.203434
v -0.520517 1.275663 0.201290
v 0.443024 1.269784 0.231015
v -0.443023 1.269784 0.231015
v 0.464053 1.307081 0.221819
v 0.459888 1.291558 0.215786
v -0.459888 1.291558 0.215786
v -0.464052 1.307081 0.221819
v 0.450665 1.295232 0.241976
v -0.450665 1.295232 0.241976
v 0.315663 1.290643 0.286274
v 0.311904 1.296928 0.269628
v -0.311904 1.296928 0.269628
v -0.315662 1.290643 0.286274
v 0.316666 1.325613 0.278456
v -0.316665 1.325613 0.278456
v 0.155177 1.310366 0.306363
v -0.155176 1.310366 0.306363
v 0.320216 1.317759 0.294902
v 0.156676 1.329303 0.311824
v -0.156676 1.329303 0.311824
v -0.320215 1.317759 0.294902
v 0.157192 1.305075 0.323686
v -0.157192 1.305075 0.323686
v 0.159373 1.332723 0.331660
v 0.000000 1.328183 0.323751
v -0.159373 1.332723 0.331660
v 0.157843 1.344764 0.315836
v 0.000000 1.350052 0.329420
v -0.157842 1.344764 0.315836
v 0.557278 1.180858 0.340064
v 0.532578 1.180803 0.340207
v -0.532578 1.180803 0.340207
v -0.557278 1.180858 0.340064
v 0.548988 1.195232 0.349681
v 0.518168 1.191656 0.347289
v 0.478199 1.192920 0.357459
v -0.478199 1.192920 0.357459
v -0.518167 1.191656 0.347289
v -0.548987 1.195232 0.349681
v 0.000000 1.310513 0.337683
v 0.000000 1.338286 0.345451
v 0.491312 1.208341 0.363264
v -0.491312 1.208341 0.363264
v 0.495997 1.221835 0.370255
v 0.478194 1.218672 0.373317
v -0.478194 1.218672 0.373317
v -0.495997 1.221835 0.370255
v 0.642057 0.955602 0.451297
v 0.629765 0.955602 0.451297
v -0.629765 0.955602 0.451297
v -0.642056 0.955602 0.451297
v 0.627337 0.973541 0.451301
v -0.628447 0.972985 0.451305
v 0.579006 1.102931 0.449498
v -0.579006 1.102931 0.449498
v 0.575823 1.124121 0.449549
v 0.545772 1.118847 0.449534
v -0.545771 1.118848 0.449534
v -0.575822 1.124121 0.449549
v 0.522436 1.098447 0.495045
v 0.506989 1.100911 0.501461
v -0.506988 1.100911 0.501461
v -0.522436 1.098448 0.495045
v 0.530006 1.119718 0.507355
v -0.530006 1.119718 0.507355
v 0.524226 1.127846 0.514710
v -0.524225 1.127846 0.514710
v 0.547317 1.008877 0.627074
v -0.547317 1.008877 0.627074
v 0.560664 1.023565 0.633911
v -0.560663 1.023565 0.633911
v 0.564891 1.033281 0.639874
v 0.547846 1.033189 0.645135
v -0.547846 1.033190 0.645135
v -0.564890 1.033282 0.639874
v 0.566305 1.039420 0.644034
v -0.566304 1.039420 0.644034
v 0.598192 0.882290 0.782882
v -0.598192 0.882290 0.782882
v 0.604172 0.875654 0.801382
v 0.584171 0.880580 0.794578
v -0.584850 0.878606 0.797081
v -0.604172 0.875654 0.801382
v 0.591141 0.907362 0.804762
v -0.591141 0.907362 0.804762
v 0.609602 0.913573 0.803695
v -0.609602 0.913573 0.803695
v 0.613691 0.901690 0.818771
v 0.595229 0.895480 0.819835
v -0.595229 0.895481 0.819835
v -0.613691 0.901690 0.818771
v 0.622139 0.866904 0.850952
v 0.496114 0.886283 0.861831
v -0.496113 0.886284 0.861831
v -0.622138 0.866904 0.850952
v 0.492598 0.898065 0.846546
v -0.492598 0.898065 0.846546
v 0.500924 0.920891 0.861707
v -0.500924 0.920892 0.861707
v 0.504452 0.909072 0.877043
v -0.504451 0.909072 0.877043
v 0.400052 0.903175 0.900864
v -0.400051 0.903175 0.900864
v 0.406937 0.931887 0.908360
v -0.406937 0.931887 0.908360
v 0.409836 0.920113 0.923891
v 0.300370 0.917257 0.928405
v -0.300370 0.917257 0.928405
v -0.409836 0.920113 0.923891
v 0.302515 0.905542 0.943981
v -0.302515 0.905542 0.943981
v 0.310863 0.928359 0.959315
v 0.199398 0.923173 0.954115
v -0.199398 0.923174 0.954115
v -0.310863 0.928359 0.959315
v 0.308707 0.940113 0.943690
v -0.308707 0.940113 0.943690
v 0.200767 0.911434 0.969588
v -0.200766 0.911434 0.969588
v 0.208087 0.934244 0.984893
v 0.099185 0.927646 0.973464
v 0.000000 0.929520 0.981509
v -0.099184 0.927646 0.973464
v -0.208086 0.934244 0.984893
v 0.206708 0.946022 0.969369
v -0.206708 0.946022 0.969369
v 0.099848 0.915853 0.988705
v 0.000000 0.917698 0.996626
v -0.099848 0.915853 0.988705
v 0.103691 0.944574 0.996345
v 0.000000 0.946432 1.004323
v -0.103691 0.944574 0.996345
v 0.712893 0.274954 1.223759
v 0.710647 0.274708 1.223953
v 0.712893 0.299452 1.214162
v 0.710647 0.300322 1.214356
v 0.712893 0.317198 1.225989
v 0.710647 0.317198 1.225989
v 0.712893 0.274739 1.251955
v 0.710647 0.275348 1.252748
v 0.712893 0.303803 1.253909
v 0.710647 0.308155 1.261470
v 0.712893 0.318147 1.248775
v 0.710647 0.318103 1.249086
v 0.712893 0.295100 1.264384
v 0.710647 0.295100 1.264384
v -0.710647 0.274708 1.223952
v -0.712893 0.274954 1.223759
v -0.710647 0.300322 1.214356
v -0.712893 0.299452 1.214162
v -0.710647 0.317198 1.225989
v -0.712893 0.317198 1.225989
v -0.710647 0.275348 1.252748
v -0.712893 0.274739 1.251955
v -0.710647 0.308155 1.261470
v -0.712893 0.303803 1.253909
v -0.710647 0.318103 1.249086
v -0.712893 0.318147 1.248775
v -0.710647 0.295100 1.264384
v -0.712893 0.295100 1.264384
v 0.691855 0.276226 -1.269995
v 0.691870 0.299762 -1.277361
v 0.691923 0.315637 -1.268613
v 0.691923 0.270309 -1.249531
v 0.692672 0.295100 -1.252805
v 0.691870 0.319579 -1.248128
v 0.691829 0.280017 -1.231683
v 0.691923 0.298364 -1.227936
v 0.691923 0.313562 -1.234284
v -0.691855 0.276226 -1.269995
v -0.691870 0.299762 -1.277361
v -0.691923 0.315637 -1.268613
v -0.691923 0.270309 -1.249531
v -0.692671 0.295100 -1.252805
v -0.691870 0.319579 -1.248128
v -0.691829 0.280017 -1.231683
v -0.691923 0.298364 -1.227936
v -0.691923 0.313562 -1.234284
f 10 8 9
f 10 9 11
f 10 11 16
f 10 16 15
f 446 462 467
f 446 443 452
f 446 452 458
f 446 458 462
f 446 427 433
f 446 433 439
f 446 439 443
f 446 423 427
f 446 419 423
f 446 414 419
f 446 408 414
f 446 400 408
f 446 474 478
f 446 478 496
f 446 496 492
f 446 492 487
f 446 525 505
f 446 482 525
f 446 487 482
f 446 467 474
f 499 528 501
f 507 508 446
f 446 505 506
f 161 147 158
f 161 199 207
f 161 122 126
f 161 109 118
f 161 118 122
f 161 126 134
f 161 213 225
f 161 225 233
f 161 207 213
f 161 158 165
f 161 165 185
f 161 140 147
f 161 185 199
f 161 134 140
f 110 161 111
f 506 507 446
f 509 510 446
f 508 509 446
f 510 511 446
f 109 161 110
f 448 468 463
f 448 453 444
f 448 459 453
f 448 463 459
f 448 434 428
f 448 440 434
f 448 444 440
f 448 428 424
f 448 424 420
f 448 420 415
f 448 415 409
f 448 409 402
f 448 479 475
f 448 497 479
f 448 493 497
f 448 488 493
f 448 518 526
f 448 526 483
f 448 483 488
f 448 475 468
f 500 522 529
f 516 448 515
f 448 517 518
f 163 159 148
f 163 208 200
f 163 127 123
f 163 119 115
f 163 123 119
f 163 135 127
f 163 226 214
f 163 234 226
f 163 214 208
f 163 166 159
f 163 186 166
f 163 148 141
f 163 200 186
f 163 141 135
f 114 113 163
f 517 448 516
f 514 448 513
f 515 448 514
f 513 448 512
f 115 114 163
f 31 30 114
f 114 80 57
f 109 110 101
f 103 21 34
f 20 103 34
f 110 111 101
f 116 78 115
f 48 31 114
f 48 114 57
f 489 484 490
f 486 485 481
f 590 580 581
f 552 546 548
f 548 546 536
f 548 536 538
f 534 530 542
f 573 572 559
f 573 559 560
f 558 559 572
f 538 536 473
f 538 473 465
f 350 353 358
f 471 530 534
f 471 455 449
f 436 430 449
f 436 449 455
f 374 397 395
f 374 395 372
f 397 430 436
f 397 436 395
f 358 353 352
f 358 352 361
f 358 361 360
f 360 361 364
f 360 364 378
f 378 364 366
f 378 366 380
f 380 366 368
f 380 368 382
f 382 368 370
f 382 370 384
f 384 370 372
f 356 376 348
f 296 294 280
f 282 300 298
f 284 302 300
f 284 300 282
f 286 302 284
f 272 290 288
f 274 290 272
f 266 276 274
f 268 276 266
f 356 348 386
f 356 386 404
f 406 407 350
f 350 346 335
f 218 219 210
f 210 202 204
f 204 202 190
f 204 190 194
f 194 190 188
f 194 188 192
f 192 188 170
f 170 173 172
f 180 176 178
f 180 178 181
f 216 228 236
f 236 228 238
f 196 222 230
f 230 222 239
f 244 239 242
f 246 253 248
f 248 253 255
f 255 260 262
f 268 264 269
f 278 304 292
f 278 292 269
f 292 304 307
f 292 307 306
f 306 307 313
f 306 313 315
f 315 313 317
f 317 321 319
f 319 321 328
f 319 328 326
f 326 328 337
f 326 337 330
f 330 337 340
f 330 340 339
f 386 348 339
f 386 339 340
f 153 154 168
f 137 154 153
f 106 104 137
f 75 104 106
f 63 61 75
f 50 51 61
f 50 61 63
f 37 38 44
f 26 38 37
f 43 51 50
f 98 94 96
f 94 92 73
f 73 92 90
f 73 90 71
f 71 90 88
f 71 88 69
f 69 88 83
f 69 83 65
f 65 83 84
f 65 84 66
f 66 84 81
f 54 59 96
f 54 96 94
f 41 59 54
f 22 24 35
f 2 5 24
f 2 24 22
f 3 6 5
f 3 5 2
f 590 581 582
f 553 549 547
f 549 539 537
f 549 537 547
f 535 543 531
f 573 560 561
f 573 561 574
f 562 574 561
f 539 470 476
f 539 476 537
f 351 359 354
f 472 535 531
f 472 450 456
f 437 456 450
f 437 450 431
f 375 373 396
f 375 396 398
f 398 396 437
f 398 437 431
f 359 355 354
f 359 363 362
f 359 362 355
f 363 379 365
f 363 365 362
f 379 381 367
f 379 367 365
f 381 383 369
f 381 369 367
f 383 385 371
f 383 371 369
f 385 373 371
f 357 349 377
f 297 281 295
f 283 299 301
f 285 283 301
f 285 301 303
f 287 285 303
f 273 289 291
f 275 273 291
f 267 275 277
f 271 267 277
f 357 405 387
f 357 387 349
f 411 351 410
f 351 336 347
f 221 211 220
f 211 205 203
f 205 195 191
f 205 191 203
f 195 193 189
f 195 189 191
f 193 171 189
f 171 175 174
f 183 179 177
f 183 182 179
f 217 237 229
f 237 241 229
f 197 231 223
f 231 240 223
f 245 243 240
f 247 249 254
f 249 256 254
f 256 263 261
f 271 270 265
f 279 270 293
f 279 293 305
f 293 309 308
f 293 308 305
f 309 316 314
f 309 314 308
f 316 318 314
f 318 320 322
f 320 327 329
f 320 329 322
f 327 331 338
f 327 338 329
f 331 342 341
f 331 341 338
f 387 341 342
f 387 342 349
f 156 169 155
f 138 156 155
f 107 138 105
f 76 107 105
f 64 76 62
f 53 64 62
f 53 62 52
f 40 45 39
f 27 40 39
f 46 53 52
f 99 97 95
f 95 74 93
f 74 72 91
f 74 91 93
f 72 70 89
f 72 89 91
f 70 68 86
f 70 86 89
f 68 67 85
f 68 85 86
f 67 82 85
f 55 95 97
f 55 97 60
f 42 55 60
f 23 36 25
f 4 23 25
f 4 25 7
f 3 4 7
f 3 7 6
f 511 576 577
f 511 577 523
f 510 575 576
f 510 576 511
f 509 564 575
f 509 575 510
f 508 563 564
f 508 564 509
f 507 555 563
f 507 563 508
f 506 554 555
f 506 555 507
f 505 550 554
f 505 554 506
f 504 544 550
f 504 550 505
f 540 544 504
f 540 504 503
f 532 540 503
f 532 503 502
f 528 532 502
f 528 502 501
f 323 324 311
f 323 311 310
f 432 433 427
f 432 427 426
f 413 414 408
f 413 408 406
f 486 487 485
f 461 462 458
f 461 458 457
f 412 414 413
f 499 501 502
f 499 502 524
f 457 458 452
f 457 452 451
f 418 419 414
f 418 414 412
f 485 487 492
f 485 492 491
f 451 452 443
f 451 443 442
f 422 423 419
f 422 419 418
f 491 492 496
f 491 496 495
f 466 467 462
f 466 462 461
f 406 408 407
f 426 427 423
f 426 423 422
f 495 496 478
f 495 478 477
f 473 474 467
f 473 467 466
f 442 443 439
f 442 439 438
f 477 478 474
f 477 474 473
f 481 482 487
f 481 487 486
f 438 439 433
f 438 433 432
f 407 408 400
f 407 400 399
f 524 525 482
f 524 482 481
f 165 158 157
f 165 157 164
f 161 162 112
f 161 112 111
f 332 333 324
f 332 324 323
f 310 311 258
f 310 258 257
f 400 401 391
f 400 391 390
f 344 343 390
f 344 390 391
f 343 344 333
f 343 333 332
f 257 258 251
f 257 251 250
f 400 390 389
f 400 389 399
f 207 199 198
f 207 198 206
f 213 207 206
f 213 206 212
f 157 158 147
f 157 147 146
f 224 225 213
f 224 213 212
f 389 390 343
f 389 343 388
f 140 134 133
f 140 133 139
f 133 134 126
f 133 126 125
f 198 199 185
f 198 185 184
f 122 118 117
f 122 117 121
f 146 147 140
f 146 140 139
f 117 118 109
f 117 109 108
f 184 185 165
f 184 165 164
f 126 122 121
f 126 121 125
f 232 233 225
f 232 225 224
f 111 13 12
f 111 12 101
f 400 446 447
f 400 447 401
f 447 446 511
f 447 511 523
f 250 251 233
f 250 233 232
f 251 162 161
f 251 161 233
f 512 523 577
f 512 577 578
f 513 512 578
f 513 578 579
f 514 513 579
f 514 579 565
f 515 514 565
f 515 565 566
f 516 515 566
f 516 566 556
f 517 516 556
f 517 556 557
f 518 517 557
f 518 557 551
f 519 518 551
f 519 551 545
f 541 520 519
f 541 519 545
f 533 521 520
f 533 520 541
f 529 522 521
f 529 521 533
f 325 312 311
f 325 311 324
f 435 429 428
f 435 428 434
f 416 411 409
f 416 409 415
f 489 490 488
f 464 460 459
f 464 459 463
f 417 416 415
f 520 526 518
f 520 518 519
f 460 454 453
f 460 453 459
f 421 417 415
f 421 415 420
f 490 494 493
f 490 493 488
f 454 445 444
f 454 444 453
f 425 421 420
f 425 420 424
f 494 498 497
f 494 497 493
f 469 464 463
f 469 463 468
f 411 410 409
f 429 425 424
f 429 424 428
f 498 480 479
f 498 479 497
f 476 469 468
f 476 468 475
f 445 441 440
f 445 440 444
f 480 476 475
f 480 475 479
f 484 489 488
f 484 488 483
f 441 435 434
f 441 434 440
f 410 403 402
f 410 402 409
f 527 484 483
f 527 483 526
f 166 167 160
f 166 160 159
f 163 113 112
f 163 112 162
f 334 325 324
f 334 324 333
f 312 259 258
f 312 258 311
f 402 392 391
f 402 391 401
f 344 391 392
f 344 392 345
f 345 334 333
f 345 333 344
f 259 252 251
f 259 251 258
f 402 403 393
f 402 393 392
f 111 112 1
f 111 1 13
f 208 209 201
f 208 201 200
f 214 215 209
f 214 209 208
f 160 149 148
f 160 148 159
f 227 215 214
f 227 214 226
f 393 394 345
f 393 345 392
f 141 142 136
f 141 136 135
f 136 128 127
f 136 127 135
f 201 187 186
f 201 186 200
f 123 124 120
f 123 120 119
f 149 142 141
f 149 141 148
f 120 116 115
f 120 115 119
f 187 167 166
f 187 166 186
f 127 128 124
f 127 124 123
f 235 227 226
f 235 226 234
f 402 401 447
f 402 447 448
f 447 523 512
f 447 512 448
f 252 235 234
f 252 234 251
f 251 234 163
f 251 163 162
f 108 109 101
f 108 101 100
f 100 101 103
f 100 103 102
f 17 16 19
f 17 19 20
f 101 12 21
f 101 21 103
f 15 32 33
f 15 33 18
f 77 100 102
f 77 102 87
f 29 17 20
f 29 20 34
f 16 15 18
f 16 18 19
f 28 47 49
f 28 49 33
f 32 28 33
f 56 79 87
f 56 87 58
f 79 77 87
f 47 56 58
f 47 58 49
f 12 29 34
f 12 34 21
f 58 103 33
f 58 33 49
f 33 103 18
f 18 103 20
f 18 20 19
f 113 14 1
f 113 1 112
f 30 14 113
f 30 113 114
f 114 115 78
f 114 78 80
f 592 576 575
f 592 575 591
f 591 575 564
f 591 564 588
f 593 594 579
f 593 579 578
f 594 589 565
f 594 565 579
f 585 584 568
f 585 568 569
f 583 567 568
f 583 568 584
f 585 569 570
f 585 570 586
f 587 586 570
f 587 570 571
f 473 466 465
f 476 470 469
f 522 500 527
f 522 527 521
f 502 503 525
f 502 525 524
f 521 527 526
f 521 526 520
f 525 503 504
f 525 504 505
f 130 132 131
f 131 132 145
f 131 145 152
f 152 145 144
f 152 144 151
f 151 144 143
f 151 143 150
f 150 143 129
f 260 264 262
f 264 278 269
f 261 263 265
f 265 270 279
f 87 103 58
f 103 87 102
f 829 865 887
f 830 890 867
f 937 938 952
f 951 964 965
f 951 950 964
f 911 917 918
f 911 910 917
f 615 617 621
f 615 621 619
f 646 645 653
f 646 653 654
f 658 657 649
f 658 649 650
f 657 658 654
f 657 654 653
f 646 650 649
f 646 649 645
f 645 649 657
f 645 657 653
f 616 620 622
f 616 622 618
f 647 655 656
f 647 656 648
f 659 651 652
f 659 652 660
f 660 656 655
f 660 655 659
f 647 648 652
f 647 652 651
f 648 656 660
f 648 660 652
f 604 608 607
f 604 607 603
f 596 604 603
f 596 603 595
f 976 980 977
f 987 986 994
f 987 994 995
f 1011 1016 1007
f 1011 1007 1006
f 1010 1011 1001
f 1007 990 992
f 1007 992 1006
f 1014 1016 1011
f 1014 1011 1010
f 984 987 992
f 984 992 990
f 994 1000 1010
f 994 1010 995
f 1004 1014 1010
f 1004 1010 1000
f 986 987 984
f 986 984 982
f 995 1010 1001
f 1011 1006 996
f 1006 992 996
f 608 612 611
f 608 611 607
f 596 595 599
f 596 599 600
f 972 970 973
f 883 880 879
f 835 843 833
f 879 859 883
f 883 835 833
f 883 833 880
f 841 857 877
f 841 877 831
f 859 843 835
f 859 835 883
f 877 879 880
f 857 859 879
f 857 879 877
f 605 606 610
f 605 610 609
f 597 598 606
f 597 606 605
f 979 978 981
f 988 998 999
f 988 999 989
f 1012 1009 1008
f 1012 1008 1017
f 1013 1002 1012
f 1008 1009 993
f 1008 993 991
f 1015 1013 1012
f 1015 1012 1017
f 985 991 993
f 985 993 988
f 999 998 1013
f 999 1013 1003
f 1005 1003 1013
f 1005 1013 1015
f 989 983 985
f 989 985 988
f 998 1002 1013
f 1012 997 1009
f 1009 997 993
f 609 610 614
f 609 614 613
f 597 601 602
f 597 602 598
f 975 974 971
f 884 882 881
f 836 834 844
f 882 884 860
f 884 881 834
f 884 834 836
f 842 832 878
f 842 878 858
f 860 884 836
f 860 836 844
f 878 881 882
f 858 878 882
f 858 882 860
f 826 734 730
f 826 730 823
f 734 671 668
f 734 668 730
f 671 665 662
f 671 662 668
f 643 640 662
f 643 662 665
f 632 627 629
f 632 629 636
f 627 623 625
f 627 625 629
f 640 643 632
f 640 632 636
f 850 826 823
f 850 823 839
f 825 823 729
f 825 729 733
f 733 729 667
f 733 667 671
f 671 667 661
f 671 661 665
f 643 665 661
f 643 661 639
f 631 635 629
f 631 629 627
f 627 629 625
f 627 625 623
f 639 635 631
f 639 631 643
f 849 839 823
f 849 823 825
f 839 849 850
f 636 635 639
f 636 639 640
f 734 733 671
f 640 639 661
f 640 661 662
f 643 631 632
f 629 635 636
f 668 667 729
f 668 729 730
f 826 825 733
f 826 733 734
f 662 661 667
f 662 667 668
f 730 729 823
f 632 631 627
f 850 849 825
f 850 825 826
f 827 824 731
f 827 731 735
f 735 731 669
f 735 669 672
f 672 669 663
f 672 663 666
f 644 666 663
f 644 663 641
f 633 637 630
f 633 630 628
f 628 630 626
f 628 626 624
f 641 637 633
f 641 633 644
f 851 840 824
f 851 824 827
f 828 736 732
f 828 732 824
f 736 672 670
f 736 670 732
f 672 666 664
f 672 664 670
f 644 642 664
f 644 664 666
f 634 628 630
f 634 630 638
f 628 624 626
f 628 626 630
f 642 644 634
f 642 634 638
f 852 828 824
f 852 824 840
f 840 851 852
f 637 641 642
f 637 642 638
f 735 672 736
f 641 663 664
f 641 664 642
f 644 633 634
f 630 637 638
f 669 731 732
f 669 732 670
f 827 735 736
f 827 736 828
f 663 669 670
f 663 670 664
f 731 824 732
f 633 628 634
f 851 827 828
f 851 828 852
f 954 955 969
f 954 969 967
f 954 939 912
f 954 912 935
f 887 939 957
f 887 957 908
f 865 912 939
f 865 939 887
f 967 957 939
f 967 939 954
f 935 936 955
f 935 955 954
f 845 829 887
f 845 887 908
f 956 968 969
f 956 969 955
f 956 938 914
f 956 914 943
f 890 916 960
f 890 960 943
f 867 890 943
f 867 943 914
f 968 956 943
f 968 943 960
f 938 956 955
f 938 955 936
f 846 916 890
f 846 890 830
f 958 961 966
f 958 966 959
f 959 966 962
f 959 962 963
f 959 963 949
f 949 963 948
f 947 961 958
f 929 944 958
f 929 958 940
f 944 947 958
f 932 948 944
f 932 944 929
f 948 947 944
f 942 945 948
f 942 948 932
f 948 945 950
f 948 950 937
f 941 959 945
f 941 945 942
f 948 937 950
f 955 959 941
f 940 958 959
f 940 959 955
f 959 950 946
f 959 949 950
f 949 948 950
f 945 959 946
f 945 946 950
f 952 951 953
f 950 952 964
f 937 950 951
f 937 951 938
f 965 953 951
f 951 953 938
f 953 951 937
f 953 937 938
f 950 937 951
f 952 950 951
f 950 964 965
f 950 965 951
f 964 952 953
f 964 953 965
f 938 937 951
f 937 952 964
f 937 964 950
f 952 938 951
f 952 951 965
f 950 951 937
f 952 965 964
f 915 925 867
f 938 953 951
f 925 873 867
f 904 903 867
f 904 867 873
f 925 904 873
f 875 871 872
f 875 872 876
f 953 965 951
f 904 924 906
f 904 906 903
f 924 903 906
f 871 875 876
f 871 876 872
f 903 915 867
f 906 903 870
f 906 870 874
f 965 953 924
f 938 951 915
f 938 915 903
f 953 938 903
f 953 903 924
f 951 965 924
f 951 924 915
f 924 904 925
f 915 924 925
f 903 906 875
f 903 875 871
f 906 874 875
f 874 870 871
f 874 871 875
f 870 903 871
f 902 923 901
f 856 848 837
f 837 848 838
f 847 856 837
f 847 837 838
f 856 838 848
f 901 923 902
f 855 872 856
f 855 856 847
f 838 856 847
f 855 872 871
f 847 856 872
f 847 872 855
f 871 872 855
f 871 872 876
f 871 876 875
f 871 907 904
f 871 876 907
f 907 876 905
f 907 905 904
f 876 872 905
f 871 872 876
f 872 871 875
f 872 875 876
f 872 871 905
f 871 904 905
f 888 891 909
f 888 909 892
f 892 894 865
f 865 894 868
f 865 868 864
f 853 864 862
f 853 862 861
f 864 891 862
f 854 864 853
f 863 865 864
f 863 864 854
f 863 892 865
f 865 892 893
f 886 889 892
f 886 892 863
f 865 893 895
f 885 888 889
f 885 889 886
f 888 892 889
f 861 888 885
f 861 862 888
f 862 891 888
f 889 892 910
f 892 865 895
f 892 895 910
f 892 889 910
f 892 910 893
f 918 933 911
f 896 918 911
f 895 910 917
f 933 918 911
f 910 895 917
f 918 896 911
f 910 895 896
f 910 896 911
f 893 911 896
f 893 910 911
f 893 896 895
f 895 917 918
f 917 933 918
f 917 895 918
f 917 918 933
f 895 896 917
f 895 917 910
f 896 911 918
f 910 911 896
f 910 896 895
f 896 918 917
f 930 936 931
f 918 933 911
f 896 918 911
f 930 934 948
f 930 948 936
f 934 919 936
f 919 913 936
f 927 920 921
f 927 921 928
f 921 927 928
f 919 934 926
f 934 919 926
f 920 927 921
f 913 930 931
f 913 931 936
f 934 936 948
f 926 919 898
f 933 918 934
f 896 911 930
f 896 930 913
f 918 896 913
f 918 913 919
f 918 919 934
f 911 933 934
f 911 934 930
f 919 926 927
f 919 927 920
f 926 898 920
f 926 920 927
f 898 919 920
f 921 900 922
f 869 866 897
f 900 921 922
f 866 869 897
f 899 920 921
f 899 921 900
f 897 920 899
f 897 899 920
f 899 900 928
f 899 928 927
f 927 928 921
f 927 921 920
f 920 921 928
f 920 928 927
f 900 921 928
f 921 920 927
f 921 927 928
f 920 899 927
f 678 681 683
f 678 683 677
f 689 693 813
f 689 813 789
f 809 810 766
f 809 766 765
f 817 821 810
f 817 810 809
f 693 694 814
f 693 814 813
f 689 684 694
f 689 694 693
f 765 766 674
f 765 674 673
f 817 818 821
f 798 804 789
f 798 789 785
f 770 738 697
f 770 697 737
f 683 681 684
f 683 684 689
f 683 689 789
f 683 789 749
f 677 683 749
f 677 749 771
f 673 677 771
f 673 771 765
f 817 809 785
f 789 813 817
f 789 817 785
f 674 678 677
f 674 677 673
f 749 789 804
f 749 804 748
f 771 749 748
f 803 801 787
f 803 787 777
f 798 797 801
f 814 818 817
f 814 817 813
f 803 777 780
f 803 780 807
f 771 748 705
f 771 705 739
f 761 783 780
f 761 780 779
f 743 775 787
f 743 787 769
f 747 775 743
f 743 769 737
f 779 757 723
f 779 723 761
f 761 723 724
f 761 724 783
f 793 762 758
f 793 758 794
f 794 758 754
f 794 754 791
f 688 724 723
f 688 723 687
f 687 723 757
f 687 757 715
f 711 754 758
f 711 758 718
f 718 758 762
f 718 762 725
f 737 697 699
f 737 699 743
f 743 699 703
f 743 703 747
f 777 775 747
f 777 747 753
f 753 747 703
f 753 703 709
f 762 793 783
f 762 783 724
f 757 753 709
f 757 709 715
f 762 724 688
f 762 688 725
f 777 753 757
f 777 757 779
f 748 804 791
f 748 791 754
f 748 754 711
f 748 711 705
f 739 738 770
f 739 770 771
f 699 700 744
f 777 787 775
f 787 801 797
f 787 797 769
f 807 780 783
f 807 783 793
f 780 777 779
f 803 807 791
f 803 791 804
f 794 791 807
f 794 807 793
f 798 801 803
f 798 803 804
f 769 797 770
f 769 770 737
f 765 771 785
f 765 785 809
f 716 687 715
f 717 718 725
f 700 699 697
f 699 704 703
f 704 710 709
f 704 709 703
f 710 716 715
f 710 715 709
f 688 717 725
f 738 700 697
f 739 705 748
f 688 687 723
f 688 723 724
f 717 688 724
f 717 724 725
f 687 716 723
f 705 711 754
f 705 754 748
f 711 718 754
f 700 738 744
f 718 717 725
f 679 680 686
f 679 686 682
f 690 790 816
f 690 816 696
f 812 768 767
f 812 767 811
f 820 812 811
f 820 811 822
f 696 816 815
f 696 815 695
f 690 696 695
f 690 695 685
f 768 676 675
f 768 675 767
f 820 822 819
f 799 786 790
f 799 790 805
f 773 742 698
f 773 698 741
f 686 690 685
f 686 685 682
f 686 750 790
f 686 790 690
f 680 772 750
f 680 750 686
f 676 768 772
f 676 772 680
f 820 786 812
f 790 786 820
f 790 820 816
f 675 676 680
f 675 680 679
f 750 751 805
f 750 805 790
f 772 751 750
f 806 778 788
f 806 788 802
f 799 802 800
f 815 816 820
f 815 820 819
f 806 808 781
f 806 781 778
f 772 740 706
f 772 706 751
f 764 782 781
f 764 781 784
f 746 774 788
f 746 788 776
f 752 746 776
f 746 742 774
f 782 764 728
f 782 728 760
f 764 784 727
f 764 727 728
f 796 795 759
f 796 759 763
f 795 792 755
f 795 755 759
f 691 692 728
f 691 728 727
f 692 722 760
f 692 760 728
f 712 719 759
f 712 759 755
f 719 726 763
f 719 763 759
f 742 746 702
f 742 702 698
f 746 752 708
f 746 708 702
f 778 756 752
f 778 752 776
f 756 714 708
f 756 708 752
f 763 727 784
f 763 784 796
f 760 722 714
f 760 714 756
f 763 726 691
f 763 691 727
f 778 782 760
f 778 760 756
f 751 755 792
f 751 792 805
f 751 706 712
f 751 712 755
f 740 772 773
f 740 773 741
f 702 745 701
f 778 776 788
f 788 774 800
f 788 800 802
f 808 796 784
f 808 784 781
f 781 782 778
f 806 805 792
f 806 792 808
f 795 796 808
f 795 808 792
f 799 805 806
f 799 806 802
f 774 742 773
f 774 773 800
f 768 812 786
f 768 786 772
f 721 722 692
f 720 726 719
f 701 698 702
f 702 708 707
f 707 708 714
f 707 714 713
f 713 714 722
f 713 722 721
f 691 726 720
f 741 698 701
f 740 751 706
f 691 727 728
f 691 728 692
f 720 726 727
f 720 727 691
f 692 728 721
f 706 751 755
f 706 755 712
f 712 755 719
f 701 745 741
f 719 726 720
f 947 948 963
f 947 963 961
f 961 963 962
f 961 962 966
f 894 864 868
f 864 894 891
f 891 894 892
f 891 892 909
f 797 771 770
f 771 797 785
f 785 797 798
f 772 800 773
f 800 772 786
f 800 786 799
f 1358 1260 1261
f 1358 1354 1274
f 1358 1274 1260
f 1142 1234 1232
f 1144 1145 1235
f 1144 1235 1234
f 1144 1234 1142
f 1072 1074 1112
f 1074 1042 1044
f 1074 1044 1075
f 1336 1337 1300
f 1336 1300 1302
f 1287 1286 1294
f 1287 1294 1296
f 1360 1337 1336
f 1296 1294 1302
f 1296 1302 1300
f 1277 1276 1266
f 1277 1266 1267
f 1267 1266 1270
f 1267 1270 1271
f 1197 1196 1212
f 1197 1212 1213
f 1218 1219 1223
f 1218 1223 1222
f 1222 1223 1203
f 1222 1203 1202
f 1202 1203 1207
f 1202 1207 1206
f 1271 1270 1256
f 1271 1256 1257
f 1257 1256 1244
f 1257 1244 1245
f 1245 1244 1280
f 1245 1280 1281
f 1206 1207 1213
f 1206 1213 1212
f 1281 1280 1286
f 1281 1286 1287
f 1187 1186 1190
f 1187 1190 1191
f 1154 1142 1150
f 1154 1150 1148
f 1148 1150 1170
f 1170 1182 1183
f 1191 1190 1196
f 1191 1196 1197
f 1121 1120 1132
f 1121 1132 1133
f 1051 1050 1058
f 1051 1058 1059
f 1059 1058 1066
f 1059 1066 1067
f 1067 1066 1090
f 1067 1090 1091
f 1114 1129 1128
f 1128 1129 1139
f 1128 1139 1138
f 1138 1139 1168
f 1138 1168 1165
f 1165 1168 1175
f 1165 1175 1174
f 1157 1133 1132
f 1157 1132 1156
f 1175 1157 1156
f 1175 1156 1174
f 1091 1090 1120
f 1091 1120 1121
f 1187 1183 1182
f 1187 1182 1186
f 1298 1302 1294
f 1250 1280 1244
f 1128 1116 1114
f 1280 1290 1286
f 1145 1142 1154
f 1290 1298 1294
f 1290 1294 1286
f 1302 1340 1336
f 1340 1362 1360
f 1340 1360 1336
f 1164 1138 1165
f 1162 1182 1170
f 1150 1162 1170
f 1180 1164 1165
f 1180 1165 1174
f 1186 1194 1190
f 1240 1250 1244
f 1240 1244 1256
f 1252 1240 1256
f 1252 1256 1270
f 1262 1261 1276
f 1262 1276 1277
f 1200 1216 1212
f 1200 1212 1196
f 1266 1252 1270
f 1116 1117 1114
f 1160 1180 1174
f 1160 1174 1156
f 1194 1200 1196
f 1194 1196 1190
f 1216 1210 1206
f 1216 1206 1212
f 1136 1160 1156
f 1136 1156 1132
f 1210 1226 1202
f 1210 1202 1206
f 1094 1124 1120
f 1094 1120 1090
f 1226 1222 1202
f 1067 1094 1090
f 1067 1090 1066
f 1261 1266 1276
f 1124 1136 1132
f 1124 1132 1120
f 1054 1067 1066
f 1054 1066 1058
f 1222 1235 1218
f 1044 1054 1058
f 1044 1058 1050
f 1235 1219 1218
f 1045 1075 1044
f 1112 1074 1075
f 1112 1075 1116
f 1034 1042 1074
f 1034 1074 1072
f 1392 1394 1386
f 1392 1386 1384
f 1333 1320 1317
f 1333 1317 1322
f 1310 1350 1342
f 1310 1342 1304
f 1334 1333 1322
f 1334 1322 1331
f 1372 1382 1374
f 1372 1374 1366
f 1350 1372 1366
f 1350 1366 1342
f 1330 1328 1316
f 1330 1316 1324
f 1314 1308 1342
f 1314 1342 1351
f 1347 1346 1328
f 1347 1328 1330
f 1372 1367 1374
f 1372 1374 1379
f 1351 1342 1367
f 1351 1367 1372
f 1404 1390 1387
f 1404 1387 1402
f 1324 1316 1308
f 1324 1308 1314
f 1392 1382 1379
f 1392 1379 1390
f 1372 1350 1351
f 1382 1372 1379
f 1350 1310 1314
f 1350 1314 1351
f 1333 1334 1347
f 1333 1347 1330
f 1320 1333 1330
f 1320 1330 1324
f 1310 1320 1324
f 1310 1324 1314
f 1394 1392 1390
f 1394 1390 1395
f 1379 1374 1387
f 1379 1387 1390
f 1320 1310 1304
f 1320 1304 1317
f 1413 1419 1431
f 1413 1431 1422
f 1436 1431 1419
f 1436 1419 1427
f 1395 1387 1386
f 1395 1386 1394
f 1436 1426 1431
f 1422 1418 1412
f 1422 1412 1410
f 1404 1406 1395
f 1404 1395 1390
f 1436 1433 1424
f 1436 1424 1426
f 1418 1416 1408
f 1418 1408 1412
f 1399 1406 1412
f 1399 1412 1408
f 1089 1086 1087
f 1078 1062 1064
f 1102 1100 1084
f 1102 1084 1086
f 1030 1032 1028
f 1030 1028 1024
f 1086 1084 1087
f 1064 1062 1082
f 1064 1082 1078
f 1078 1082 1107
f 1078 1107 1104
f 1104 1107 1100
f 1104 1100 1102
f 1040 1037 1062
f 1040 1062 1064
f 1024 1028 1021
f 1024 1021 1025
f 1110 1078 1104
f 1102 1110 1104
f 1037 1040 1032
f 1037 1032 1030
f 1062 1040 1064
f 1036 1030 1032
f 1036 1032 1040
f 1087 1098 1086
f 1087 1086 1089
f 1098 1100 1102
f 1098 1102 1086
f 1100 1106 1110
f 1100 1110 1102
f 1106 1080 1078
f 1106 1078 1110
f 1080 1062 1078
f 1062 1036 1040
f 1030 1024 1028
f 1030 1028 1032
f 1024 1018 1021
f 1024 1021 1028
f 1025 1021 1022
f 1025 1022 1019
f 1046 1044 1050
f 1046 1050 1051
f 1117 1116 1128
f 1117 1128 1129
f 1138 1139 1129
f 1138 1129 1128
f 1164 1165 1139
f 1164 1139 1138
f 1180 1178 1165
f 1180 1165 1164
f 1160 1157 1178
f 1160 1178 1180
f 1136 1133 1157
f 1136 1157 1160
f 1124 1125 1133
f 1124 1133 1136
f 1094 1095 1125
f 1094 1125 1124
f 1067 1068 1095
f 1067 1095 1094
f 1054 1055 1068
f 1054 1068 1067
f 1044 1046 1055
f 1044 1055 1054
f 1142 1145 1151
f 1142 1151 1150
f 1150 1151 1171
f 1150 1171 1162
f 1162 1171 1183
f 1162 1183 1182
f 1182 1183 1187
f 1182 1187 1186
f 1186 1187 1191
f 1186 1191 1194
f 1194 1191 1200
f 1216 1230 1210
f 1210 1230 1227
f 1210 1227 1226
f 1226 1227 1223
f 1226 1223 1222
f 1223 1236 1235
f 1223 1235 1222
f 1261 1262 1267
f 1261 1267 1266
f 1266 1267 1253
f 1266 1253 1252
f 1252 1253 1241
f 1252 1241 1240
f 1240 1241 1246
f 1240 1246 1250
f 1250 1246 1282
f 1250 1282 1280
f 1280 1282 1291
f 1280 1291 1290
f 1290 1291 1296
f 1290 1296 1298
f 1298 1296 1303
f 1298 1303 1302
f 1302 1303 1341
f 1302 1341 1340
f 1341 1363 1362
f 1341 1362 1340
f 1354 1358 1355
f 1018 1019 1022
f 1018 1022 1021
f 1382 1392 1384
f 1382 1384 1374
f 1387 1395 1406
f 1387 1406 1399
f 1410 1412 1406
f 1410 1406 1404
f 1410 1404 1402
f 1410 1402 1408
f 1426 1424 1416
f 1426 1416 1418
f 1431 1426 1418
f 1431 1418 1422
f 1408 1413 1422
f 1408 1422 1410
f 1437 1434 1433
f 1437 1433 1436
f 1437 1436 1427
f 1437 1427 1428
f 1359 1264 1265
f 1359 1265 1275
f 1359 1275 1357
f 1143 1233 1239
f 1147 1238 1146
f 1147 1143 1239
f 1147 1239 1238
f 1073 1113 1077
f 1077 1076 1049
f 1077 1049 1043
f 1339 1307 1301
f 1339 1301 1338
f 1288 1297 1295
f 1288 1295 1289
f 1361 1339 1338
f 1297 1301 1307
f 1297 1307 1295
f 1278 1268 1269
f 1278 1269 1279
f 1268 1272 1273
f 1268 1273 1269
f 1198 1214 1215
f 1198 1215 1199
f 1221 1225 1224
f 1221 1224 1220
f 1225 1205 1204
f 1225 1204 1224
f 1205 1209 1208
f 1205 1208 1204
f 1272 1258 1259
f 1272 1259 1273
f 1258 1248 1249
f 1258 1249 1259
f 1248 1284 1285
f 1248 1285 1249
f 1209 1215 1214
f 1209 1214 1208
f 1284 1288 1289
f 1284 1289 1285
f 1188 1192 1193
f 1188 1193 1189
f 1155 1149 1153
f 1155 1153 1143
f 1149 1173 1153
f 1173 1184 1185
f 1192 1198 1199
f 1192 1199 1193
f 1122 1134 1135
f 1122 1135 1123
f 1052 1060 1061
f 1052 1061 1053
f 1060 1070 1071
f 1060 1071 1061
f 1070 1092 1093
f 1070 1093 1071
f 1115 1131 1130
f 1131 1141 1140
f 1131 1140 1130
f 1141 1166 1169
f 1141 1169 1140
f 1166 1177 1176
f 1166 1176 1169
f 1158 1159 1135
f 1158 1135 1134
f 1176 1177 1159
f 1176 1159 1158
f 1092 1122 1123
f 1092 1123 1093
f 1188 1189 1185
f 1188 1185 1184
f 1299 1295 1307
f 1251 1249 1285
f 1131 1115 1119
f 1285 1289 1293
f 1146 1155 1143
f 1293 1289 1295
f 1293 1295 1299
f 1307 1339 1345
f 1345 1339 1361
f 1345 1361 1365
f 1167 1166 1141
f 1163 1173 1185
f 1153 1173 1163
f 1181 1177 1166
f 1181 1166 1167
f 1189 1193 1195
f 1243 1259 1249
f 1243 1249 1251
f 1255 1273 1259
f 1255 1259 1243
f 1263 1278 1279
f 1263 1279 1264
f 1201 1199 1215
f 1201 1215 1217
f 1269 1273 1255
f 1119 1115 1118
f 1161 1159 1177
f 1161 1177 1181
f 1195 1193 1199
f 1195 1199 1201
f 1217 1215 1209
f 1217 1209 1211
f 1137 1135 1159
f 1137 1159 1161
f 1211 1209 1205
f 1211 1205 1229
f 1097 1093 1123
f 1097 1123 1127
f 1229 1205 1225
f 1070 1071 1093
f 1070 1093 1097
f 1264 1279 1269
f 1127 1123 1135
f 1127 1135 1137
f 1057 1061 1071
f 1057 1071 1070
f 1225 1221 1238
f 1049 1053 1061
f 1049 1061 1057
f 1238 1221 1220
f 1048 1049 1076
f 1113 1119 1076
f 1113 1076 1077
f 1035 1073 1077
f 1035 1077 1043
f 1393 1385 1389
f 1393 1389 1397
f 1335 1323 1318
f 1335 1318 1321
f 1313 1305 1343
f 1313 1343 1353
f 1334 1331 1323
f 1334 1323 1335
f 1373 1369 1375
f 1373 1375 1383
f 1353 1343 1369
f 1353 1369 1373
f 1332 1327 1319
f 1332 1319 1329
f 1315 1352 1343
f 1315 1343 1309
f 1347 1332 1329
f 1347 1329 1346
f 1373 1380 1375
f 1373 1375 1368
f 1352 1373 1368
f 1352 1368 1343
f 1405 1403 1388
f 1405 1388 1391
f 1327 1315 1309
f 1327 1309 1319
f 1393 1391 1380
f 1393 1380 1383
f 1373 1352 1353
f 1383 1380 1373
f 1353 1352 1315
f 1353 1315 1313
f 1335 1332 1347
f 1335 1347 1334
f 1321 1327 1332
f 1321 1332 1335
f 1313 1315 1327
f 1313 1327 1321
f 1397 1396 1391
f 1397 1391 1393
f 1380 1391 1388
f 1380 1388 1375
f 1321 1318 1305
f 1321 1305 1313
f 1414 1423 1432
f 1414 1432 1420
f 1438 1429 1420
f 1438 1420 1432
f 1396 1397 1389
f 1396 1389 1388
f 1438 1432 1430
f 1423 1411 1415
f 1423 1415 1421
f 1405 1391 1396
f 1405 1396 1407
f 1438 1430 1425
f 1438 1425 1435
f 1421 1415 1409
f 1421 1409 1417
f 1400 1409 1415
f 1400 1415 1407
f 1089 1087 1088
f 1079 1065 1063
f 1103 1088 1085
f 1103 1085 1101
f 1031 1027 1029
f 1031 1029 1033
f 1088 1087 1085
f 1065 1079 1083
f 1065 1083 1063
f 1079 1105 1108
f 1079 1108 1083
f 1105 1103 1101
f 1105 1101 1108
f 1041 1065 1063
f 1041 1063 1038
f 1027 1026 1023
f 1027 1023 1029
f 1111 1105 1079
f 1103 1105 1111
f 1038 1031 1033
f 1038 1033 1041
f 1063 1065 1041
f 1039 1041 1033
f 1039 1033 1031
f 1087 1089 1088
f 1087 1088 1099
f 1099 1088 1103
f 1099 1103 1101
f 1101 1103 1111
f 1101 1111 1109
f 1109 1111 1079
f 1109 1079 1081
f 1081 1079 1063
f 1063 1041 1039
f 1031 1033 1029
f 1031 1029 1027
f 1027 1029 1023
f 1027 1023 1020
f 1026 1019 1022
f 1026 1022 1023
f 1047 1052 1053
f 1047 1053 1049
f 1118 1130 1131
f 1118 1131 1119
f 1141 1131 1130
f 1141 1130 1140
f 1167 1141 1140
f 1167 1140 1166
f 1181 1167 1166
f 1181 1166 1179
f 1161 1181 1179
f 1161 1179 1158
f 1137 1161 1158
f 1137 1158 1134
f 1127 1137 1134
f 1127 1134 1126
f 1097 1127 1126
f 1097 1126 1096
f 1070 1097 1096
f 1070 1096 1069
f 1057 1070 1069
f 1057 1069 1056
f 1049 1057 1056
f 1049 1056 1047
f 1143 1153 1152
f 1143 1152 1146
f 1153 1163 1172
f 1153 1172 1152
f 1163 1185 1184
f 1163 1184 1172
f 1185 1189 1188
f 1185 1188 1184
f 1189 1195 1192
f 1189 1192 1188
f 1195 1201 1192
f 1217 1211 1231
f 1211 1229 1228
f 1211 1228 1231
f 1229 1225 1224
f 1229 1224 1228
f 1224 1225 1238
f 1224 1238 1237
f 1264 1269 1268
f 1264 1268 1263
f 1269 1255 1254
f 1269 1254 1268
f 1255 1243 1242
f 1255 1242 1254
f 1243 1251 1247
f 1243 1247 1242
f 1251 1285 1283
f 1251 1283 1247
f 1285 1293 1292
f 1285 1292 1283
f 1293 1299 1297
f 1293 1297 1292
f 1299 1307 1306
f 1299 1306 1297
f 1307 1345 1344
f 1307 1344 1306
f 1344 1345 1365
f 1344 1365 1364
f 1357 1356 1359
f 1020 1023 1022
f 1020 1022 1019
f 1383 1375 1385
f 1383 1385 1393
f 1388 1400 1407
f 1388 1407 1396
f 1411 1405 1407
f 1411 1407 1415
f 1411 1409 1403
f 1411 1403 1405
f 1430 1421 1417
f 1430 1417 1425
f 1432 1423 1421
f 1432 1421 1430
f 1409 1411 1423
f 1409 1423 1414
f 1437 1438 1435
f 1437 1435 1434
f 1437 1428 1429
f 1437 1429 1438
f 1398 1378 1376
f 1398 1376 1386
f 1376 1378 1370
f 1370 1350 1348
f 1348 1350 1310
f 1348 1310 1311
f 1311 1310 1320
f 1320 1333 1325
f 1331 1325 1333
f 1331 1333 1334
f 1401 1389 1377
f 1401 1377 1381
f 1377 1371 1381
f 1371 1349 1353
f 1349 1312 1313
f 1349 1313 1353
f 1312 1321 1313
f 1321 1326 1335
f 1331 1334 1335
f 1331 1335 1326
f 1447 1443 1449
f 1447 1451 1445
f 1447 1445 1439
f 1447 1439 1441
f 1447 1441 1443
f 1448 1452 1451
f 1448 1451 1447
f 1446 1440 1439
f 1446 1439 1445
f 1442 1444 1443
f 1442 1443 1441
f 1444 1450 1449
f 1444 1449 1443
f 1452 1446 1445
f 1452 1445 1451
f 1440 1442 1441
f 1440 1441 1439
f 1450 1448 1447
f 1450 1447 1449
f 1462 1456 1454
f 1462 1464 1458
f 1462 1460 1466
f 1462 1454 1460
f 1462 1458 1456
f 1453 1454 1456
f 1453 1456 1455
f 1455 1456 1458
f 1455 1458 1457
f 1457 1458 1464
f 1457 1464 1463
f 1463 1464 1462
f 1463 1462 1461
f 1461 1462 1466
f 1461 1466 1465
f 1459 1460 1454
f 1459 1454 1453
f 1465 1466 1460
f 1465 1460 1459
f 1471 1467 1468
f 1471 1469 1472
f 1471 1472 1475
f 1471 1475 1474
f 1471 1474 1473
f 1471 1473 1470
f 1471 1470 1467
f 1471 1468 1469
f 1480 1477 1476
f 1480 1481 1478
f 1480 1484 1481
f 1480 1483 1484
f 1480 1482 1483
f 1480 1479 1482
f 1480 1476 1479
f 1480 1478 1477
