# Low-poly camping hatchback / boat
mtllib camping_hatchback.mtl
o CampingHatchback_boat
usemtl boat
v 0.230000 1.575000 0.980000
v -0.230000 1.575000 0.980000
v 0.230000 1.775000 0.980000
v -0.230000 1.775000 0.980000
v 0.230000 1.575000 1.030000
v -0.230000 1.575000 1.030000
v 0.230000 1.775000 1.030000
v -0.230000 1.775000 1.030000
v 0.193750 1.660000 0.140000
v -0.193750 1.660000 0.140000
v 0.193750 1.690000 0.140000
v -0.193750 1.690000 0.140000
v 0.193750 1.660000 0.560000
v -0.193750 1.660000 0.560000
v 0.193750 1.690000 0.560000
v -0.193750 1.690000 0.560000
v 0.193750 1.660000 -0.630000
v -0.193750 1.660000 -0.630000
v 0.193750 1.690000 -0.630000
v -0.193750 1.690000 -0.630000
v 0.193750 1.660000 -0.210000
v -0.193750 1.660000 -0.210000
v 0.193750 1.690000 -0.210000
v -0.193750 1.690000 -0.210000
v 0.224750 1.587500 -0.799500
v -0.224750 1.587500 -0.799500
v 0.224750 1.632500 -0.799500
v -0.224750 1.632500 -0.799500
v 0.224750 1.587500 0.799500
v -0.224750 1.587500 0.799500
v 0.224750 1.632500 0.799500
v -0.224750 1.632500 0.799500
v 0.283000 1.680000 0.806273
v 0.245796 1.680000 0.792732
v -0.245796 1.680000 0.792732
v -0.283000 1.680000 0.806273
v 0.283000 1.621970 0.825128
v 0.245796 1.614010 0.814173
v -0.245796 1.614010 0.814173
v -0.283000 1.621970 0.825128
v 0.313329 1.680000 0.831722
v -0.313329 1.680000 0.831722
v 0.283000 1.738030 0.825128
v 0.245796 1.745990 0.814173
v -0.245796 1.745990 0.814173
v -0.283000 1.738030 0.825128
v 0.313329 1.636928 0.845717
v -0.313329 1.636928 0.845717
v 0.313329 1.723072 0.845717
v -0.313329 1.723072 0.845717
v 0.283000 1.586105 0.874492
v 0.245796 1.573227 0.870307
v -0.245796 1.573227 0.870307
v -0.283000 1.586105 0.874492
v 0.313329 1.610309 0.882356
v -0.313329 1.610309 0.882356
v 0.333125 1.657082 0.873456
v -0.333125 1.657082 0.873456
v 0.333125 1.680000 0.866010
v -0.333125 1.680000 0.866010
v 0.333125 1.702918 0.873456
v -0.333125 1.702918 0.873456
v 0.313329 1.749691 0.882356
v -0.313329 1.749691 0.882356
v 0.283000 1.773895 0.874492
v 0.245796 1.786773 0.870307
v -0.245796 1.786773 0.870307
v -0.283000 1.773895 0.874492
v 0.333125 1.642918 0.892951
v -0.333125 1.642918 0.892951
v 0.340000 1.680000 0.905000
v -0.340000 1.680000 0.905000
v 0.333125 1.717082 0.892951
v -0.333125 1.717082 0.892951
v 0.283000 1.586105 0.935508
v -0.283000 1.586105 0.935508
v 0.313329 1.610309 0.927644
v -0.313329 1.610309 0.927644
v 0.333125 1.650000 0.926796
v -0.333125 1.650000 0.926796
v 0.333125 1.702918 0.936544
v -0.333125 1.702918 0.936544
v 0.333125 1.717082 0.917049
v -0.333125 1.717082 0.917049
v 0.313329 1.749691 0.927644
v -0.313329 1.749691 0.927644
v 0.283000 1.773895 0.935508
v -0.283000 1.773895 0.935508
v 0.245796 1.573227 0.939693
v -0.245796 1.573227 0.939693
v 0.333125 1.680000 0.943990
v -0.333125 1.680000 0.943990
v 0.245796 1.786773 0.939693
v -0.245796 1.786773 0.939693
v 0.313329 1.636928 0.964283
v 0.283000 1.621970 0.984872
v -0.283000 1.621970 0.984872
v -0.313329 1.636928 0.964283
v 0.313329 1.680000 0.978278
v -0.313329 1.680000 0.978278
v 0.313329 1.723072 0.964283
v -0.313329 1.723072 0.964283
v 0.283000 1.738030 0.984872
v -0.283000 1.738030 0.984872
v 0.245796 1.614010 0.995827
v -0.245796 1.614010 0.995827
v 0.283000 1.680000 1.003727
v -0.283000 1.680000 1.003727
v 0.245796 1.745990 0.995827
v -0.245796 1.745990 0.995827
v 0.245796 1.680000 1.017268
v -0.245796 1.680000 1.017268
v 0.245796 1.680000 -1.017268
v -0.245796 1.680000 -1.017268
v 0.245796 1.614010 -0.995827
v -0.245796 1.614010 -0.995827
v 0.283000 1.680000 -1.003727
v -0.283000 1.680000 -1.003727
v 0.245796 1.745990 -0.995827
v -0.245796 1.745990 -0.995827
v 0.313329 1.636928 -0.964283
v 0.283000 1.621970 -0.984872
v -0.283000 1.621970 -0.984872
v -0.313329 1.636928 -0.964283
v 0.313329 1.680000 -0.978278
v -0.313329 1.680000 -0.978278
v 0.313329 1.723072 -0.964283
v -0.313329 1.723072 -0.964283
v 0.283000 1.738030 -0.984872
v -0.283000 1.738030 -0.984872
v 0.245796 1.573227 -0.939693
v -0.245796 1.573227 -0.939693
v 0.333125 1.680000 -0.943990
v -0.333125 1.680000 -0.943990
v 0.245796 1.786773 -0.939693
v -0.245796 1.786773 -0.939693
v 0.283000 1.586105 -0.935508
v -0.283000 1.586105 -0.935508
v 0.313329 1.610309 -0.927644
v -0.313329 1.610309 -0.927644
v 0.333125 1.650000 -0.926796
v -0.333125 1.650000 -0.926796
v 0.333125 1.702918 -0.936544
v -0.333125 1.702918 -0.936544
v 0.333125 1.717082 -0.917049
v -0.333125 1.717082 -0.917049
v 0.313329 1.749691 -0.927644
v -0.313329 1.749691 -0.927644
v 0.283000 1.773895 -0.935508
v -0.283000 1.773895 -0.935508
v 0.333125 1.642918 -0.892951
v -0.333125 1.642918 -0.892951
v 0.340000 1.680000 -0.905000
v -0.340000 1.680000 -0.905000
v 0.333125 1.717082 -0.892951
v -0.333125 1.717082 -0.892951
v 0.283000 1.586105 -0.874492
v 0.245796 1.573227 -0.870307
v -0.245796 1.573227 -0.870307
v -0.283000 1.586105 -0.874492
v 0.313329 1.610309 -0.882356
v -0.313329 1.610309 -0.882356
v 0.333125 1.657082 -0.873456
v -0.333125 1.657082 -0.873456
v 0.333125 1.680000 -0.866010
v -0.333125 1.680000 -0.866010
v 0.333125 1.702918 -0.873456
v -0.333125 1.702918 -0.873456
v 0.313329 1.749691 -0.882356
v -0.313329 1.749691 -0.882356
v 0.283000 1.773895 -0.874492
v 0.245796 1.786773 -0.870307
v -0.245796 1.786773 -0.870307
v -0.283000 1.773895 -0.874492
v 0.313329 1.636928 -0.845717
v -0.313329 1.636928 -0.845717
v 0.313329 1.723072 -0.845717
v -0.313329 1.723072 -0.845717
v 0.283000 1.621970 -0.825128
v 0.245796 1.614010 -0.814173
v -0.245796 1.614010 -0.814173
v -0.283000 1.621970 -0.825128
v 0.313329 1.680000 -0.831722
v -0.313329 1.680000 -0.831722
v 0.283000 1.738030 -0.825128
v 0.245796 1.745990 -0.814173
v -0.245796 1.745990 -0.814173
v -0.283000 1.738030 -0.825128
v 0.283000 1.680000 -0.806273
v 0.245796 1.680000 -0.792732
v -0.245796 1.680000 -0.792732
v -0.283000 1.680000 -0.806273
v -0.276796 1.655876 -1.017763
v -0.297317 1.640966 -1.017763
v -0.322683 1.640966 -1.017763
v -0.343204 1.655876 -1.017763
v -0.268958 1.680000 -1.017763
v -0.310000 1.680000 -1.025000
v -0.351042 1.680000 -1.017763
v -0.276796 1.704124 -1.017763
v -0.343204 1.704124 -1.017763
v -0.297317 1.719034 -1.017763
v -0.322683 1.719034 -1.017763
v -0.286164 1.606641 -0.996925
v -0.333836 1.606641 -0.996925
v -0.247597 1.634661 -0.996925
v -0.372403 1.634661 -0.996925
v -0.232865 1.680000 -0.996925
v -0.387135 1.680000 -0.996925
v -0.247597 1.725339 -0.996925
v -0.372403 1.725339 -0.996925
v -0.286164 1.753359 -0.996925
v -0.333836 1.753359 -0.996925
v -0.277886 1.581163 -0.965000
v -0.342114 1.581163 -0.965000
v -0.225924 1.618916 -0.965000
v -0.394076 1.618916 -0.965000
v -0.206077 1.680000 -0.965000
v -0.413923 1.680000 -0.965000
v -0.225924 1.741084 -0.965000
v -0.394076 1.741084 -0.965000
v -0.277886 1.778837 -0.965000
v -0.342114 1.778837 -0.965000
v -0.273481 1.567607 -0.925838
v -0.346519 1.567607 -0.925838
v -0.214393 1.610537 -0.925838
v -0.405607 1.610537 -0.925838
v -0.191823 1.680000 -0.925838
v -0.428177 1.680000 -0.925838
v -0.214393 1.749463 -0.925838
v -0.405607 1.749463 -0.925838
v -0.273481 1.792393 -0.925838
v -0.346519 1.792393 -0.925838
v -0.273481 1.567607 0.925838
v -0.346519 1.567607 0.925838
v -0.214393 1.610537 0.925838
v -0.405607 1.610537 0.925838
v -0.191823 1.680000 0.925838
v -0.428177 1.680000 0.925838
v -0.214393 1.749463 0.925838
v -0.405607 1.749463 0.925838
v -0.273481 1.792393 0.925838
v -0.346519 1.792393 0.925838
v -0.277886 1.581163 0.965000
v -0.342114 1.581163 0.965000
v -0.225924 1.618916 0.965000
v -0.394076 1.618916 0.965000
v -0.206077 1.680000 0.965000
v -0.413923 1.680000 0.965000
v -0.225924 1.741084 0.965000
v -0.394076 1.741084 0.965000
v -0.277886 1.778837 0.965000
v -0.342114 1.778837 0.965000
v -0.286164 1.606641 0.996925
v -0.333836 1.606641 0.996925
v -0.247597 1.634661 0.996925
v -0.372403 1.634661 0.996925
v -0.232865 1.680000 0.996925
v -0.387135 1.680000 0.996925
v -0.247597 1.725339 0.996925
v -0.372403 1.725339 0.996925
v -0.286164 1.753359 0.996925
v -0.333836 1.753359 0.996925
v -0.276796 1.655876 1.017763
v -0.297317 1.640966 1.017763
v -0.322683 1.640966 1.017763
v -0.343204 1.655876 1.017763
v -0.268958 1.680000 1.017763
v -0.310000 1.680000 1.025000
v -0.351042 1.680000 1.017763
v -0.276796 1.704124 1.017763
v -0.343204 1.704124 1.017763
v -0.297317 1.719034 1.017763
v -0.322683 1.719034 1.017763
v 0.343204 1.655876 -1.017763
v 0.322683 1.640966 -1.017763
v 0.297317 1.640966 -1.017763
v 0.276796 1.655876 -1.017763
v 0.351042 1.680000 -1.017763
v 0.310000 1.680000 -1.025000
v 0.268958 1.680000 -1.017763
v 0.343204 1.704124 -1.017763
v 0.276796 1.704124 -1.017763
v 0.322683 1.719034 -1.017763
v 0.297317 1.719034 -1.017763
v 0.333836 1.606641 -0.996925
v 0.286164 1.606641 -0.996925
v 0.372403 1.634661 -0.996925
v 0.247597 1.634661 -0.996925
v 0.387135 1.680000 -0.996925
v 0.232865 1.680000 -0.996925
v 0.372403 1.725339 -0.996925
v 0.247597 1.725339 -0.996925
v 0.333836 1.753359 -0.996925
v 0.286164 1.753359 -0.996925
v 0.342114 1.581163 -0.965000
v 0.277886 1.581163 -0.965000
v 0.394076 1.618916 -0.965000
v 0.225924 1.618916 -0.965000
v 0.413923 1.680000 -0.965000
v 0.206077 1.680000 -0.965000
v 0.394076 1.741084 -0.965000
v 0.225924 1.741084 -0.965000
v 0.342114 1.778837 -0.965000
v 0.277886 1.778837 -0.965000
v 0.346519 1.567607 -0.925838
v 0.273481 1.567607 -0.925838
v 0.405607 1.610537 -0.925838
v 0.214393 1.610537 -0.925838
v 0.428177 1.680000 -0.925838
v 0.191823 1.680000 -0.925838
v 0.405607 1.749463 -0.925838
v 0.214393 1.749463 -0.925838
v 0.346519 1.792393 -0.925838
v 0.273481 1.792393 -0.925838
v 0.346519 1.567607 0.925838
v 0.273481 1.567607 0.925838
v 0.405607 1.610537 0.925838
v 0.214393 1.610537 0.925838
v 0.428177 1.680000 0.925838
v 0.191823 1.680000 0.925838
v 0.405607 1.749463 0.925838
v 0.214393 1.749463 0.925838
v 0.346519 1.792393 0.925838
v 0.273481 1.792393 0.925838
v 0.342114 1.581163 0.965000
v 0.277886 1.581163 0.965000
v 0.394076 1.618916 0.965000
v 0.225924 1.618916 0.965000
v 0.413923 1.680000 0.965000
v 0.206077 1.680000 0.965000
v 0.394076 1.741084 0.965000
v 0.225924 1.741084 0.965000
v 0.342114 1.778837 0.965000
v 0.277886 1.778837 0.965000
v 0.333836 1.606641 0.996925
v 0.286164 1.606641 0.996925
v 0.372403 1.634661 0.996925
v 0.247597 1.634661 0.996925
v 0.387135 1.680000 0.996925
v 0.232865 1.680000 0.996925
v 0.372403 1.725339 0.996925
v 0.247597 1.725339 0.996925
v 0.333836 1.753359 0.996925
v 0.286164 1.753359 0.996925
v 0.343204 1.655876 1.017763
v 0.322683 1.640966 1.017763
v 0.297317 1.640966 1.017763
v 0.276796 1.655876 1.017763
v 0.351042 1.680000 1.017763
v 0.310000 1.680000 1.025000
v 0.268958 1.680000 1.017763
v 0.343204 1.704124 1.017763
v 0.276796 1.704124 1.017763
v 0.322683 1.719034 1.017763
v 0.297317 1.719034 1.017763
f 2 4 1
f 5 2 1
f 1 4 3
f 3 5 1
f 2 8 4
f 6 2 5
f 6 8 2
f 4 8 3
f 7 5 3
f 3 8 7
f 7 6 5
f 8 6 7
f 10 12 9
f 13 10 9
f 9 12 11
f 11 13 9
f 10 16 12
f 14 10 13
f 14 16 10
f 12 16 11
f 15 13 11
f 11 16 15
f 15 14 13
f 16 14 15
f 18 20 17
f 21 18 17
f 17 20 19
f 19 21 17
f 18 24 20
f 22 18 21
f 22 24 18
f 20 24 19
f 23 21 19
f 19 24 23
f 23 22 21
f 24 22 23
f 26 28 25
f 29 26 25
f 25 28 27
f 27 29 25
f 26 32 28
f 30 26 29
f 30 32 26
f 28 32 27
f 31 29 27
f 27 32 31
f 31 30 29
f 32 30 31
f 91 71 81
f 91 81 99
f 99 81 101
f 99 101 107
f 107 101 103
f 107 103 111
f 111 103 109
f 111 109 112
f 112 109 110
f 112 110 108
f 108 110 104
f 108 104 100
f 100 104 102
f 100 102 92
f 92 102 82
f 92 82 72
f 81 71 83
f 81 83 101
f 101 83 85
f 101 85 103
f 103 85 87
f 103 87 109
f 109 87 93
f 109 93 110
f 110 93 94
f 110 94 104
f 104 94 88
f 104 88 102
f 102 88 86
f 102 86 82
f 82 86 84
f 82 84 72
f 83 71 73
f 83 73 85
f 85 73 63
f 85 63 87
f 87 63 65
f 87 65 93
f 93 65 66
f 93 66 94
f 94 66 67
f 94 67 88
f 88 67 68
f 88 68 86
f 86 68 64
f 86 64 84
f 84 64 74
f 84 74 72
f 73 71 61
f 73 61 63
f 63 61 49
f 63 49 65
f 65 49 43
f 65 43 66
f 66 43 44
f 66 44 67
f 67 44 45
f 67 45 68
f 68 45 46
f 68 46 64
f 64 46 50
f 64 50 74
f 74 50 62
f 74 62 72
f 61 71 59
f 61 59 49
f 49 59 41
f 49 41 43
f 43 41 33
f 43 33 44
f 44 33 34
f 44 34 45
f 45 34 35
f 45 35 46
f 46 35 36
f 46 36 50
f 50 36 42
f 50 42 62
f 62 42 60
f 62 60 72
f 59 71 57
f 59 57 41
f 41 57 47
f 41 47 33
f 33 47 37
f 33 37 34
f 34 37 38
f 34 38 35
f 35 38 39
f 35 39 36
f 36 39 40
f 36 40 42
f 42 40 48
f 42 48 60
f 60 48 58
f 60 58 72
f 57 71 69
f 57 69 47
f 47 69 55
f 47 55 37
f 37 55 51
f 37 51 38
f 38 51 52
f 38 52 39
f 39 52 53
f 39 53 40
f 40 53 54
f 40 54 48
f 48 54 56
f 48 56 58
f 58 56 70
f 58 70 72
f 69 71 79
f 69 79 55
f 55 79 77
f 55 77 51
f 51 77 75
f 51 75 52
f 52 75 89
f 52 89 53
f 53 89 90
f 53 90 54
f 54 90 76
f 54 76 56
f 56 76 78
f 56 78 70
f 70 78 80
f 70 80 72
f 77 79 95
f 77 95 75
f 75 95 96
f 75 96 89
f 89 96 105
f 89 105 90
f 90 105 106
f 90 106 76
f 76 106 97
f 76 97 78
f 78 97 98
f 78 98 80
f 79 71 91
f 79 91 95
f 95 91 99
f 95 99 96
f 96 99 107
f 96 107 105
f 105 107 111
f 105 111 106
f 106 111 112
f 106 112 97
f 97 112 108
f 97 108 98
f 98 108 100
f 98 100 80
f 80 100 92
f 80 92 72
f 165 153 167
f 165 167 183
f 183 167 177
f 183 177 189
f 189 177 185
f 189 185 190
f 190 185 186
f 190 186 191
f 191 186 187
f 191 187 192
f 192 187 188
f 192 188 184
f 184 188 178
f 184 178 166
f 166 178 168
f 166 168 154
f 167 153 155
f 167 155 177
f 177 155 169
f 177 169 185
f 185 169 171
f 185 171 186
f 186 171 172
f 186 172 187
f 187 172 173
f 187 173 188
f 188 173 174
f 188 174 178
f 178 174 170
f 178 170 168
f 168 170 156
f 168 156 154
f 155 153 145
f 155 145 169
f 169 145 147
f 169 147 171
f 171 147 149
f 171 149 172
f 172 149 135
f 172 135 173
f 173 135 136
f 173 136 174
f 174 136 150
f 174 150 170
f 170 150 148
f 170 148 156
f 156 148 146
f 156 146 154
f 145 153 143
f 145 143 147
f 147 143 127
f 147 127 149
f 149 127 129
f 149 129 135
f 135 129 119
f 135 119 136
f 136 119 120
f 136 120 150
f 150 120 130
f 150 130 148
f 148 130 128
f 148 128 146
f 146 128 144
f 146 144 154
f 143 153 133
f 143 133 127
f 127 133 125
f 127 125 129
f 129 125 117
f 129 117 119
f 119 117 113
f 119 113 120
f 120 113 114
f 120 114 130
f 130 114 118
f 130 118 128
f 128 118 126
f 128 126 144
f 144 126 134
f 144 134 154
f 133 153 141
f 133 141 125
f 125 141 121
f 125 121 117
f 117 121 122
f 117 122 113
f 113 122 115
f 113 115 114
f 114 115 116
f 114 116 118
f 118 116 123
f 118 123 126
f 126 123 124
f 126 124 134
f 134 124 142
f 134 142 154
f 121 141 139
f 121 139 122
f 122 139 137
f 122 137 115
f 115 137 131
f 115 131 116
f 116 131 132
f 116 132 123
f 123 132 138
f 123 138 124
f 124 138 140
f 124 140 142
f 141 153 151
f 141 151 139
f 139 151 161
f 139 161 137
f 137 161 157
f 137 157 131
f 131 157 158
f 131 158 132
f 132 158 159
f 132 159 138
f 138 159 160
f 138 160 140
f 140 160 162
f 140 162 142
f 142 162 152
f 142 152 154
f 151 153 163
f 151 163 161
f 161 163 175
f 161 175 157
f 157 175 179
f 157 179 158
f 158 179 180
f 158 180 159
f 159 180 181
f 159 181 160
f 160 181 182
f 160 182 162
f 162 182 176
f 162 176 152
f 152 176 164
f 152 164 154
f 163 153 165
f 163 165 175
f 175 165 183
f 175 183 179
f 179 183 189
f 179 189 180
f 180 189 190
f 180 190 181
f 181 190 191
f 181 191 182
f 182 191 192
f 182 192 176
f 176 192 184
f 176 184 164
f 164 184 166
f 164 166 154
f 197 198 200
f 197 200 208
f 208 200 210
f 208 210 218
f 218 210 220
f 218 220 228
f 228 220 230
f 228 230 238
f 238 230 240
f 238 240 248
f 248 240 250
f 248 250 258
f 258 250 260
f 258 260 268
f 268 260 271
f 268 271 269
f 200 198 202
f 200 202 210
f 210 202 212
f 210 212 220
f 220 212 222
f 220 222 230
f 230 222 232
f 230 232 240
f 240 232 242
f 240 242 250
f 250 242 252
f 250 252 260
f 260 252 262
f 260 262 271
f 271 262 273
f 271 273 269
f 202 198 203
f 202 203 212
f 212 203 213
f 212 213 222
f 222 213 223
f 222 223 232
f 232 223 233
f 232 233 242
f 242 233 243
f 242 243 252
f 252 243 253
f 252 253 262
f 262 253 263
f 262 263 273
f 273 263 274
f 273 274 269
f 203 198 201
f 203 201 213
f 213 201 211
f 213 211 223
f 223 211 221
f 223 221 233
f 233 221 231
f 233 231 243
f 243 231 241
f 243 241 253
f 253 241 251
f 253 251 263
f 263 251 261
f 263 261 274
f 274 261 272
f 274 272 269
f 201 198 199
f 201 199 211
f 211 199 209
f 211 209 221
f 221 209 219
f 221 219 231
f 231 219 229
f 231 229 241
f 241 229 239
f 241 239 251
f 251 239 249
f 251 249 261
f 261 249 259
f 261 259 272
f 272 259 270
f 272 270 269
f 199 198 196
f 199 196 209
f 209 196 207
f 209 207 219
f 219 207 217
f 219 217 229
f 229 217 227
f 229 227 239
f 239 227 237
f 239 237 249
f 249 237 247
f 249 247 259
f 259 247 257
f 259 257 270
f 270 257 267
f 270 267 269
f 196 198 195
f 196 195 207
f 207 195 205
f 207 205 217
f 217 205 215
f 217 215 227
f 227 215 225
f 227 225 237
f 237 225 235
f 237 235 247
f 247 235 245
f 247 245 257
f 257 245 255
f 257 255 267
f 267 255 266
f 267 266 269
f 195 198 194
f 195 194 205
f 205 194 204
f 205 204 215
f 215 204 214
f 215 214 225
f 225 214 224
f 225 224 235
f 235 224 234
f 235 234 245
f 245 234 244
f 245 244 255
f 255 244 254
f 255 254 266
f 266 254 265
f 266 265 269
f 194 198 193
f 194 193 204
f 204 193 206
f 204 206 214
f 214 206 216
f 214 216 224
f 224 216 226
f 224 226 234
f 234 226 236
f 234 236 244
f 244 236 246
f 244 246 254
f 254 246 256
f 254 256 265
f 265 256 264
f 265 264 269
f 193 198 197
f 193 197 206
f 206 197 208
f 206 208 216
f 216 208 218
f 216 218 226
f 226 218 228
f 226 228 236
f 236 228 238
f 236 238 246
f 246 238 248
f 246 248 256
f 256 248 258
f 256 258 264
f 264 258 268
f 264 268 269
f 279 280 282
f 279 282 290
f 290 282 292
f 290 292 300
f 300 292 302
f 300 302 310
f 310 302 312
f 310 312 320
f 320 312 322
f 320 322 330
f 330 322 332
f 330 332 340
f 340 332 342
f 340 342 350
f 350 342 353
f 350 353 351
f 282 280 284
f 282 284 292
f 292 284 294
f 292 294 302
f 302 294 304
f 302 304 312
f 312 304 314
f 312 314 322
f 322 314 324
f 322 324 332
f 332 324 334
f 332 334 342
f 342 334 344
f 342 344 353
f 353 344 355
f 353 355 351
f 284 280 285
f 284 285 294
f 294 285 295
f 294 295 304
f 304 295 305
f 304 305 314
f 314 305 315
f 314 315 324
f 324 315 325
f 324 325 334
f 334 325 335
f 334 335 344
f 344 335 345
f 344 345 355
f 355 345 356
f 355 356 351
f 285 280 283
f 285 283 295
f 295 283 293
f 295 293 305
f 305 293 303
f 305 303 315
f 315 303 313
f 315 313 325
f 325 313 323
f 325 323 335
f 335 323 333
f 335 333 345
f 345 333 343
f 345 343 356
f 356 343 354
f 356 354 351
f 283 280 281
f 283 281 293
f 293 281 291
f 293 291 303
f 303 291 301
f 303 301 313
f 313 301 311
f 313 311 323
f 323 311 321
f 323 321 333
f 333 321 331
f 333 331 343
f 343 331 341
f 343 341 354
f 354 341 352
f 354 352 351
f 281 280 278
f 281 278 291
f 291 278 289
f 291 289 301
f 301 289 299
f 301 299 311
f 311 299 309
f 311 309 321
f 321 309 319
f 321 319 331
f 331 319 329
f 331 329 341
f 341 329 339
f 341 339 352
f 352 339 349
f 352 349 351
f 278 280 277
f 278 277 289
f 289 277 287
f 289 287 299
f 299 287 297
f 299 297 309
f 309 297 307
f 309 307 319
f 319 307 317
f 319 317 329
f 329 317 327
f 329 327 339
f 339 327 337
f 339 337 349
f 349 337 348
f 349 348 351
f 277 280 276
f 277 276 287
f 287 276 286
f 287 286 297
f 297 286 296
f 297 296 307
f 307 296 306
f 307 306 317
f 317 306 316
f 317 316 327
f 327 316 326
f 327 326 337
f 337 326 336
f 337 336 348
f 348 336 347
f 348 347 351
f 276 280 275
f 276 275 286
f 286 275 288
f 286 288 296
f 296 288 298
f 296 298 306
f 306 298 308
f 306 308 316
f 316 308 318
f 316 318 326
f 326 318 328
f 326 328 336
f 336 328 338
f 336 338 347
f 347 338 346
f 347 346 351
f 275 280 279
f 275 279 288
f 288 279 290
f 288 290 298
f 298 290 300
f 298 300 308
f 308 300 310
f 308 310 318
f 318 310 320
f 318 320 328
f 328 320 330
f 328 330 338
f 338 330 340
f 338 340 346
f 346 340 350
f 346 350 351
