# Low-poly camping hatchback / glass
mtllib camping_hatchback.mtl
o CampingHatchback_glass
usemtl glass
v 0.189969 1.039626 -1.866635
v 0.000000 1.039568 -1.869662
v -0.189968 1.039626 -1.866635
v 0.408895 1.039771 -1.844498
v -0.408894 1.039771 -1.844498
v 0.472490 1.039788 -1.824153
v -0.472489 1.039788 -1.824153
v 0.165124 1.093672 -1.797447
v 0.000000 1.097160 -1.803851
v -0.165123 1.093672 -1.797447
v 0.468358 1.066594 -1.758620
v -0.468357 1.066594 -1.758620
v 0.334447 1.084595 -1.779056
v -0.334447 1.084595 -1.779056
v 0.155906 1.145695 -1.705183
v 0.000000 1.150126 -1.715067
v -0.155906 1.145695 -1.705183
v 0.309833 1.134489 -1.680476
v -0.309832 1.134489 -1.680476
v 0.461484 1.107666 -1.657931
v -0.461483 1.107666 -1.657931
v 0.544542 1.038322 -1.630422
v -0.544542 1.038322 -1.630422
v 0.518962 1.107230 -1.576244
v -0.518962 1.107230 -1.576244
v 0.149171 1.210835 -1.573191
v 0.000000 1.216389 -1.585062
v -0.149171 1.210835 -1.573191
v 0.295332 1.196674 -1.546006
v -0.295331 1.196674 -1.546006
v 0.449727 1.177874 -1.495782
v -0.449727 1.177874 -1.495782
v 0.150065 1.271348 -1.428687
v 0.000000 1.275951 -1.441361
v -0.150065 1.271348 -1.428687
v 0.297535 1.259816 -1.397289
v -0.297534 1.259816 -1.397289
v 0.590787 1.028283 -1.388538
v -0.590786 1.028283 -1.388538
v 0.547127 1.104852 -1.356796
v -0.547126 1.104852 -1.356796
v 0.437981 1.248126 -1.335376
v -0.437981 1.248126 -1.335376
v 0.151707 1.318985 -1.316482
v 0.000000 1.323788 -1.329876
v -0.151707 1.318985 -1.316482
v 0.489806 1.237633 -1.300276
v -0.489806 1.237633 -1.300276
v 0.297781 1.308715 -1.280930
v -0.297781 1.308716 -1.280930
v 0.430696 1.289575 -1.241208
v -0.430695 1.289576 -1.241208
v 0.609397 1.021366 -1.212437
v -0.609396 1.021367 -1.212437
v 0.574076 1.102577 -1.146821
v -0.574075 1.102577 -1.146821
v 0.479099 1.309399 -1.117884
v -0.479099 1.309399 -1.117884
v 0.538085 1.193503 -1.073354
v -0.538084 1.193503 -1.073354
v 0.620996 1.014750 -1.043310
v -0.620996 1.014750 -1.043310
v 0.585296 1.091423 -1.049205
v -0.585296 1.091424 -1.049205
v 0.551172 1.177400 -0.978698
v -0.551172 1.177400 -0.978698
v 0.500978 1.284665 -0.999698
v -0.500978 1.284665 -0.999698
v 0.478008 1.341495 -0.953780
v -0.478008 1.341495 -0.953780
v 0.511830 1.273434 -0.899943
v -0.511830 1.273434 -0.899943
v 0.480086 1.350303 -0.826416
v -0.480085 1.350303 -0.826416
v 0.478832 1.356193 -0.351257
v -0.478832 1.356193 -0.351257
v 0.592355 1.086886 -0.327531
v -0.592355 1.086886 -0.327531
v 0.552654 1.187254 -0.336373
v -0.552654 1.187254 -0.336373
v 0.510413 1.288257 -0.345271
v -0.510413 1.288257 -0.345271
v 0.634852 0.986072 -0.318649
v -0.634852 0.986072 -0.318649
v 0.479906 1.353719 -0.247431
v -0.479905 1.353719 -0.247431
v 0.510633 1.286849 -0.234965
v -0.510633 1.286849 -0.234965
v 0.592719 1.083098 -0.196980
v -0.592719 1.083098 -0.196980
v 0.552953 1.184695 -0.215921
v -0.552953 1.184695 -0.215921
v 0.635377 0.980500 -0.177853
v -0.635377 0.980500 -0.177853
v 0.489533 1.339870 0.033475
v -0.489533 1.339870 0.033475
v 0.502450 1.290382 0.176661
v -0.502450 1.290382 0.176661
v 0.455165 1.285404 0.231786
v -0.455165 1.285405 0.231786
v 0.316575 1.308564 0.287570
v -0.316575 1.308564 0.287570
v 0.157666 1.321805 0.325000
v -0.157665 1.321805 0.325000
v 0.539572 1.192550 0.335327
v -0.539572 1.192550 0.335327
v 0.000000 1.327529 0.337880
v 0.482455 1.209590 0.366819
v -0.482455 1.209591 0.366819
v 0.335084 1.230694 0.425783
v -0.335083 1.230694 0.425783
v 0.168453 1.244772 0.464154
v 0.000000 1.250100 0.479036
v -0.168453 1.244772 0.464154
v 0.629275 0.953425 0.506303
v -0.629274 0.953425 0.506303
v 0.578928 1.087889 0.484725
v -0.578927 1.087889 0.484725
v 0.519809 1.115937 0.508044
v -0.519809 1.115938 0.508044
v 0.358069 1.140114 0.577239
v -0.358068 1.140114 0.577239
v 0.180293 1.154076 0.620843
v -0.180292 1.154076 0.620843
v 0.554254 1.023804 0.638273
v -0.554254 1.023804 0.638273
v 0.000000 1.159507 0.637825
v 0.384940 1.032082 0.749087
v -0.384940 1.032082 0.749087
v 0.598035 0.894421 0.803422
v -0.598035 0.894421 0.803422
v 0.193689 1.045625 0.798826
v -0.193689 1.045625 0.798826
v 0.000000 1.051123 0.820039
v 0.411819 0.917083 0.915532
v -0.411819 0.917083 0.915532
v 0.206713 0.929900 0.969365
v -0.206713 0.929900 0.969365
v 0.000000 0.936571 0.997420
f 57 69 67
f 24 47 40
f 58 68 70
f 25 41 48
f 117 89 91
f 117 91 105
f 117 115 93
f 117 93 89
f 40 47 59
f 40 59 55
f 38 40 55
f 38 55 53
f 85 95 97
f 85 97 87
f 97 105 91
f 97 91 87
f 63 65 79
f 63 79 77
f 71 73 75
f 71 75 81
f 61 63 77
f 61 77 83
f 65 71 81
f 65 81 79
f 22 24 40
f 22 40 38
f 67 59 47
f 67 47 57
f 110 112 123
f 110 123 121
f 121 123 132
f 121 132 128
f 135 128 132
f 135 132 137
f 137 132 134
f 137 134 139
f 123 127 134
f 123 134 132
f 112 113 127
f 112 127 123
f 130 125 128
f 130 128 135
f 125 119 121
f 125 121 128
f 103 107 113
f 103 113 112
f 101 103 112
f 101 112 110
f 108 99 101
f 108 101 110
f 119 108 110
f 119 110 121
f 49 51 42
f 49 42 36
f 44 49 36
f 44 36 33
f 45 44 33
f 45 33 34
f 34 33 26
f 34 26 27
f 27 26 15
f 27 15 16
f 16 15 8
f 16 8 9
f 2 9 8
f 2 8 1
f 1 8 13
f 1 13 4
f 4 13 11
f 4 11 6
f 11 13 18
f 11 18 20
f 15 18 13
f 15 13 8
f 26 29 18
f 26 18 15
f 33 36 29
f 33 29 26
f 20 18 29
f 20 29 31
f 31 29 36
f 31 36 42
f 118 106 92
f 118 92 90
f 118 90 94
f 118 94 116
f 41 56 60
f 41 60 48
f 39 54 56
f 39 56 41
f 86 88 98
f 86 98 96
f 98 88 92
f 98 92 106
f 64 78 80
f 64 80 66
f 72 82 76
f 72 76 74
f 62 84 78
f 62 78 64
f 66 80 82
f 66 82 72
f 23 39 41
f 23 41 25
f 68 58 48
f 68 48 60
f 111 122 124
f 111 124 114
f 122 129 133
f 122 133 124
f 136 138 133
f 136 133 129
f 138 139 134
f 138 134 133
f 124 133 134
f 124 134 127
f 114 124 127
f 114 127 113
f 131 136 129
f 131 129 126
f 126 129 122
f 126 122 120
f 104 114 113
f 104 113 107
f 102 111 114
f 102 114 104
f 109 111 102
f 109 102 100
f 120 122 111
f 120 111 109
f 50 37 43
f 50 43 52
f 46 35 37
f 46 37 50
f 45 34 35
f 45 35 46
f 34 27 28
f 34 28 35
f 27 16 17
f 27 17 28
f 16 9 10
f 16 10 17
f 2 3 10
f 2 10 9
f 3 5 14
f 3 14 10
f 5 7 12
f 5 12 14
f 12 21 19
f 12 19 14
f 17 10 14
f 17 14 19
f 28 17 19
f 28 19 30
f 35 28 30
f 35 30 37
f 21 32 30
f 21 30 19
f 32 43 37
f 32 37 30
