# Low-poly camping hatchback / lights
mtllib camping_hatchback.mtl
o CampingHatchback_lights
usemtl lights
v 0.315230 0.718961 -2.016445
v -0.315230 0.718961 -2.016445
v 0.519365 0.723584 -1.988725
v 0.496956 0.726804 -1.992543
v 0.458862 0.722193 -2.000186
v 0.388694 0.720968 -2.005507
v 0.373687 0.720945 -2.007436
v 0.326851 0.716551 -1.999360
v -0.326851 0.716551 -1.999360
v -0.373687 0.720945 -2.007436
v -0.388694 0.720968 -2.005507
v -0.458862 0.722194 -2.000186
v -0.496956 0.726804 -1.992543
v -0.519365 0.723585 -1.988725
v 0.388636 0.759571 -2.003842
v -0.388635 0.759571 -2.003842
v 0.395919 0.792124 -1.998342
v 0.314409 0.791777 -2.005838
v -0.314409 0.791777 -2.005838
v -0.395919 0.792124 -1.998342
v 0.416695 0.820619 -1.991952
v 0.387904 0.820619 -1.995230
v 0.314065 0.820272 -2.001519
v -0.314065 0.820272 -2.001519
v -0.387904 0.820619 -1.995230
v -0.416695 0.820619 -1.991952
v 0.313600 0.879159 -1.988957
v -0.313600 0.879160 -1.988957
v 0.558498 0.722999 -1.977483
v 0.522971 0.724937 -1.980207
v 0.501105 0.717370 -1.974190
v 0.457130 0.717426 -1.985733
v -0.457130 0.717426 -1.985733
v -0.501105 0.717370 -1.974190
v -0.522971 0.724938 -1.980207
v -0.558497 0.722999 -1.977483
v 0.553686 0.793509 -1.972538
v 0.519596 0.793473 -1.978091
v -0.519596 0.793473 -1.978091
v -0.553686 0.793509 -1.972538
v 0.519583 0.874174 -1.965873
v 0.439119 0.873190 -1.977480
v 0.386762 0.878009 -1.976594
v 0.318833 0.876506 -1.976282
v -0.318833 0.876506 -1.976282
v -0.386762 0.878009 -1.976594
v -0.439119 0.873191 -1.977480
v -0.519583 0.874174 -1.965873
v 0.604388 0.723210 -1.951852
v -0.604387 0.723210 -1.951852
v 0.542599 0.874682 -1.956645
v 0.523888 0.874060 -1.953671
v 0.500691 0.875827 -1.950555
v 0.437299 0.876011 -1.961550
v -0.437299 0.876011 -1.961550
v -0.500691 0.875827 -1.950555
v -0.523888 0.874060 -1.953671
v -0.542599 0.874682 -1.956645
v 0.588764 0.865707 -1.928550
v 0.584167 0.876541 -1.923216
v -0.584167 0.876541 -1.923216
v -0.588764 0.865707 -1.928550
v 0.653464 0.721786 -1.889721
v -0.653463 0.721786 -1.889721
v 0.641619 0.713853 -1.883382
v -0.641619 0.713853 -1.883382
v 0.646349 0.792507 -1.882186
v -0.646349 0.792508 -1.882186
v 0.628251 0.871939 -1.870693
v -0.628251 0.871939 -1.870693
v 0.663681 0.721072 -1.848373
v 0.650972 0.713512 -1.845051
v -0.650972 0.713512 -1.845051
v -0.663680 0.721072 -1.848373
v 0.657196 0.792390 -1.841407
v -0.657195 0.792390 -1.841407
v 0.654993 0.816513 -1.839042
v -0.654993 0.816513 -1.839042
v 0.643088 0.871115 -1.833860
v 0.629491 0.871375 -1.829010
v -0.629491 0.871376 -1.829010
v -0.643088 0.871115 -1.833860
v 0.673803 0.721517 -1.806921
v 0.660664 0.718642 -1.803109
v -0.660664 0.718642 -1.803109
v -0.673803 0.721518 -1.806921
v 0.668042 0.792273 -1.800628
v 0.654868 0.790540 -1.796487
v -0.654868 0.790540 -1.796487
v -0.668042 0.792273 -1.800628
v 0.666136 0.815672 -1.798546
v 0.653104 0.812997 -1.794269
v -0.653104 0.812997 -1.794269
v -0.666136 0.815673 -1.798546
v 0.652154 0.861105 -1.794108
v -0.652154 0.861105 -1.794108
v 0.648829 0.872782 -1.793016
v -0.648829 0.872782 -1.793016
v 0.558593 0.736004 -1.979529
v -0.558593 0.736004 -1.979529
v 0.553686 0.793509 -1.972538
v -0.553686 0.793509 -1.972538
v 0.604985 0.734820 -1.951999
v -0.604984 0.734820 -1.951999
v 0.600406 0.793004 -1.942655
v -0.600406 0.793004 -1.942655
v 0.652316 0.733194 -1.888505
v -0.652316 0.733194 -1.888505
v 0.646349 0.792507 -1.882186
v -0.646349 0.792508 -1.882186
v 0.755885 0.705276 0.858069
v -0.755885 0.705276 0.858069
v 0.751251 0.729177 0.858069
v -0.751251 0.729177 0.858069
v 0.764149 0.709522 0.877166
v 0.758806 0.703894 0.865443
v -0.758805 0.703894 0.865443
v -0.764149 0.709522 0.877166
v 0.763516 0.714028 0.871774
v 0.756125 0.730327 0.869149
v -0.756892 0.729573 0.869145
v -0.763516 0.714028 0.871774
v 0.755927 0.705385 0.930813
v -0.755927 0.705385 0.930813
v 0.753184 0.728544 0.928794
v -0.753184 0.728544 0.928794
v 0.643579 0.734609 1.709682
v -0.643579 0.734610 1.709682
v 0.666952 0.673020 1.734202
v -0.666952 0.673020 1.734202
v 0.652153 0.739176 1.714057
v -0.652153 0.739177 1.714057
v 0.674268 0.635125 1.750353
v -0.674267 0.635125 1.750353
v 0.682499 0.638170 1.754956
v -0.682499 0.638171 1.754956
v 0.675666 0.677054 1.738831
v -0.675666 0.677054 1.738831
v 0.615916 0.733798 1.809210
v 0.607860 0.729168 1.803600
v -0.607860 0.729168 1.803600
v -0.615916 0.733798 1.809210
v 0.633937 0.674343 1.834524
v -0.633937 0.674343 1.834524
v 0.591606 0.728293 1.831867
v -0.591606 0.728294 1.831867
v 0.628637 0.634661 1.841612
v 0.603339 0.632501 1.860958
v -0.603339 0.632501 1.860958
v -0.628637 0.634661 1.841612
v 0.636506 0.637931 1.848470
v -0.636506 0.637931 1.848470
v 0.610640 0.672739 1.861201
v -0.610640 0.672739 1.861201
v 0.597739 0.733022 1.839780
v 0.553794 0.722259 1.854400
v -0.553794 0.722259 1.854400
v -0.597739 0.733022 1.839780
v 0.610374 0.636266 1.870178
v -0.610726 0.636455 1.870639
v 0.549248 0.727529 1.869241
v -0.549248 0.727529 1.869241
v 0.569381 0.630195 1.899544
v -0.569381 0.630195 1.899544
v 0.563677 0.669656 1.898047
v 0.561673 0.667354 1.893781
v -0.561673 0.667354 1.893781
v -0.563676 0.669656 1.898047
v 0.567463 0.635382 1.912671
v -0.567463 0.635382 1.912671
v 0.309358 0.718961 -2.017199
v 0.238432 0.718606 -2.023844
v 0.000000 0.718619 -2.026547
v -0.238431 0.718606 -2.023844
v -0.309357 0.718961 -2.017199
v 0.232838 0.792124 -2.017556
v 0.000000 0.792124 -2.020465
v -0.232838 0.792124 -2.017556
v 0.230533 0.820619 -2.013150
v 0.000000 0.820619 -2.016137
v -0.230533 0.820619 -2.013150
v 0.293535 0.716614 -2.003505
v -0.293535 0.716614 -2.003505
v 0.308530 0.791777 -2.006531
v -0.308530 0.791777 -2.006531
v 0.308184 0.820272 -2.002189
v -0.308184 0.820272 -2.002189
v 0.307712 0.879159 -1.989556
v 0.218362 0.879159 -1.998648
v 0.000000 0.879159 -2.001703
v -0.218362 0.879159 -1.998648
v -0.307712 0.879160 -1.989556
v 0.299181 0.876596 -1.978332
v 0.217698 0.875469 -1.984037
v 0.000000 0.875545 -1.987069
v -0.217698 0.875469 -1.984037
v -0.299181 0.876596 -1.978332
v 0.123661 1.133717 -1.874360
v 0.000000 1.134689 -1.877931
v -0.123660 1.133717 -1.874360
v 0.120310 1.152316 -1.875374
v 0.000000 1.155317 -1.879724
v -0.120309 1.152316 -1.875374
v 0.496956 0.726804 -1.992543
v 0.458407 0.727824 -1.999492
v 0.389016 0.727807 -2.008323
v 0.374051 0.727815 -2.010242
v -0.374051 0.727815 -2.010242
v -0.389016 0.727807 -2.008323
v -0.458406 0.727824 -1.999492
v -0.496956 0.726804 -1.992543
v 0.388636 0.759571 -2.003842
v -0.388635 0.759571 -2.003842
v 0.453206 0.792124 -1.991568
v 0.403593 0.792124 -1.997435
v -0.403593 0.792124 -1.997435
v -0.453205 0.792124 -1.991568
v 0.450901 0.820619 -1.988057
v 0.416695 0.820619 -1.991952
v -0.416695 0.820619 -1.991952
v -0.450900 0.820619 -1.988057
v 0.553686 0.793509 -1.972538
v 0.519596 0.793473 -1.978091
v -0.519596 0.793473 -1.978091
v -0.553686 0.793509 -1.972538
v 0.550663 0.820337 -1.969660
v 0.519516 0.820155 -1.974900
v -0.519515 0.820156 -1.974900
v -0.550663 0.820337 -1.969660
v 0.519612 0.867038 -1.967351
v 0.439508 0.867222 -1.978749
v -0.439508 0.867222 -1.978749
v -0.519612 0.867038 -1.967351
v 0.600406 0.793004 -1.942655
v -0.600406 0.793004 -1.942655
v 0.598351 0.819125 -1.938460
v -0.598351 0.819125 -1.938460
v 0.543773 0.866771 -1.958539
v 0.518757 0.865996 -1.961093
v -0.518757 0.865996 -1.961093
v -0.543773 0.866771 -1.958539
v 0.588764 0.865707 -1.928550
v -0.588764 0.865707 -1.928550
v 0.646349 0.792507 -1.882186
v -0.646349 0.792508 -1.882186
v 0.643850 0.817353 -1.879538
v -0.643849 0.817353 -1.879538
v 0.633226 0.864035 -1.873658
v -0.633226 0.864035 -1.873658
v 0.657196 0.792390 -1.841407
v -0.657195 0.792390 -1.841407
v 0.654993 0.816513 -1.839042
v -0.654993 0.816513 -1.839042
v 0.644821 0.863167 -1.834615
v -0.644821 0.863167 -1.834615
v 0.543827 0.727083 1.871900
v 0.529997 0.720552 1.866947
v -0.529996 0.720552 1.866947
v -0.543827 0.727084 1.871900
v 0.551696 0.630613 1.910001
v -0.551695 0.630613 1.910001
v 0.557777 0.668600 1.899716
v -0.557777 0.668601 1.899716
v 0.446070 0.718205 1.902402
v -0.446070 0.718205 1.902402
v 0.560141 0.634344 1.915333
v -0.560141 0.634344 1.915333
v 0.352968 0.709125 1.915465
v 0.260721 0.705342 1.935865
v -0.260721 0.705342 1.935865
v -0.352968 0.709125 1.915465
v 0.354452 0.715259 1.924813
v -0.354451 0.715259 1.924813
v 0.444095 0.323239 1.956179
v -0.444095 0.323239 1.956179
v 0.474753 0.630351 1.955019
v -0.474753 0.630351 1.955019
v 0.464665 0.665070 1.940593
v -0.464665 0.665071 1.940593
v 0.261631 0.709376 1.942146
v -0.261631 0.709376 1.942146
v 0.262541 0.713411 1.948428
v -0.262541 0.713411 1.948428
v 0.335912 0.323079 1.971108
v -0.335912 0.323080 1.971108
v 0.444247 0.344903 1.973411
v 0.335890 0.345247 1.983635
v -0.335890 0.345248 1.983635
v -0.444247 0.344903 1.973411
v 0.444155 0.366530 1.980114
v -0.444155 0.366530 1.980114
v 0.367297 0.628580 1.979706
v 0.252227 0.622930 1.986490
v -0.252227 0.622930 1.986490
v -0.367297 0.628580 1.979706
v 0.362369 0.662407 1.964126
v 0.256059 0.657008 1.977216
v -0.256059 0.657008 1.977216
v -0.362369 0.662407 1.964126
v 0.335917 0.365986 1.994873
v -0.335917 0.365986 1.994873
v 0.253316 0.628957 1.995971
v -0.253316 0.628957 1.995971
f 71 63 67
f 71 67 75
f 27 23 44
f 43 22 23
f 43 23 27
f 22 17 18
f 22 18 23
f 29 30 38
f 29 38 37
f 18 7 1
f 3 38 30
f 91 77 79
f 91 79 95
f 69 59 60
f 59 51 60
f 17 15 7
f 17 7 18
f 42 21 22
f 42 22 43
f 21 17 22
f 5 4 3
f 95 79 97
f 4 38 3
f 87 75 77
f 87 77 91
f 83 71 75
f 83 75 87
f 29 3 30
f 49 63 65
f 6 5 32
f 1 7 8
f 5 3 31
f 5 31 32
f 3 29 30
f 83 84 72
f 83 72 71
f 3 30 31
f 83 87 88
f 83 88 84
f 87 91 92
f 87 92 88
f 41 53 52
f 41 52 51
f 42 54 53
f 42 53 41
f 27 44 43
f 79 80 97
f 43 54 42
f 60 51 52
f 91 95 92
f 79 69 80
f 63 71 72
f 63 72 65
f 74 76 68
f 74 68 64
f 28 45 24
f 46 28 24
f 46 24 25
f 25 24 19
f 25 19 20
f 36 40 39
f 36 39 35
f 19 2 10
f 14 35 39
f 94 96 82
f 94 82 78
f 70 61 62
f 62 61 58
f 20 19 10
f 20 10 16
f 47 46 25
f 47 25 26
f 26 25 20
f 12 14 13
f 96 98 82
f 13 14 39
f 90 94 78
f 90 78 76
f 86 90 76
f 86 76 74
f 36 35 14
f 50 66 64
f 11 33 12
f 2 9 10
f 12 33 34
f 12 34 14
f 14 35 36
f 86 74 73
f 86 73 85
f 14 34 35
f 86 85 89
f 86 89 90
f 90 89 93
f 90 93 94
f 48 57 56
f 48 58 57
f 47 48 56
f 47 56 55
f 28 46 45
f 82 98 81
f 46 47 55
f 61 57 58
f 94 93 96
f 82 81 70
f 64 66 73
f 64 73 74
f 107 103 105
f 107 105 109
f 103 99 101
f 103 101 105
f 151 135 137
f 151 137 143
f 159 151 143
f 159 143 153
f 169 165 166
f 169 166 163
f 155 161 165
f 155 165 153
f 165 161 166
f 143 137 131
f 143 131 139
f 153 143 139
f 153 139 155
f 153 165 169
f 153 169 159
f 131 129 127
f 139 131 127
f 139 127 140
f 145 139 140
f 159 163 148
f 147 159 148
f 135 151 147
f 135 147 133
f 151 159 147
f 159 169 163
f 155 139 145
f 161 155 145
f 161 145 156
f 131 137 129
f 137 135 133
f 137 133 129
f 116 119 115
f 111 113 120
f 111 120 116
f 119 125 123
f 119 123 115
f 116 120 119
f 123 116 115
f 119 120 125
f 108 110 106
f 108 106 104
f 104 106 102
f 104 102 100
f 152 144 138
f 152 138 136
f 160 154 144
f 160 144 152
f 170 164 167
f 170 167 168
f 158 154 168
f 158 168 162
f 168 167 162
f 144 142 132
f 144 132 138
f 154 158 142
f 154 142 144
f 154 160 170
f 154 170 168
f 132 128 130
f 142 141 128
f 142 128 132
f 146 141 142
f 160 149 164
f 150 149 160
f 136 134 150
f 136 150 152
f 152 150 160
f 160 164 170
f 158 146 142
f 162 157 146
f 162 146 158
f 132 130 138
f 138 130 134
f 138 134 136
f 117 118 122
f 112 117 121
f 112 121 114
f 122 118 124
f 122 124 126
f 117 122 121
f 124 118 117
f 122 126 121
f 177 180 179
f 177 179 176
f 173 177 176
f 173 176 172
f 171 172 176
f 171 176 184
f 184 176 179
f 184 179 186
f 186 188 193
f 186 179 189
f 186 189 188
f 180 190 189
f 180 189 179
f 202 201 198
f 202 198 199
f 172 171 182
f 189 194 193
f 189 193 188
f 189 190 195
f 189 195 194
f 177 178 181
f 177 181 180
f 173 174 178
f 173 178 177
f 175 185 178
f 175 178 174
f 185 187 181
f 185 181 178
f 187 197 192
f 187 192 191
f 187 191 181
f 180 181 191
f 180 191 190
f 202 199 200
f 202 200 203
f 174 183 175
f 191 192 197
f 191 197 196
f 191 196 195
f 191 195 190
f 206 207 212
f 209 213 208
f 214 215 219
f 214 219 218
f 234 222 226
f 234 226 236
f 250 244 246
f 250 246 252
f 244 234 236
f 244 236 246
f 230 227 239
f 223 214 218
f 223 218 227
f 230 227 218
f 230 218 231
f 222 223 227
f 222 227 226
f 223 204 205
f 223 205 214
f 264 272 296
f 264 296 278
f 302 292 296
f 302 296 297
f 276 266 262
f 276 262 278
f 284 274 286
f 284 286 287
f 286 290 300
f 286 300 287
f 278 262 256
f 278 256 264
f 297 296 272
f 297 272 282
f 262 266 260
f 278 296 292
f 278 292 276
f 236 226 238
f 236 238 242
f 246 236 242
f 246 242 248
f 252 246 248
f 252 248 254
f 226 227 230
f 226 230 238
f 227 230 239
f 218 219 231
f 302 297 293
f 297 280 269
f 272 264 268
f 280 272 268
f 280 268 269
f 266 276 260
f 292 302 293
f 282 272 280
f 264 256 257
f 297 282 280
f 217 221 220
f 217 220 216
f 235 237 229
f 235 229 225
f 251 253 247
f 251 247 245
f 245 247 237
f 245 237 235
f 233 240 228
f 224 228 221
f 224 221 217
f 233 232 221
f 233 221 228
f 225 229 228
f 225 228 224
f 224 217 210
f 224 210 211
f 265 279 299
f 265 299 273
f 303 298 299
f 303 299 295
f 277 279 263
f 277 263 267
f 285 288 289
f 285 289 275
f 289 288 301
f 289 301 291
f 279 265 259
f 279 259 263
f 298 283 273
f 298 273 299
f 263 261 267
f 279 277 295
f 279 295 299
f 237 243 241
f 237 241 229
f 247 249 243
f 247 243 237
f 253 255 249
f 253 249 247
f 229 241 233
f 229 233 228
f 228 240 233
f 221 232 220
f 303 294 298
f 298 270 281
f 273 271 265
f 281 270 271
f 281 271 273
f 267 261 277
f 295 294 303
f 283 281 273
f 265 258 259
f 298 281 283
f 215 206 212
f 206 215 205
f 205 215 214
f 217 209 210
f 209 217 216
f 209 216 213
