# Low-poly camping hatchback / wheels_rubber
mtllib camping_hatchback.mtl
o CampingHatchback_wheels_rubber
usemtl wheels_rubber
v 0.699068 0.218823 0.953222
v 0.581956 0.218823 0.953222
v 0.699068 0.295100 0.943148
v 0.581956 0.295100 0.943148
v 0.699068 0.371377 0.953222
v 0.581956 0.371377 0.953222
v 0.699068 0.147744 0.982756
v 0.581956 0.147744 0.982756
v 0.727580 0.225125 0.976817
v 0.553444 0.225125 0.976817
v 0.727580 0.295100 0.967575
v 0.553444 0.295100 0.967575
v 0.727580 0.365075 0.976817
v 0.553444 0.365075 0.976817
v 0.699068 0.442456 0.982756
v 0.581956 0.442456 0.982756
v 0.699068 0.086707 1.029739
v 0.581956 0.086707 1.029739
v 0.727580 0.159919 1.003911
v 0.553444 0.159919 1.003911
v 0.736126 0.234297 1.011155
v 0.736126 0.295100 1.003126
v 0.736126 0.355902 1.011155
v 0.727580 0.430281 1.003911
v 0.553444 0.430281 1.003911
v 0.699068 0.503493 1.029739
v 0.581956 0.503493 1.029739
v 0.727580 0.103926 1.047012
v 0.553444 0.103926 1.047012
v 0.736126 0.177639 1.034698
v 0.727580 0.194027 1.063173
v 0.713758 0.194715 1.064369
v 0.553444 0.194027 1.063173
v 0.727580 0.242781 1.042915
v 0.713758 0.243137 1.044248
v 0.553444 0.242781 1.042915
v 0.727580 0.295100 1.036005
v 0.713758 0.295100 1.037386
v 0.553444 0.295100 1.036005
v 0.727580 0.347419 1.042915
v 0.713758 0.347063 1.044248
v 0.553444 0.347419 1.042915
v 0.727580 0.396173 1.063173
v 0.713758 0.395657 1.064070
v 0.553444 0.396173 1.063173
v 0.736126 0.412561 1.034698
v 0.727580 0.486274 1.047012
v 0.553444 0.486274 1.047012
v 0.699068 0.039872 1.090968
v 0.581956 0.039872 1.090968
v 0.730429 0.144436 1.087649
v 0.713758 0.153134 1.096375
v 0.553444 0.152161 1.095399
v 0.713758 0.435119 1.098328
v 0.730429 0.445764 1.087649
v 0.713758 0.438039 1.095399
v 0.553444 0.438039 1.095399
v 0.699068 0.550328 1.090968
v 0.581956 0.550328 1.090968
v 0.727580 0.060960 1.103182
v 0.553444 0.060960 1.103182
v 0.729716 0.112940 1.133286
v 0.713758 0.120036 1.137396
v 0.553444 0.120036 1.137396
v 0.727580 0.470164 1.137396
v 0.713758 0.470164 1.137396
v 0.553444 0.470164 1.137396
v 0.736126 0.498549 1.120956
v 0.727580 0.529240 1.103182
v 0.553444 0.529240 1.103182
v 0.699068 0.010430 1.162270
v 0.581956 0.010430 1.162270
v 0.727580 0.033951 1.168592
v 0.553444 0.033951 1.168592
v 0.713758 0.123612 1.139467
v 0.713758 0.466588 1.139467
v 0.727580 0.556249 1.168592
v 0.553444 0.556249 1.168592
v 0.699068 0.579770 1.162270
v 0.581956 0.579770 1.162270
v 0.736126 0.068182 1.177794
v 0.727580 0.099842 1.186304
v 0.713758 0.101171 1.186661
v 0.553444 0.099842 1.186304
v 0.727580 0.490358 1.186304
v 0.713758 0.489029 1.186661
v 0.553444 0.490358 1.186304
v 0.736126 0.522018 1.177794
v 0.699068 0.000388 1.238787
v 0.581956 0.000388 1.238787
v 0.727580 0.024739 1.238787
v 0.553444 0.024739 1.238787
v 0.736126 0.060177 1.238787
v 0.727580 0.092954 1.238787
v 0.713758 0.094330 1.238787
v 0.553444 0.092954 1.238787
v 0.727580 0.497246 1.238787
v 0.713758 0.495870 1.238787
v 0.553444 0.497246 1.238787
v 0.736126 0.530023 1.238787
v 0.727580 0.565461 1.238787
v 0.553444 0.565461 1.238787
v 0.699068 0.589812 1.238787
v 0.581956 0.589812 1.238787
v 0.727580 0.033951 1.308982
v 0.553444 0.033951 1.308982
v 0.736126 0.068182 1.299781
v 0.727580 0.099842 1.291271
v 0.713758 0.101171 1.290914
v 0.553444 0.099842 1.291271
v 0.727580 0.490358 1.291271
v 0.713758 0.489029 1.290914
v 0.553444 0.490358 1.291271
v 0.736126 0.522018 1.299781
v 0.727580 0.556249 1.308982
v 0.553444 0.556249 1.308982
v 0.699068 0.010430 1.315304
v 0.581956 0.010430 1.315304
v 0.727580 0.120036 1.340179
v 0.713758 0.120036 1.340179
v 0.553444 0.120036 1.340179
v 0.713758 0.123612 1.338107
v 0.727580 0.470164 1.340179
v 0.713758 0.469270 1.339661
v 0.553444 0.470164 1.340179
v 0.699068 0.579770 1.315304
v 0.581956 0.579770 1.315304
v 0.727580 0.060960 1.374393
v 0.553444 0.060960 1.374393
v 0.736126 0.091651 1.356618
v 0.727580 0.152161 1.382176
v 0.713758 0.153134 1.381200
v 0.553444 0.152161 1.382176
v 0.713758 0.435119 1.379247
v 0.727580 0.438039 1.382176
v 0.713758 0.438039 1.382176
v 0.553444 0.438039 1.382176
v 0.736126 0.498549 1.356618
v 0.727580 0.529240 1.374393
v 0.553444 0.529240 1.374393
v 0.699068 0.039872 1.386607
v 0.581956 0.039872 1.386607
v 0.736126 0.128984 1.405425
v 0.727580 0.194027 1.414402
v 0.713758 0.194543 1.413505
v 0.553444 0.194027 1.414402
v 0.727580 0.396173 1.414402
v 0.713758 0.395485 1.413206
v 0.553444 0.396173 1.414402
v 0.736126 0.461215 1.405425
v 0.699068 0.550328 1.386607
v 0.581956 0.550328 1.386607
v 0.699068 0.086707 1.447836
v 0.581956 0.086707 1.447836
v 0.727580 0.103926 1.430563
v 0.553444 0.103926 1.430563
v 0.736126 0.177639 1.442877
v 0.727580 0.242781 1.434660
v 0.713758 0.243137 1.433326
v 0.553444 0.242781 1.434660
v 0.727580 0.295100 1.441570
v 0.713758 0.295100 1.440189
v 0.553444 0.295100 1.441570
v 0.727580 0.347419 1.434660
v 0.713758 0.347063 1.433326
v 0.553444 0.347419 1.434660
v 0.736126 0.412561 1.442877
v 0.727580 0.486274 1.430563
v 0.699068 0.503493 1.447836
v 0.581956 0.503493 1.447836
v 0.553444 0.486274 1.430563
v 0.727580 0.159919 1.473664
v 0.553444 0.159919 1.473664
v 0.736126 0.234297 1.466419
v 0.736126 0.295100 1.474449
v 0.736126 0.355902 1.466419
v 0.727580 0.430281 1.473664
v 0.553444 0.430281 1.473664
v 0.699068 0.147744 1.494818
v 0.581956 0.147744 1.494818
v 0.727580 0.225125 1.500758
v 0.553444 0.225125 1.500758
v 0.727580 0.295100 1.509999
v 0.553444 0.295100 1.509999
v 0.727580 0.365075 1.500758
v 0.553444 0.365075 1.500758
v 0.699068 0.442456 1.494818
v 0.581956 0.442456 1.494818
v 0.699068 0.218823 1.524353
v 0.581956 0.218823 1.524353
v 0.699068 0.295100 1.534427
v 0.581956 0.295100 1.534427
v 0.699068 0.371377 1.524353
v 0.581956 0.371377 1.524353
v -0.581956 0.218823 0.953222
v -0.699068 0.218823 0.953222
v -0.581956 0.295100 0.943148
v -0.699068 0.295100 0.943148
v -0.581956 0.371377 0.953222
v -0.699068 0.371377 0.953222
v -0.581956 0.147744 0.982756
v -0.699068 0.147744 0.982756
v -0.553444 0.225125 0.976817
v -0.727580 0.225125 0.976817
v -0.553444 0.295100 0.967575
v -0.727580 0.295100 0.967575
v -0.553444 0.365075 0.976817
v -0.727580 0.365075 0.976817
v -0.581956 0.442456 0.982756
v -0.699068 0.442456 0.982756
v -0.581956 0.086707 1.029739
v -0.699068 0.086707 1.029739
v -0.553444 0.159919 1.003911
v -0.727580 0.159919 1.003911
v -0.736126 0.234297 1.011156
v -0.736125 0.295100 1.003126
v -0.736125 0.355902 1.011156
v -0.553444 0.430281 1.003911
v -0.727580 0.430281 1.003911
v -0.581956 0.503493 1.029739
v -0.699068 0.503493 1.029739
v -0.553444 0.103926 1.047012
v -0.727580 0.103926 1.047012
v -0.736126 0.177639 1.034698
v -0.553444 0.194027 1.063173
v -0.713758 0.194715 1.064369
v -0.727580 0.194027 1.063173
v -0.553444 0.242781 1.042915
v -0.713758 0.243137 1.044249
v -0.727580 0.242781 1.042915
v -0.553444 0.295100 1.036005
v -0.713758 0.295100 1.037386
v -0.727580 0.295100 1.036005
v -0.553444 0.347419 1.042915
v -0.713758 0.347063 1.044249
v -0.727580 0.347419 1.042915
v -0.553444 0.396173 1.063173
v -0.713758 0.395657 1.064070
v -0.727580 0.396173 1.063173
v -0.736125 0.412561 1.034698
v -0.553444 0.486274 1.047012
v -0.727580 0.486274 1.047012
v -0.581956 0.039872 1.090968
v -0.699068 0.039872 1.090968
v -0.553444 0.152161 1.095399
v -0.713758 0.153134 1.096375
v -0.730429 0.144436 1.087649
v -0.713758 0.435119 1.098328
v -0.553444 0.438039 1.095399
v -0.713758 0.438039 1.095399
v -0.730429 0.445764 1.087649
v -0.581956 0.550328 1.090968
v -0.699068 0.550328 1.090968
v -0.553444 0.060960 1.103182
v -0.727580 0.060960 1.103182
v -0.553444 0.120036 1.137396
v -0.713758 0.120036 1.137396
v -0.729717 0.112940 1.133286
v -0.553444 0.470164 1.137396
v -0.713758 0.470164 1.137396
v -0.727580 0.470164 1.137396
v -0.736125 0.498549 1.120957
v -0.553444 0.529240 1.103182
v -0.727580 0.529240 1.103182
v -0.581956 0.010430 1.162271
v -0.699068 0.010430 1.162271
v -0.553444 0.033951 1.168593
v -0.727580 0.033951 1.168593
v -0.713758 0.123612 1.139467
v -0.713758 0.466588 1.139467
v -0.553444 0.556249 1.168593
v -0.727580 0.556249 1.168593
v -0.581956 0.579770 1.162271
v -0.699068 0.579770 1.162271
v -0.736126 0.068182 1.177794
v -0.553444 0.099842 1.186304
v -0.713758 0.101171 1.186661
v -0.727580 0.099842 1.186304
v -0.553444 0.490358 1.186304
v -0.713758 0.489029 1.186661
v -0.727580 0.490358 1.186304
v -0.736125 0.522018 1.177794
v -0.581956 0.000388 1.238788
v -0.699068 0.000388 1.238788
v -0.553444 0.024739 1.238788
v -0.727580 0.024739 1.238788
v -0.736126 0.060177 1.238788
v -0.553444 0.092954 1.238788
v -0.713758 0.094330 1.238787
v -0.727580 0.092954 1.238788
v -0.553444 0.497246 1.238788
v -0.713758 0.495870 1.238787
v -0.727580 0.497246 1.238788
v -0.736125 0.530023 1.238788
v -0.553444 0.565461 1.238788
v -0.727580 0.565461 1.238788
v -0.581956 0.589812 1.238788
v -0.699068 0.589812 1.238788
v -0.553444 0.033951 1.308982
v -0.727580 0.033951 1.308982
v -0.736126 0.068182 1.299781
v -0.553444 0.099842 1.291271
v -0.713758 0.101171 1.290914
v -0.727580 0.099842 1.291271
v -0.553444 0.490358 1.291271
v -0.713758 0.489029 1.290914
v -0.727580 0.490358 1.291271
v -0.736125 0.522018 1.299781
v -0.553444 0.556249 1.308982
v -0.727580 0.556249 1.308982
v -0.581956 0.010430 1.315304
v -0.699068 0.010430 1.315304
v -0.553444 0.120036 1.340179
v -0.713758 0.120036 1.340179
v -0.727580 0.120036 1.340179
v -0.713758 0.123612 1.338107
v -0.553444 0.470164 1.340179
v -0.713758 0.469270 1.339661
v -0.727580 0.470164 1.340179
v -0.581956 0.579770 1.315304
v -0.699068 0.579770 1.315304
v -0.553444 0.060960 1.374393
v -0.727580 0.060960 1.374393
v -0.736126 0.091651 1.356618
v -0.553444 0.152161 1.382176
v -0.713758 0.153134 1.381200
v -0.727580 0.152161 1.382176
v -0.713758 0.435119 1.379247
v -0.553444 0.438039 1.382176
v -0.713758 0.438039 1.382176
v -0.727580 0.438039 1.382176
v -0.736125 0.498549 1.356618
v -0.553444 0.529240 1.374393
v -0.727580 0.529240 1.374393
v -0.581956 0.039872 1.386607
v -0.699068 0.039872 1.386607
v -0.736126 0.128985 1.405426
v -0.553444 0.194027 1.414402
v -0.713758 0.194543 1.413505
v -0.727580 0.194027 1.414402
v -0.553444 0.396173 1.414402
v -0.713758 0.395485 1.413206
v -0.727580 0.396173 1.414402
v -0.736125 0.461215 1.405426
v -0.581956 0.550328 1.386607
v -0.699068 0.550328 1.386607
v -0.581956 0.086707 1.447836
v -0.699068 0.086707 1.447836
v -0.553444 0.103926 1.430563
v -0.727580 0.103926 1.430563
v -0.736126 0.177639 1.442877
v -0.553444 0.242781 1.434660
v -0.713758 0.243137 1.433326
v -0.727580 0.242781 1.434660
v -0.553444 0.295100 1.441570
v -0.713758 0.295100 1.440189
v -0.727580 0.295100 1.441570
v -0.553444 0.347419 1.434660
v -0.713758 0.347063 1.433326
v -0.727580 0.347419 1.434660
v -0.736125 0.412561 1.442877
v -0.553444 0.486274 1.430563
v -0.581956 0.503493 1.447836
v -0.699068 0.503493 1.447836
v -0.727580 0.486274 1.430563
v -0.553444 0.159919 1.473664
v -0.727580 0.159919 1.473664
v -0.736126 0.234297 1.466419
v -0.736125 0.295100 1.474449
v -0.736125 0.355902 1.466419
v -0.553444 0.430281 1.473664
v -0.727580 0.430281 1.473664
v -0.581956 0.147744 1.494819
v -0.699068 0.147744 1.494819
v -0.553444 0.225125 1.500758
v -0.727580 0.225125 1.500758
v -0.553444 0.295100 1.510000
v -0.727580 0.295100 1.510000
v -0.553444 0.365075 1.500758
v -0.727580 0.365075 1.500758
v -0.581956 0.442456 1.494819
v -0.699068 0.442456 1.494819
v -0.581956 0.218823 1.524353
v -0.699068 0.218823 1.524353
v -0.581956 0.295100 1.534427
v -0.699068 0.295100 1.534427
v -0.581956 0.371377 1.524353
v -0.699068 0.371377 1.524353
v 0.678846 0.218823 -1.538371
v 0.561735 0.218823 -1.538371
v 0.707359 0.295100 -1.524017
v 0.678846 0.295100 -1.548444
v 0.561735 0.295100 -1.548444
v 0.533223 0.295100 -1.524017
v 0.678847 0.371377 -1.538371
v 0.561735 0.371377 -1.538371
v 0.678846 0.147744 -1.508836
v 0.561735 0.147744 -1.508836
v 0.707359 0.159919 -1.487681
v 0.533223 0.159919 -1.487681
v 0.707359 0.225125 -1.514775
v 0.533223 0.225125 -1.514775
v 0.715904 0.295100 -1.488467
v 0.707359 0.365075 -1.514775
v 0.533223 0.365075 -1.514775
v 0.707359 0.430281 -1.487681
v 0.533223 0.430281 -1.487681
v 0.678847 0.442456 -1.508836
v 0.561735 0.442456 -1.508836
v 0.678846 0.086707 -1.461853
v 0.561735 0.086707 -1.461853
v 0.715904 0.177639 -1.456894
v 0.715904 0.234297 -1.480437
v 0.700448 0.295100 -1.455587
v 0.533223 0.295100 -1.455587
v 0.715904 0.355902 -1.480437
v 0.715904 0.412561 -1.456894
v 0.678846 0.503493 -1.461853
v 0.561735 0.503493 -1.461853
v 0.707359 0.103926 -1.444581
v 0.533223 0.103926 -1.444581
v 0.715904 0.128984 -1.419443
v 0.699065 0.194440 -1.427702
v 0.533223 0.194027 -1.428419
v 0.699065 0.242994 -1.447877
v 0.533223 0.242781 -1.448677
v 0.693536 0.295100 -1.451445
v 0.699065 0.347205 -1.447877
v 0.533223 0.347419 -1.448677
v 0.699460 0.395878 -1.427907
v 0.533223 0.396173 -1.428419
v 0.715904 0.461215 -1.419443
v 0.707359 0.486274 -1.444581
v 0.533223 0.486274 -1.444581
v 0.678846 0.039872 -1.400625
v 0.561735 0.039872 -1.400625
v 0.707359 0.060960 -1.388411
v 0.533223 0.060960 -1.388411
v 0.699065 0.152745 -1.395608
v 0.533223 0.152161 -1.396194
v 0.693536 0.435119 -1.393265
v 0.700448 0.438039 -1.396194
v 0.533223 0.438039 -1.396194
v 0.707359 0.529240 -1.388411
v 0.533223 0.529240 -1.388411
v 0.678846 0.550328 -1.400625
v 0.561735 0.550328 -1.400625
v 0.702656 0.115981 -1.356545
v 0.533223 0.120036 -1.354196
v 0.693536 0.123612 -1.352125
v 0.699065 0.469448 -1.353782
v 0.533223 0.470164 -1.354196
v 0.715904 0.498549 -1.370636
v 0.678846 0.010430 -1.329322
v 0.561735 0.010430 -1.329322
v 0.707359 0.033951 -1.323000
v 0.533223 0.033951 -1.323000
v 0.715904 0.068182 -1.313799
v 0.715904 0.522018 -1.313799
v 0.707359 0.556249 -1.323000
v 0.533223 0.556249 -1.323000
v 0.678846 0.579770 -1.329322
v 0.561735 0.579770 -1.329322
v 0.699065 0.100639 -1.305074
v 0.533223 0.099842 -1.305289
v 0.699065 0.489560 -1.305074
v 0.533223 0.490358 -1.305289
v 0.678846 0.000388 -1.252805
v 0.561735 0.000388 -1.252805
v 0.707359 0.024739 -1.252805
v 0.533223 0.024739 -1.252805
v 0.715904 0.060177 -1.252805
v 0.699065 0.093780 -1.252805
v 0.533223 0.092954 -1.252805
v 0.699065 0.496420 -1.252805
v 0.533223 0.497246 -1.252805
v 0.715904 0.530023 -1.252805
v 0.707359 0.565461 -1.252805
v 0.533223 0.565461 -1.252805
v 0.678846 0.589812 -1.252805
v 0.561735 0.589812 -1.252805
v 0.678846 0.010430 -1.176288
v 0.561735 0.010430 -1.176288
v 0.707359 0.033951 -1.182610
v 0.533223 0.033951 -1.182610
v 0.715904 0.068182 -1.191811
v 0.699065 0.100639 -1.200535
v 0.533223 0.099842 -1.200321
v 0.699065 0.489560 -1.200535
v 0.533223 0.490358 -1.200321
v 0.715904 0.522018 -1.191811
v 0.707359 0.556249 -1.182610
v 0.533223 0.556249 -1.182610
v 0.678846 0.579770 -1.176288
v 0.561735 0.579770 -1.176288
v 0.700448 0.120036 -1.151414
v 0.533223 0.120036 -1.151414
v 0.693536 0.123612 -1.153485
v 0.699460 0.469653 -1.151710
v 0.533223 0.470164 -1.151414
v 0.678846 0.039872 -1.104985
v 0.561735 0.039872 -1.104985
v 0.707359 0.060960 -1.117199
v 0.533223 0.060960 -1.117199
v 0.715904 0.091651 -1.134974
v 0.699065 0.152745 -1.110002
v 0.533223 0.152161 -1.109416
v 0.693536 0.435119 -1.112345
v 0.700448 0.438039 -1.109416
v 0.533223 0.438039 -1.109416
v 0.715904 0.498549 -1.134974
v 0.707359 0.529240 -1.117199
v 0.533223 0.529240 -1.117199
v 0.678846 0.550328 -1.104985
v 0.561735 0.550328 -1.104985
v 0.715904 0.128984 -1.086167
v 0.699460 0.194322 -1.077703
v 0.533223 0.194027 -1.077190
v 0.699065 0.395760 -1.077908
v 0.533223 0.396173 -1.077190
v 0.715904 0.461215 -1.086167
v 0.678846 0.086707 -1.043756
v 0.561735 0.086707 -1.043756
v 0.707359 0.103926 -1.061029
v 0.533223 0.103926 -1.061029
v 0.715904 0.177639 -1.048716
v 0.699065 0.242994 -1.057733
v 0.533223 0.242781 -1.056932
v 0.699065 0.295100 -1.050851
v 0.533223 0.295100 -1.050023
v 0.699065 0.347205 -1.057733
v 0.533223 0.347419 -1.056932
v 0.715904 0.412561 -1.048716
v 0.707359 0.486274 -1.061029
v 0.678846 0.503493 -1.043756
v 0.561735 0.503493 -1.043756
v 0.533223 0.486274 -1.061029
v 0.707359 0.159919 -1.017928
v 0.533223 0.159919 -1.017928
v 0.715904 0.234297 -1.025173
v 0.715904 0.295100 -1.017143
v 0.715904 0.355902 -1.025173
v 0.707359 0.430281 -1.017928
v 0.533223 0.430281 -1.017928
v 0.678846 0.147744 -0.996774
v 0.561735 0.147744 -0.996774
v 0.707359 0.225125 -0.990834
v 0.678846 0.218823 -0.967239
v 0.561735 0.218823 -0.967239
v 0.533223 0.225125 -0.990834
v 0.707359 0.295100 -0.981593
v 0.533223 0.295100 -0.981593
v 0.707359 0.365075 -0.990834
v 0.533223 0.365075 -0.990834
v 0.678847 0.371377 -0.967239
v 0.561735 0.371377 -0.967239
v 0.678847 0.442456 -0.996774
v 0.561735 0.442456 -0.996774
v 0.678846 0.295100 -0.957166
v 0.561735 0.295100 -0.957166
v -0.561735 0.218823 -1.538370
v -0.678846 0.218823 -1.538370
v -0.533223 0.295100 -1.524017
v -0.561735 0.295100 -1.548444
v -0.678846 0.295100 -1.548444
v -0.707359 0.295100 -1.524017
v -0.561735 0.371377 -1.538370
v -0.678846 0.371377 -1.538370
v -0.561735 0.147744 -1.508836
v -0.678846 0.147744 -1.508836
v -0.533223 0.159919 -1.487681
v -0.707359 0.159919 -1.487681
v -0.533223 0.225125 -1.514775
v -0.707359 0.225125 -1.514775
v -0.715904 0.295100 -1.488467
v -0.533223 0.365075 -1.514775
v -0.707359 0.365075 -1.514775
v -0.533223 0.430281 -1.487681
v -0.707359 0.430281 -1.487681
v -0.561735 0.442456 -1.508836
v -0.678846 0.442456 -1.508836
v -0.561735 0.086707 -1.461853
v -0.678846 0.086707 -1.461853
v -0.715904 0.177639 -1.456894
v -0.715904 0.234297 -1.480437
v -0.533223 0.295100 -1.455587
v -0.700448 0.295100 -1.455587
v -0.715904 0.355902 -1.480437
v -0.715904 0.412561 -1.456894
v -0.561735 0.503493 -1.461853
v -0.678846 0.503493 -1.461853
v -0.533223 0.103926 -1.444581
v -0.707359 0.103926 -1.444581
v -0.715904 0.128985 -1.419443
v -0.533223 0.194027 -1.428419
v -0.699065 0.194440 -1.427702
v -0.533223 0.242781 -1.448677
v -0.699065 0.242994 -1.447877
v -0.693536 0.295100 -1.451445
v -0.533223 0.347419 -1.448677
v -0.699065 0.347205 -1.447877
v -0.533223 0.396173 -1.428419
v -0.699460 0.395878 -1.427907
v -0.715904 0.461215 -1.419443
v -0.533223 0.486274 -1.444581
v -0.707359 0.486274 -1.444581
v -0.561735 0.039872 -1.400625
v -0.678846 0.039872 -1.400625
v -0.533223 0.060960 -1.388411
v -0.707359 0.060960 -1.388411
v -0.533223 0.152161 -1.396194
v -0.699065 0.152745 -1.395608
v -0.693536 0.435119 -1.393265
v -0.533223 0.438039 -1.396194
v -0.700448 0.438039 -1.396194
v -0.533223 0.529240 -1.388411
v -0.707359 0.529240 -1.388411
v -0.561735 0.550328 -1.400625
v -0.678846 0.550328 -1.400625
v -0.533223 0.120036 -1.354196
v -0.702656 0.115981 -1.356545
v -0.693536 0.123612 -1.352125
v -0.533223 0.470164 -1.354196
v -0.699065 0.469448 -1.353782
v -0.715904 0.498549 -1.370636
v -0.561735 0.010430 -1.329322
v -0.678846 0.010430 -1.329322
v -0.533223 0.033951 -1.323000
v -0.707359 0.033951 -1.323000
v -0.715904 0.068182 -1.313799
v -0.715904 0.522018 -1.313799
v -0.533223 0.556249 -1.323000
v -0.707359 0.556249 -1.323000
v -0.561735 0.579770 -1.329322
v -0.678846 0.579770 -1.329322
v -0.533223 0.099842 -1.305289
v -0.699065 0.100639 -1.305074
v -0.533223 0.490358 -1.305289
v -0.699065 0.489561 -1.305074
v -0.561735 0.000388 -1.252805
v -0.678846 0.000388 -1.252805
v -0.533223 0.024739 -1.252805
v -0.707359 0.024739 -1.252805
v -0.715904 0.060177 -1.252805
v -0.533223 0.092954 -1.252805
v -0.699065 0.093780 -1.252805
v -0.533223 0.497246 -1.252805
v -0.699065 0.496420 -1.252805
v -0.715904 0.530023 -1.252805
v -0.533223 0.565461 -1.252805
v -0.707359 0.565461 -1.252805
v -0.561735 0.589812 -1.252805
v -0.678846 0.589812 -1.252805
v -0.561735 0.010430 -1.176288
v -0.678846 0.010430 -1.176288
v -0.533223 0.033951 -1.182610
v -0.707359 0.033951 -1.182610
v -0.715904 0.068182 -1.191811
v -0.533223 0.099842 -1.200321
v -0.699065 0.100639 -1.200535
v -0.533223 0.490358 -1.200321
v -0.699065 0.489561 -1.200535
v -0.715904 0.522018 -1.191811
v -0.533223 0.556249 -1.182610
v -0.707359 0.556249 -1.182610
v -0.561735 0.579770 -1.176288
v -0.678846 0.579770 -1.176288
v -0.533223 0.120036 -1.151414
v -0.700448 0.120036 -1.151414
v -0.693536 0.123612 -1.153485
v -0.533223 0.470164 -1.151414
v -0.699460 0.469653 -1.151710
v -0.561735 0.039872 -1.104985
v -0.678846 0.039872 -1.104985
v -0.533223 0.060960 -1.117199
v -0.707359 0.060960 -1.117199
v -0.715904 0.091651 -1.134974
v -0.533223 0.152161 -1.109416
v -0.699065 0.152745 -1.110002
v -0.693536 0.435119 -1.112345
v -0.533223 0.438039 -1.109416
v -0.700448 0.438039 -1.109416
v -0.715904 0.498549 -1.134974
v -0.533223 0.529240 -1.117199
v -0.707359 0.529240 -1.117199
v -0.561735 0.550328 -1.104985
v -0.678846 0.550328 -1.104985
v -0.715904 0.128985 -1.086167
v -0.533223 0.194027 -1.077190
v -0.699460 0.194322 -1.077703
v -0.533223 0.396173 -1.077190
v -0.699065 0.395760 -1.077908
v -0.715904 0.461215 -1.086167
v -0.561735 0.086707 -1.043756
v -0.678846 0.086707 -1.043756
v -0.533223 0.103926 -1.061029
v -0.707359 0.103926 -1.061029
v -0.715904 0.177639 -1.048716
v -0.533223 0.242781 -1.056932
v -0.699065 0.242994 -1.057733
v -0.533223 0.295100 -1.050023
v -0.699065 0.295100 -1.050851
v -0.533223 0.347419 -1.056932
v -0.699065 0.347205 -1.057733
v -0.715904 0.412561 -1.048716
v -0.533223 0.486274 -1.061029
v -0.561735 0.503493 -1.043756
v -0.678846 0.503493 -1.043756
v -0.707359 0.486274 -1.061029
v -0.533223 0.159919 -1.017928
v -0.707359 0.159919 -1.017928
v -0.715904 0.234297 -1.025173
v -0.715904 0.295100 -1.017143
v -0.715904 0.355902 -1.025173
v -0.533223 0.430281 -1.017928
v -0.707359 0.430281 -1.017928
v -0.561735 0.147744 -0.996774
v -0.678846 0.147744 -0.996774
v -0.533223 0.225125 -0.990834
v -0.561735 0.218823 -0.967239
v -0.678846 0.218823 -0.967239
v -0.707359 0.225125 -0.990834
v -0.533223 0.295100 -0.981593
v -0.707359 0.295100 -0.981593
v -0.533223 0.365075 -0.990834
v -0.707359 0.365075 -0.990834
v -0.561735 0.371377 -0.967239
v -0.678846 0.371377 -0.967239
v -0.561735 0.442456 -0.996774
v -0.678846 0.442456 -0.996774
v -0.561735 0.295100 -0.957166
v -0.678846 0.295100 -0.957166
f 104 102 116
f 104 116 127
f 127 116 140
f 127 140 152
f 152 140 171
f 152 171 170
f 170 171 178
f 170 178 188
f 188 178 186
f 188 186 194
f 194 186 184
f 194 184 192
f 192 184 182
f 192 182 190
f 190 182 173
f 190 173 180
f 180 173 156
f 180 156 154
f 154 156 129
f 154 129 142
f 142 129 106
f 142 106 118
f 118 106 92
f 118 92 90
f 90 92 74
f 90 74 72
f 72 74 61
f 72 61 50
f 50 61 29
f 50 29 18
f 18 29 20
f 18 20 8
f 8 20 10
f 8 10 2
f 2 10 12
f 2 12 4
f 4 12 14
f 4 14 6
f 6 14 25
f 6 25 16
f 16 25 48
f 16 48 27
f 27 48 70
f 27 70 59
f 59 70 78
f 59 78 80
f 80 78 102
f 80 102 104
f 77 79 103
f 77 103 101
f 79 80 104
f 79 104 103
f 69 58 79
f 69 79 77
f 58 59 80
f 58 80 79
f 47 26 58
f 47 58 69
f 26 27 59
f 26 59 58
f 24 15 26
f 24 26 47
f 15 16 27
f 15 27 26
f 13 5 15
f 13 15 24
f 5 6 16
f 5 16 15
f 11 3 5
f 11 5 13
f 3 4 6
f 3 6 5
f 9 1 3
f 9 3 11
f 1 2 4
f 1 4 3
f 19 7 1
f 19 1 9
f 7 8 2
f 7 2 1
f 28 17 7
f 28 7 19
f 17 18 8
f 17 8 7
f 60 49 17
f 60 17 28
f 49 50 18
f 49 18 17
f 73 71 49
f 73 49 60
f 71 72 50
f 71 50 49
f 91 89 71
f 91 71 73
f 89 90 72
f 89 72 71
f 105 117 89
f 105 89 91
f 117 118 90
f 117 90 89
f 128 141 117
f 128 117 105
f 141 142 118
f 141 118 117
f 155 153 141
f 155 141 128
f 153 154 142
f 153 142 141
f 172 179 153
f 172 153 155
f 179 180 154
f 179 154 153
f 181 189 179
f 181 179 172
f 189 190 180
f 189 180 179
f 183 191 189
f 183 189 181
f 191 192 190
f 191 190 189
f 185 193 191
f 185 191 183
f 193 194 192
f 193 192 191
f 177 187 193
f 177 193 185
f 187 188 194
f 187 194 193
f 168 169 187
f 168 187 177
f 169 170 188
f 169 188 187
f 139 151 169
f 139 169 168
f 151 152 170
f 151 170 169
f 115 126 151
f 115 151 139
f 126 127 152
f 126 152 151
f 101 103 126
f 101 126 115
f 103 104 127
f 103 127 126
f 114 100 101
f 114 101 115
f 99 113 116
f 99 116 102
f 138 114 115
f 138 115 139
f 113 125 140
f 113 140 116
f 150 138 139
f 150 139 168
f 125 137 171
f 125 171 140
f 167 150 168
f 167 168 177
f 137 149 178
f 137 178 171
f 176 167 177
f 176 177 185
f 149 166 186
f 149 186 178
f 175 176 185
f 175 185 183
f 166 163 184
f 166 184 186
f 174 175 183
f 174 183 181
f 163 160 182
f 163 182 184
f 157 174 181
f 157 181 172
f 160 146 173
f 160 173 182
f 143 157 172
f 143 172 155
f 146 133 156
f 146 156 173
f 130 143 155
f 130 155 128
f 133 121 129
f 133 129 156
f 107 130 128
f 107 128 105
f 121 110 106
f 121 106 129
f 93 107 105
f 93 105 91
f 110 96 92
f 110 92 106
f 81 93 91
f 81 91 73
f 96 84 74
f 96 74 92
f 62 81 73
f 62 73 60
f 84 64 61
f 84 61 74
f 51 62 60
f 51 60 28
f 64 53 29
f 64 29 61
f 30 51 28
f 30 28 19
f 53 33 20
f 53 20 29
f 21 30 19
f 21 19 9
f 33 36 10
f 33 10 20
f 22 21 9
f 22 9 11
f 36 39 12
f 36 12 10
f 23 22 11
f 23 11 13
f 39 42 14
f 39 14 12
f 46 23 13
f 46 13 24
f 42 45 25
f 42 25 14
f 55 46 24
f 55 24 47
f 45 57 48
f 45 48 25
f 68 55 47
f 68 47 69
f 57 67 70
f 57 70 48
f 88 68 69
f 88 69 77
f 67 87 78
f 67 78 70
f 100 88 77
f 100 77 101
f 87 99 102
f 87 102 78
f 62 51 52
f 62 52 63
f 158 144 145
f 158 145 159
f 97 111 112
f 97 112 98
f 43 55 56
f 43 56 44
f 82 62 63
f 82 63 83
f 161 158 159
f 161 159 162
f 40 43 44
f 40 44 41
f 94 82 83
f 94 83 95
f 164 161 162
f 164 162 165
f 37 40 41
f 37 41 38
f 108 94 95
f 108 95 109
f 147 164 165
f 147 165 148
f 134 124 136
f 148 134 136
f 122 132 120
f 109 122 120
f 75 83 63
f 52 75 63
f 54 44 56
f 76 54 56
f 76 56 66
f 86 76 66
f 55 65 66
f 55 66 56
f 111 123 124
f 111 124 112
f 144 131 132
f 144 132 145
f 51 31 32
f 51 32 52
f 65 85 86
f 65 86 66
f 123 135 136
f 123 136 124
f 131 119 120
f 131 120 132
f 31 34 35
f 31 35 32
f 85 97 98
f 85 98 86
f 135 147 148
f 135 148 136
f 119 108 109
f 119 109 120
f 34 37 38
f 34 38 35
f 97 85 88
f 97 88 100
f 85 65 68
f 85 68 88
f 65 55 68
f 55 43 46
f 43 40 23
f 43 23 46
f 40 37 22
f 40 22 23
f 37 34 21
f 37 21 22
f 34 31 30
f 34 30 21
f 31 51 30
f 62 82 81
f 82 94 93
f 82 93 81
f 94 108 107
f 94 107 93
f 108 119 130
f 108 130 107
f 119 131 143
f 119 143 130
f 131 144 157
f 131 157 143
f 144 158 174
f 144 174 157
f 158 161 175
f 158 175 174
f 161 164 176
f 161 176 175
f 164 147 167
f 164 167 176
f 147 135 150
f 147 150 167
f 135 123 138
f 135 138 150
f 123 111 114
f 123 114 138
f 111 97 100
f 111 100 114
f 248 250 238
f 270 260 250
f 270 250 248
f 239 238 250
f 239 250 251
f 251 250 260
f 251 260 261
f 251 240 239
f 261 262 251
f 262 264 242
f 262 242 251
f 251 242 219
f 251 219 240
f 239 240 217
f 239 217 236
f 240 219 208
f 240 208 217
f 236 217 216
f 236 216 233
f 217 208 206
f 217 206 216
f 233 216 215
f 233 215 230
f 216 206 204
f 216 204 215
f 230 215 224
f 230 224 227
f 215 204 214
f 215 214 224
f 227 224 247
f 224 214 223
f 224 223 247
f 247 223 255
f 247 255 258
f 258 275 278
f 258 255 268
f 258 268 275
f 278 275 287
f 278 287 290
f 275 268 286
f 275 286 287
f 290 287 301
f 290 301 304
f 287 286 300
f 287 300 301
f 304 301 324
f 304 324 315
f 301 300 323
f 301 323 324
f 315 324 337
f 315 337 327
f 324 323 350
f 324 350 337
f 327 337 351
f 327 351 340
f 337 350 367
f 337 367 351
f 340 351 368
f 340 368 354
f 351 367 376
f 351 376 368
f 354 368 369
f 354 369 357
f 368 376 378
f 368 378 369
f 357 369 370
f 357 370 360
f 369 378 380
f 369 380 370
f 360 370 361
f 360 361 343
f 370 380 372
f 370 372 361
f 343 361 344
f 343 344 331
f 361 372 365
f 361 365 344
f 331 344 332
f 331 332 319
f 344 365 334
f 344 334 332
f 319 332 308
f 319 308 307
f 332 334 310
f 332 310 308
f 307 308 294
f 307 294 293
f 308 310 296
f 308 296 294
f 294 296 272
f 294 272 282
f 293 294 282
f 293 282 281
f 281 282 262
f 281 262 261
f 282 272 264
f 282 264 262
f 264 272 274
f 264 274 253
f 272 296 298
f 272 298 274
f 253 274 273
f 253 273 252
f 274 298 297
f 274 297 273
f 242 264 253
f 242 253 221
f 221 253 252
f 221 252 220
f 219 242 221
f 219 221 210
f 210 221 220
f 210 220 209
f 208 219 210
f 208 210 200
f 200 210 209
f 200 209 199
f 206 208 200
f 206 200 198
f 198 200 199
f 198 199 197
f 204 206 198
f 204 198 196
f 196 198 197
f 196 197 195
f 214 204 196
f 214 196 202
f 202 196 195
f 202 195 201
f 223 214 202
f 223 202 212
f 212 202 201
f 212 201 211
f 255 223 212
f 255 212 244
f 244 212 211
f 244 211 243
f 268 255 244
f 268 244 266
f 266 244 243
f 266 243 265
f 286 268 266
f 286 266 284
f 284 266 265
f 284 265 283
f 300 286 284
f 300 284 312
f 312 284 283
f 312 283 311
f 323 300 312
f 323 312 336
f 336 312 311
f 336 311 335
f 350 323 336
f 350 336 348
f 348 336 335
f 348 335 347
f 367 350 348
f 367 348 374
f 374 348 347
f 374 347 373
f 376 367 374
f 376 374 384
f 384 374 373
f 384 373 383
f 378 376 384
f 378 384 386
f 386 384 383
f 386 383 385
f 380 378 386
f 380 386 388
f 388 386 385
f 388 385 387
f 372 380 388
f 372 388 382
f 382 388 387
f 382 387 381
f 365 372 382
f 365 382 364
f 364 382 381
f 364 381 363
f 334 365 364
f 334 364 346
f 346 364 363
f 346 363 345
f 310 334 346
f 310 346 321
f 321 346 345
f 321 345 320
f 296 310 321
f 296 321 298
f 298 321 320
f 298 320 297
f 320 345 333
f 320 333 309
f 297 320 309
f 297 309 295
f 273 297 295
f 273 295 271
f 291 295 309
f 291 309 305
f 279 271 295
f 279 295 291
f 249 241 263
f 249 263 259
f 259 263 271
f 259 271 279
f 220 252 263
f 220 263 241
f 252 273 271
f 252 271 263
f 237 218 241
f 237 241 249
f 209 220 241
f 209 241 218
f 234 207 218
f 234 218 237
f 199 209 218
f 199 218 207
f 228 203 205
f 228 205 231
f 231 205 207
f 231 207 234
f 195 197 205
f 195 205 203
f 197 199 207
f 197 207 205
f 225 213 203
f 225 203 228
f 201 195 203
f 201 203 213
f 245 222 213
f 245 213 225
f 211 201 213
f 211 213 222
f 276 267 254
f 276 254 256
f 256 254 222
f 256 222 245
f 265 243 254
f 265 254 267
f 243 211 222
f 243 222 254
f 288 285 267
f 288 267 276
f 283 265 267
f 283 267 285
f 302 299 285
f 302 285 288
f 311 283 285
f 311 285 299
f 325 349 322
f 325 322 313
f 313 322 299
f 313 299 302
f 347 335 322
f 347 322 349
f 335 311 299
f 335 299 322
f 338 366 349
f 338 349 325
f 373 347 349
f 373 349 366
f 352 375 366
f 352 366 338
f 383 373 366
f 383 366 375
f 358 379 377
f 358 377 355
f 355 377 375
f 355 375 352
f 387 385 377
f 387 377 379
f 385 383 375
f 385 375 377
f 341 371 379
f 341 379 358
f 381 387 379
f 381 379 371
f 329 362 371
f 329 371 341
f 363 381 371
f 363 371 362
f 305 309 333
f 305 333 317
f 317 333 362
f 317 362 329
f 345 363 362
f 345 362 333
f 261 260 280
f 261 280 281
f 281 280 292
f 281 292 293
f 280 260 270
f 360 359 356
f 360 356 357
f 357 356 353
f 357 353 354
f 354 353 339
f 354 339 340
f 340 339 326
f 340 326 327
f 316 314 326
f 303 314 316
f 327 326 314
f 327 314 315
f 315 314 303
f 315 303 304
f 304 303 289
f 304 289 290
f 290 289 277
f 290 277 278
f 269 257 277
f 247 246 226
f 247 226 227
f 227 226 229
f 227 229 230
f 230 229 232
f 230 232 233
f 233 232 235
f 233 235 236
f 236 235 238
f 236 238 239
f 246 257 269
f 258 257 246
f 258 246 247
f 278 277 257
f 278 257 258
f 343 342 359
f 343 359 360
f 331 330 342
f 331 342 343
f 342 330 328
f 328 330 318
f 319 318 330
f 319 330 331
f 307 306 318
f 307 318 319
f 293 292 306
f 293 306 307
f 441 430 442
f 451 441 442
f 442 430 417
f 442 417 432
f 451 442 432
f 451 432 453
f 453 432 433
f 453 433 444
f 432 417 406
f 432 406 433
f 430 428 416
f 430 416 417
f 417 416 404
f 417 404 406
f 428 414 403
f 428 403 416
f 416 403 391
f 416 391 404
f 414 425 413
f 414 413 403
f 403 413 401
f 403 401 391
f 425 423 412
f 425 412 413
f 413 412 399
f 413 399 401
f 423 439 422
f 423 422 412
f 412 422 420
f 412 420 399
f 439 448 422
f 422 448 437
f 422 437 420
f 448 464 458
f 448 458 456
f 448 456 437
f 464 473 472
f 464 472 458
f 458 472 470
f 458 470 456
f 473 487 486
f 473 486 472
f 472 486 484
f 472 484 470
f 487 496 505
f 487 505 486
f 486 505 503
f 486 503 484
f 496 506 516
f 496 516 505
f 505 516 524
f 505 524 503
f 506 517 526
f 506 526 516
f 516 526 538
f 516 538 524
f 517 527 540
f 517 540 526
f 526 540 547
f 526 547 538
f 527 529 541
f 527 541 540
f 540 541 551
f 540 551 547
f 529 531 542
f 529 542 541
f 541 542 553
f 541 553 551
f 531 519 533
f 531 533 542
f 542 533 543
f 542 543 553
f 519 509 521
f 519 521 533
f 533 521 534
f 533 534 543
f 509 499 511
f 509 511 521
f 521 511 512
f 521 512 534
f 499 489 491
f 499 491 511
f 511 491 492
f 511 492 512
f 489 475 477
f 489 477 491
f 491 477 478
f 491 478 492
f 477 459 460
f 477 460 478
f 475 466 459
f 475 459 477
f 466 451 453
f 466 453 459
f 459 453 444
f 459 444 460
f 444 446 462
f 444 462 460
f 460 462 480
f 460 480 478
f 446 447 463
f 446 463 462
f 462 463 481
f 462 481 480
f 433 418 446
f 433 446 444
f 418 419 447
f 418 447 446
f 406 408 418
f 406 418 433
f 408 409 419
f 408 419 418
f 404 395 408
f 404 408 406
f 395 396 409
f 395 409 408
f 391 392 395
f 391 395 404
f 392 393 396
f 392 396 395
f 401 389 392
f 401 392 391
f 389 390 393
f 389 393 392
f 399 397 389
f 399 389 401
f 397 398 390
f 397 390 389
f 420 410 397
f 420 397 399
f 410 411 398
f 410 398 397
f 437 435 410
f 437 410 420
f 435 436 411
f 435 411 410
f 456 454 435
f 456 435 437
f 454 455 436
f 454 436 435
f 470 468 454
f 470 454 456
f 468 469 455
f 468 455 454
f 484 482 468
f 484 468 470
f 482 483 469
f 482 469 468
f 503 501 482
f 503 482 484
f 501 502 483
f 501 483 482
f 524 522 501
f 524 501 503
f 522 523 502
f 522 502 501
f 538 545 522
f 538 522 524
f 545 546 523
f 545 523 522
f 547 548 545
f 547 545 538
f 548 549 546
f 548 546 545
f 551 559 548
f 551 548 547
f 559 560 549
f 559 549 548
f 553 555 559
f 553 559 551
f 555 556 560
f 555 560 559
f 543 557 555
f 543 555 553
f 557 558 556
f 557 556 555
f 534 535 557
f 534 557 543
f 535 536 558
f 535 558 557
f 512 514 535
f 512 535 534
f 514 515 536
f 514 536 535
f 492 494 514
f 492 514 512
f 494 495 515
f 494 515 514
f 478 480 494
f 478 494 492
f 480 481 495
f 480 495 494
f 495 493 513
f 495 513 515
f 481 479 493
f 481 493 495
f 463 461 479
f 463 479 481
f 476 490 493
f 476 493 479
f 467 476 479
f 467 479 461
f 443 452 445
f 443 445 434
f 452 467 461
f 452 461 445
f 419 434 445
f 419 445 447
f 447 445 461
f 447 461 463
f 431 443 434
f 431 434 407
f 409 407 434
f 409 434 419
f 429 431 407
f 429 407 405
f 396 405 407
f 396 407 409
f 426 415 394
f 426 394 402
f 415 429 405
f 415 405 394
f 390 402 394
f 390 394 393
f 393 394 405
f 393 405 396
f 424 426 402
f 424 402 400
f 398 400 402
f 398 402 390
f 440 424 400
f 440 400 421
f 411 421 400
f 411 400 398
f 465 449 438
f 465 438 457
f 449 440 421
f 449 421 438
f 455 457 438
f 455 438 436
f 436 438 421
f 436 421 411
f 474 465 457
f 474 457 471
f 469 471 457
f 469 457 455
f 488 474 471
f 488 471 485
f 483 485 471
f 483 471 469
f 507 497 504
f 507 504 525
f 497 488 485
f 497 485 504
f 523 525 504
f 523 504 502
f 502 504 485
f 502 485 483
f 518 507 525
f 518 525 539
f 546 539 525
f 546 525 523
f 528 518 539
f 528 539 550
f 549 550 539
f 549 539 546
f 532 530 552
f 532 552 554
f 530 528 550
f 530 550 552
f 556 554 552
f 556 552 560
f 560 552 550
f 560 550 549
f 520 532 554
f 520 554 544
f 558 544 554
f 558 554 556
f 510 520 544
f 510 544 537
f 536 537 544
f 536 544 558
f 490 500 513
f 490 513 493
f 500 510 537
f 500 537 513
f 515 513 537
f 515 537 536
f 498 506 496
f 487 498 496
f 450 464 448
f 427 425 414
f 428 427 414
f 439 450 448
f 519 508 509
f 508 499 509
f 613 615 603
f 624 615 613
f 615 604 589
f 615 589 603
f 624 625 604
f 624 604 615
f 625 617 606
f 625 606 604
f 604 606 579
f 604 579 589
f 603 589 588
f 603 588 601
f 589 579 577
f 589 577 588
f 601 588 575
f 601 575 587
f 588 577 566
f 588 566 575
f 587 575 585
f 587 585 598
f 575 566 574
f 575 574 585
f 598 585 584
f 598 584 596
f 585 574 572
f 585 572 584
f 596 584 594
f 596 594 612
f 584 572 593
f 584 593 594
f 612 594 621
f 594 593 610
f 594 610 621
f 621 630 637
f 621 610 629
f 621 629 630
f 637 630 644
f 637 644 646
f 630 629 643
f 630 643 644
f 646 644 658
f 646 658 660
f 644 643 657
f 644 657 658
f 660 658 677
f 660 677 669
f 658 657 676
f 658 676 677
f 669 677 688
f 669 688 679
f 677 676 697
f 677 697 688
f 679 688 698
f 679 698 690
f 688 697 711
f 688 711 698
f 690 698 712
f 690 712 700
f 698 711 722
f 698 722 712
f 700 712 713
f 700 713 702
f 712 722 724
f 712 724 713
f 702 713 714
f 702 714 704
f 713 724 726
f 713 726 714
f 704 714 705
f 704 705 692
f 714 726 716
f 714 716 705
f 692 705 693
f 692 693 682
f 705 716 709
f 705 709 693
f 682 693 683
f 682 683 672
f 693 709 685
f 693 685 683
f 672 683 663
f 672 663 662
f 683 685 665
f 683 665 663
f 662 663 649
f 662 649 648
f 663 665 651
f 663 651 649
f 649 651 633
f 649 633 631
f 648 649 631
f 648 631 639
f 639 631 625
f 639 625 624
f 631 633 617
f 631 617 625
f 617 633 635
f 617 635 619
f 633 651 653
f 633 653 635
f 619 635 634
f 619 634 618
f 635 653 652
f 635 652 634
f 606 617 619
f 606 619 591
f 591 619 618
f 591 618 590
f 579 606 591
f 579 591 581
f 581 591 590
f 581 590 580
f 577 579 581
f 577 581 568
f 568 581 580
f 568 580 567
f 566 577 568
f 566 568 565
f 565 568 567
f 565 567 564
f 574 566 565
f 574 565 562
f 562 565 564
f 562 564 561
f 572 574 562
f 572 562 570
f 570 562 561
f 570 561 569
f 593 572 570
f 593 570 583
f 583 570 569
f 583 569 582
f 610 593 583
f 610 583 608
f 608 583 582
f 608 582 607
f 629 610 608
f 629 608 627
f 627 608 607
f 627 607 626
f 643 629 627
f 643 627 641
f 641 627 626
f 641 626 640
f 657 643 641
f 657 641 655
f 655 641 640
f 655 640 654
f 676 657 655
f 676 655 674
f 674 655 654
f 674 654 673
f 697 676 674
f 697 674 695
f 695 674 673
f 695 673 694
f 711 697 695
f 711 695 718
f 718 695 694
f 718 694 717
f 722 711 718
f 722 718 721
f 721 718 717
f 721 717 720
f 724 722 721
f 724 721 732
f 732 721 720
f 732 720 731
f 726 724 732
f 726 732 728
f 728 732 731
f 728 731 727
f 716 726 728
f 716 728 730
f 730 728 727
f 730 727 729
f 709 716 730
f 709 730 708
f 708 730 729
f 708 729 707
f 685 709 708
f 685 708 687
f 687 708 707
f 687 707 686
f 665 685 687
f 665 687 667
f 667 687 686
f 667 686 666
f 651 665 667
f 651 667 653
f 653 667 666
f 653 666 652
f 666 686 684
f 666 684 664
f 652 666 664
f 652 664 650
f 634 652 650
f 634 650 632
f 647 650 664
f 647 664 661
f 638 632 650
f 638 650 647
f 614 605 616
f 614 616 623
f 623 616 632
f 623 632 638
f 590 618 616
f 590 616 605
f 618 634 632
f 618 632 616
f 602 578 605
f 602 605 614
f 580 590 605
f 580 605 578
f 600 576 578
f 600 578 602
f 567 580 578
f 567 578 576
f 597 573 563
f 597 563 586
f 586 563 576
f 586 576 600
f 561 564 563
f 561 563 573
f 564 567 576
f 564 576 563
f 595 571 573
f 595 573 597
f 569 561 573
f 569 573 571
f 611 592 571
f 611 571 595
f 582 569 571
f 582 571 592
f 636 628 609
f 636 609 620
f 620 609 592
f 620 592 611
f 626 607 609
f 626 609 628
f 607 582 592
f 607 592 609
f 645 642 628
f 645 628 636
f 640 626 628
f 640 628 642
f 659 656 642
f 659 642 645
f 654 640 642
f 654 642 656
f 678 696 675
f 678 675 668
f 668 675 656
f 668 656 659
f 694 673 675
f 694 675 696
f 673 654 656
f 673 656 675
f 689 710 696
f 689 696 678
f 717 694 696
f 717 696 710
f 699 719 710
f 699 710 689
f 720 717 710
f 720 710 719
f 703 725 723
f 703 723 701
f 701 723 719
f 701 719 699
f 727 731 723
f 727 723 725
f 731 720 719
f 731 719 723
f 691 715 725
f 691 725 703
f 729 727 725
f 729 725 715
f 681 706 715
f 681 715 691
f 707 729 715
f 707 715 706
f 661 664 684
f 661 684 671
f 671 684 706
f 671 706 681
f 686 707 706
f 686 706 684
f 670 669 679
f 660 669 670
f 622 621 637
f 599 587 598
f 601 587 599
f 612 621 622
f 692 682 680
f 680 682 672
