# Low-poly camping hatchback / wheels_metal
mtllib camping_hatchback.mtl
o CampingHatchback_wheels_metal
usemtl wheels_metal
v 0.727580 0.196091 1.066760
v 0.713758 0.196091 1.066760
v 0.727580 0.246512 1.056885
v 0.708998 0.247400 1.060208
v 0.727580 0.295100 1.050468
v 0.708998 0.295100 1.053908
v 0.727580 0.343688 1.056885
v 0.708998 0.342800 1.060208
v 0.727580 0.394108 1.066760
v 0.713758 0.394108 1.066760
v 0.727580 0.155081 1.098328
v 0.713758 0.155081 1.098328
v 0.727580 0.206380 1.084636
v 0.706618 0.209373 1.089836
v 0.708652 0.256385 1.090529
v 0.710440 0.279306 1.095556
v 0.708652 0.335468 1.090974
v 0.727580 0.383820 1.084636
v 0.706618 0.381575 1.088536
v 0.727580 0.435119 1.098328
v 0.713758 0.435119 1.098328
v 0.727580 0.169630 1.112923
v 0.706618 0.173863 1.117169
v 0.711484 0.212994 1.124200
v 0.717628 0.234159 1.130496
v 0.714722 0.236605 1.126313
v 0.717753 0.279712 1.117034
v 0.714454 0.280981 1.112627
v 0.717879 0.326798 1.119560
v 0.713973 0.330172 1.114883
v 0.717711 0.347680 1.127651
v 0.713282 0.350509 1.117783
v 0.710686 0.399599 1.136388
v 0.727580 0.420569 1.112923
v 0.706618 0.416337 1.117169
v 0.727580 0.132522 1.144628
v 0.708998 0.138084 1.147849
v 0.713383 0.175579 1.170746
v 0.717794 0.216731 1.144587
v 0.714223 0.207332 1.145009
v 0.726894 0.238503 1.164797
v 0.726894 0.282965 1.146322
v 0.706618 0.286150 1.170595
v 0.726894 0.319370 1.147924
v 0.706618 0.312999 1.171777
v 0.726894 0.351697 1.164797
v 0.717794 0.389005 1.160172
v 0.713805 0.390501 1.149364
v 0.712260 0.411595 1.163276
v 0.727580 0.457678 1.144628
v 0.708998 0.454708 1.146348
v 0.727580 0.103830 1.187375
v 0.713758 0.103830 1.187375
v 0.727580 0.123706 1.192718
v 0.707572 0.135654 1.195156
v 0.717794 0.184111 1.187232
v 0.713260 0.172557 1.191070
v 0.726894 0.213890 1.191753
v 0.706618 0.247310 1.190847
v 0.706618 0.329678 1.178708
v 0.706618 0.349496 1.196917
v 0.726894 0.376310 1.191753
v 0.714811 0.397458 1.175518
v 0.717753 0.408465 1.192183
v 0.712704 0.419697 1.194078
v 0.727580 0.466494 1.192718
v 0.706618 0.460712 1.194272
v 0.727580 0.486370 1.187375
v 0.713758 0.486370 1.187375
v 0.727580 0.107371 1.238787
v 0.708998 0.110800 1.238787
v 0.708526 0.141999 1.240281
v 0.717628 0.173097 1.222675
v 0.713746 0.165963 1.240564
v 0.726894 0.202924 1.226614
v 0.706618 0.225943 1.238787
v 0.706618 0.228300 1.220832
v 0.709014 0.276813 1.221035
v 0.709010 0.315562 1.222135
v 0.706618 0.363078 1.229810
v 0.726894 0.387276 1.226614
v 0.717711 0.417335 1.228898
v 0.713729 0.423638 1.223367
v 0.710205 0.441715 1.229328
v 0.727580 0.482829 1.238787
v 0.708998 0.479399 1.238787
v 0.710971 0.154025 1.261136
v 0.717794 0.174592 1.259772
v 0.714448 0.169627 1.260883
v 0.726894 0.204522 1.263134
v 0.706618 0.231754 1.265109
v 0.709010 0.279182 1.259998
v 0.709006 0.314774 1.257712
v 0.706618 0.358446 1.265109
v 0.726894 0.385678 1.263134
v 0.717628 0.415146 1.269809
v 0.714605 0.418431 1.274559
v 0.727580 0.103830 1.290199
v 0.713758 0.103830 1.290199
v 0.727580 0.123706 1.284857
v 0.706618 0.129488 1.283303
v 0.717628 0.187148 1.299921
v 0.714551 0.183308 1.306189
v 0.726894 0.213890 1.285822
v 0.715192 0.196085 1.304411
v 0.726894 0.228792 1.305304
v 0.706618 0.253360 1.293355
v 0.706618 0.286150 1.306980
v 0.706618 0.321339 1.302332
v 0.726894 0.361408 1.305304
v 0.706618 0.344001 1.287842
v 0.723889 0.384725 1.290751
v 0.715471 0.401560 1.288921
v 0.717752 0.408354 1.285212
v 0.712138 0.419343 1.297018
v 0.727580 0.466494 1.284857
v 0.706618 0.460712 1.283303
v 0.727580 0.486370 1.290199
v 0.713758 0.486370 1.290199
v 0.727580 0.132522 1.332947
v 0.708403 0.140865 1.328115
v 0.710720 0.181631 1.325263
v 0.717794 0.201196 1.317404
v 0.714031 0.201487 1.328799
v 0.723889 0.243299 1.328695
v 0.715471 0.245124 1.345582
v 0.726894 0.282965 1.331253
v 0.726894 0.319370 1.329650
v 0.723805 0.346671 1.329195
v 0.715901 0.361296 1.342343
v 0.717794 0.373469 1.332988
v 0.713364 0.386911 1.335509
v 0.706618 0.433216 1.318780
v 0.727580 0.457678 1.332947
v 0.709474 0.455896 1.331915
v 0.727580 0.155081 1.379247
v 0.713758 0.155081 1.379247
v 0.727580 0.169630 1.364652
v 0.706618 0.173863 1.360406
v 0.708652 0.219452 1.371942
v 0.717752 0.248820 1.352397
v 0.713106 0.245845 1.362967
v 0.717628 0.279038 1.361174
v 0.713319 0.296203 1.371925
v 0.717794 0.316017 1.359675
v 0.713498 0.315877 1.368522
v 0.713315 0.362420 1.353547
v 0.709965 0.376052 1.358951
v 0.727580 0.427844 1.371949
v 0.708403 0.421032 1.365116
v 0.727580 0.201235 1.401877
v 0.709474 0.202264 1.400089
v 0.727580 0.249175 1.410721
v 0.706618 0.250724 1.404921
v 0.727580 0.295100 1.416786
v 0.706618 0.295100 1.410781
v 0.710520 0.309139 1.384232
v 0.727580 0.341025 1.410721
v 0.706618 0.339476 1.404921
v 0.727580 0.388964 1.401877
v 0.708998 0.387250 1.398898
v 0.727580 0.243849 1.430659
v 0.713758 0.243849 1.430659
v 0.727580 0.295100 1.437428
v 0.713758 0.295100 1.437428
v 0.727580 0.346350 1.430659
v 0.713758 0.346350 1.430659
v 0.705059 0.293313 1.276872
v 0.706439 0.290985 1.290831
v 0.705561 0.303719 1.285659
v -0.713758 0.196091 1.066760
v -0.727580 0.196091 1.066760
v -0.708998 0.247400 1.060208
v -0.727580 0.246512 1.056885
v -0.708998 0.295100 1.053908
v -0.727580 0.295100 1.050468
v -0.708998 0.342800 1.060208
v -0.727580 0.343688 1.056885
v -0.713758 0.394108 1.066760
v -0.727580 0.394108 1.066760
v -0.713758 0.155081 1.098328
v -0.727580 0.155081 1.098328
v -0.706618 0.209373 1.089836
v -0.727580 0.206380 1.084636
v -0.708652 0.256385 1.090529
v -0.710439 0.279306 1.095556
v -0.708652 0.335468 1.090974
v -0.706618 0.381575 1.088536
v -0.727580 0.383820 1.084636
v -0.713758 0.435119 1.098328
v -0.727580 0.435119 1.098328
v -0.706618 0.173863 1.117169
v -0.727580 0.169630 1.112923
v -0.711484 0.212994 1.124200
v -0.714722 0.236605 1.126313
v -0.717628 0.234159 1.130496
v -0.714454 0.280981 1.112627
v -0.717753 0.279712 1.117034
v -0.713972 0.330172 1.114883
v -0.717878 0.326798 1.119560
v -0.713282 0.350509 1.117783
v -0.717711 0.347680 1.127650
v -0.710686 0.399599 1.136388
v -0.706618 0.416337 1.117169
v -0.727580 0.420569 1.112923
v -0.708998 0.138084 1.147849
v -0.727580 0.132522 1.144628
v -0.713383 0.175579 1.170746
v -0.714223 0.207332 1.145009
v -0.717794 0.216731 1.144587
v -0.726894 0.238503 1.164796
v -0.706618 0.286150 1.170595
v -0.726894 0.282965 1.146322
v -0.706618 0.312999 1.171777
v -0.726894 0.319370 1.147924
v -0.726894 0.351697 1.164796
v -0.713805 0.390501 1.149364
v -0.717794 0.389005 1.160172
v -0.712260 0.411595 1.163276
v -0.708998 0.454708 1.146348
v -0.727580 0.457678 1.144628
v -0.713758 0.103830 1.187376
v -0.727580 0.103830 1.187376
v -0.707572 0.135654 1.195156
v -0.727580 0.123705 1.192718
v -0.713260 0.172557 1.191070
v -0.717794 0.184111 1.187232
v -0.726894 0.213890 1.191753
v -0.706618 0.247310 1.190847
v -0.706618 0.329678 1.178708
v -0.706618 0.349496 1.196916
v -0.714811 0.397458 1.175518
v -0.726894 0.376310 1.191753
v -0.712704 0.419697 1.194078
v -0.717753 0.408465 1.192183
v -0.706617 0.460712 1.194272
v -0.727580 0.466494 1.192718
v -0.713758 0.486370 1.187376
v -0.727580 0.486370 1.187376
v -0.708998 0.110801 1.238787
v -0.727580 0.107371 1.238787
v -0.708526 0.141999 1.240281
v -0.713746 0.165963 1.240564
v -0.717628 0.173097 1.222675
v -0.706618 0.225943 1.238787
v -0.726894 0.202924 1.226614
v -0.706618 0.228300 1.220832
v -0.709014 0.276813 1.221035
v -0.709010 0.315562 1.222135
v -0.706618 0.363078 1.229810
v -0.726894 0.387276 1.226614
v -0.713729 0.423638 1.223367
v -0.717711 0.417335 1.228898
v -0.710205 0.441715 1.229328
v -0.708998 0.479399 1.238787
v -0.727580 0.482829 1.238787
v -0.710971 0.154025 1.261136
v -0.714448 0.169627 1.260883
v -0.717794 0.174592 1.259772
v -0.726894 0.204522 1.263134
v -0.706618 0.231754 1.265109
v -0.709010 0.279182 1.259998
v -0.709006 0.314774 1.257712
v -0.706618 0.358446 1.265109
v -0.726894 0.385678 1.263134
v -0.714605 0.418431 1.274559
v -0.717628 0.415146 1.269809
v -0.713758 0.103830 1.290199
v -0.727580 0.103830 1.290199
v -0.706618 0.129488 1.283303
v -0.727580 0.123705 1.284857
v -0.714551 0.183308 1.306189
v -0.717628 0.187148 1.299920
v -0.715192 0.196085 1.304410
v -0.726894 0.213890 1.285821
v -0.706618 0.253360 1.293355
v -0.726894 0.228792 1.305304
v -0.706618 0.286150 1.306980
v -0.706618 0.321339 1.302332
v -0.706618 0.344001 1.287842
v -0.726894 0.361408 1.305304
v -0.715471 0.401560 1.288920
v -0.723889 0.384725 1.290751
v -0.712138 0.419343 1.297018
v -0.717752 0.408354 1.285212
v -0.706617 0.460712 1.283303
v -0.727580 0.466494 1.284857
v -0.713758 0.486370 1.290199
v -0.727580 0.486370 1.290199
v -0.708403 0.140865 1.328115
v -0.727580 0.132522 1.332947
v -0.710720 0.181631 1.325263
v -0.714031 0.201487 1.328799
v -0.717794 0.201196 1.317404
v -0.715471 0.245124 1.345582
v -0.723889 0.243300 1.328694
v -0.726894 0.282965 1.331253
v -0.726894 0.319370 1.329650
v -0.715901 0.361296 1.342343
v -0.723805 0.346671 1.329195
v -0.713364 0.386911 1.335509
v -0.717794 0.373469 1.332988
v -0.706617 0.433216 1.318779
v -0.709474 0.455896 1.331915
v -0.727580 0.457678 1.332947
v -0.713758 0.155081 1.379247
v -0.727580 0.155081 1.379247
v -0.706618 0.173863 1.360405
v -0.727580 0.169630 1.364651
v -0.708652 0.219453 1.371942
v -0.713106 0.245845 1.362966
v -0.717752 0.248820 1.352397
v -0.713319 0.296203 1.371925
v -0.717628 0.279038 1.361174
v -0.713498 0.315877 1.368522
v -0.717794 0.316017 1.359675
v -0.713315 0.362420 1.353547
v -0.709965 0.376052 1.358951
v -0.708403 0.421032 1.365116
v -0.727580 0.427844 1.371949
v -0.709474 0.202264 1.400089
v -0.727580 0.201235 1.401877
v -0.706618 0.250724 1.404921
v -0.727580 0.249175 1.410721
v -0.706618 0.295100 1.410781
v -0.727580 0.295100 1.416786
v -0.710519 0.309139 1.384232
v -0.706618 0.339476 1.404921
v -0.727580 0.341025 1.410721
v -0.708998 0.387250 1.398897
v -0.727580 0.388964 1.401877
v -0.713758 0.243849 1.430659
v -0.727580 0.243849 1.430659
v -0.713758 0.295100 1.437428
v -0.727580 0.295100 1.437427
v -0.713758 0.346351 1.430659
v -0.727580 0.346351 1.430659
v -0.705979 0.293313 1.276872
v -0.706636 0.291181 1.290637
v -0.705979 0.303638 1.285210
v 0.702751 0.196091 -1.424832
v 0.699395 0.246892 -1.433283
v 0.699395 0.295100 -1.439650
v 0.699395 0.343307 -1.433283
v 0.701830 0.394108 -1.424832
v 0.702751 0.155081 -1.393265
v 0.694781 0.208175 -1.403836
v 0.691246 0.258713 -1.392218
v 0.690825 0.280344 -1.393359
v 0.694061 0.330684 -1.382963
v 0.690027 0.340422 -1.391098
v 0.695380 0.382537 -1.404728
v 0.702751 0.435119 -1.393265
v 0.701830 0.123612 -1.352125
v 0.694781 0.172170 -1.376121
v 0.692281 0.211349 -1.361926
v 0.694974 0.230190 -1.360233
v 0.695541 0.280241 -1.375624
v 0.694346 0.329190 -1.372021
v 0.694208 0.351965 -1.369400
v 0.692602 0.395364 -1.349424
v 0.694781 0.418030 -1.376121
v 0.702751 0.466588 -1.352125
v 0.695380 0.143654 -1.340518
v 0.692747 0.177041 -1.318318
v 0.695115 0.210973 -1.343766
v 0.702617 0.242907 -1.324013
v 0.699914 0.284027 -1.337179
v 0.696534 0.320354 -1.330009
v 0.706672 0.351697 -1.326796
v 0.694980 0.389613 -1.332651
v 0.692352 0.410430 -1.326333
v 0.696878 0.448768 -1.341804
v 0.702751 0.103830 -1.304217
v 0.694020 0.131671 -1.297249
v 0.693968 0.172748 -1.296095
v 0.706672 0.213890 -1.299839
v 0.686396 0.240704 -1.294676
v 0.688699 0.288151 -1.280691
v 0.688594 0.306655 -1.279747
v 0.686396 0.349496 -1.294676
v 0.706672 0.376310 -1.299839
v 0.693438 0.423659 -1.283351
v 0.694781 0.463025 -1.297942
v 0.702751 0.486370 -1.304217
v 0.699395 0.108841 -1.252805
v 0.689805 0.147239 -1.248431
v 0.694229 0.166450 -1.250261
v 0.702617 0.207528 -1.262544
v 0.686396 0.228300 -1.270760
v 0.688843 0.269393 -1.260972
v 0.688876 0.320797 -1.260449
v 0.686396 0.363078 -1.261783
v 0.706672 0.387276 -1.264978
v 0.694380 0.422558 -1.258729
v 0.689984 0.441715 -1.262265
v 0.699395 0.481359 -1.252805
v 0.690067 0.152790 -1.224300
v 0.694817 0.171690 -1.226013
v 0.706672 0.204522 -1.228458
v 0.686396 0.231754 -1.226484
v 0.688784 0.281436 -1.229065
v 0.688777 0.312861 -1.231295
v 0.686396 0.358446 -1.226484
v 0.703026 0.391262 -1.221919
v 0.693572 0.421503 -1.215514
v 0.686396 0.449148 -1.211398
v 0.702751 0.103830 -1.201393
v 0.694781 0.130361 -1.199951
v 0.693413 0.181064 -1.183108
v 0.699046 0.201629 -1.190029
v 0.696534 0.241076 -1.192263
v 0.686396 0.286150 -1.184613
v 0.686396 0.321339 -1.189260
v 0.699914 0.355605 -1.192109
v 0.701442 0.388717 -1.199756
v 0.692566 0.416176 -1.191019
v 0.696878 0.466494 -1.206735
v 0.702751 0.486370 -1.201393
v 0.699395 0.133795 -1.159382
v 0.689864 0.185488 -1.156780
v 0.694194 0.202161 -1.163059
v 0.697656 0.241384 -1.147525
v 0.706672 0.282965 -1.160339
v 0.706672 0.319370 -1.161942
v 0.697170 0.357205 -1.151443
v 0.693440 0.383077 -1.154645
v 0.686396 0.407871 -1.139679
v 0.699129 0.456868 -1.159114
v 0.702751 0.155081 -1.112345
v 0.696877 0.169630 -1.126941
v 0.688430 0.219452 -1.119650
v 0.692618 0.247842 -1.126488
v 0.694329 0.291299 -1.122739
v 0.693409 0.315217 -1.122384
v 0.693810 0.363543 -1.135679
v 0.689984 0.376574 -1.130163
v 0.699395 0.426805 -1.120685
v 0.699129 0.201703 -1.090528
v 0.694781 0.250104 -1.084351
v 0.694781 0.295100 -1.078409
v 0.694781 0.340095 -1.084351
v 0.699395 0.388229 -1.090992
v 0.702751 0.243849 -1.060933
v 0.702751 0.295100 -1.054165
v 0.702751 0.346350 -1.060933
v 0.690357 0.290648 -1.300692
v 0.676557 0.288421 -1.300647
v 0.690357 0.301778 -1.300913
v 0.676557 0.301778 -1.300913
v 0.690357 0.289490 -1.211471
v 0.676557 0.289490 -1.211471
v 0.690357 0.302745 -1.211328
v 0.676557 0.302745 -1.211328
v 0.690357 0.293426 -1.200148
v 0.676557 0.292171 -1.196636
v 0.690357 0.304532 -1.201438
v 0.676557 0.304532 -1.201438
v -0.702751 0.196091 -1.424832
v -0.699395 0.246893 -1.433283
v -0.699395 0.295100 -1.439650
v -0.699395 0.343307 -1.433283
v -0.701830 0.394108 -1.424832
v -0.702751 0.155081 -1.393265
v -0.694781 0.208175 -1.403836
v -0.691246 0.258713 -1.392218
v -0.690825 0.280344 -1.393359
v -0.694061 0.330684 -1.382963
v -0.690027 0.340422 -1.391098
v -0.695380 0.382538 -1.404728
v -0.702751 0.435119 -1.393265
v -0.701830 0.123612 -1.352125
v -0.694781 0.172170 -1.376121
v -0.692281 0.211349 -1.361926
v -0.694974 0.230190 -1.360233
v -0.695541 0.280241 -1.375624
v -0.694346 0.329190 -1.372021
v -0.694208 0.351965 -1.369400
v -0.692602 0.395364 -1.349424
v -0.694781 0.418030 -1.376121
v -0.702751 0.466588 -1.352125
v -0.695380 0.143654 -1.340518
v -0.692748 0.177041 -1.318318
v -0.695115 0.210973 -1.343766
v -0.702617 0.242907 -1.324013
v -0.699914 0.284027 -1.337179
v -0.696534 0.320354 -1.330009
v -0.706672 0.351697 -1.326796
v -0.694980 0.389613 -1.332651
v -0.692352 0.410430 -1.326333
v -0.696877 0.448768 -1.341804
v -0.702751 0.103830 -1.304217
v -0.694020 0.131671 -1.297249
v -0.693969 0.172748 -1.296095
v -0.706673 0.213890 -1.299839
v -0.686396 0.240704 -1.294676
v -0.688699 0.288151 -1.280691
v -0.688594 0.306655 -1.279747
v -0.686396 0.349496 -1.294676
v -0.706672 0.376310 -1.299839
v -0.693438 0.423659 -1.283351
v -0.694781 0.463025 -1.297942
v -0.702751 0.486370 -1.304217
v -0.699395 0.108841 -1.252805
v -0.689805 0.147239 -1.248431
v -0.694229 0.166450 -1.250261
v -0.702617 0.207528 -1.262544
v -0.686396 0.228300 -1.270760
v -0.688843 0.269394 -1.260972
v -0.688876 0.320797 -1.260449
v -0.686396 0.363078 -1.261783
v -0.706672 0.387276 -1.264978
v -0.694380 0.422558 -1.258729
v -0.689984 0.441715 -1.262265
v -0.699395 0.481359 -1.252805
v -0.690067 0.152790 -1.224300
v -0.694817 0.171690 -1.226013
v -0.706673 0.204522 -1.228458
v -0.686396 0.231754 -1.226484
v -0.688784 0.281436 -1.229065
v -0.688777 0.312861 -1.231295
v -0.686396 0.358446 -1.226484
v -0.703026 0.391262 -1.221919
v -0.693572 0.421503 -1.215514
v -0.686396 0.449148 -1.211398
v -0.702751 0.103830 -1.201393
v -0.694781 0.130361 -1.199951
v -0.693413 0.181064 -1.183108
v -0.699046 0.201629 -1.190029
v -0.696534 0.241076 -1.192263
v -0.686396 0.286150 -1.184613
v -0.686396 0.321339 -1.189260
v -0.699914 0.355605 -1.192109
v -0.701442 0.388717 -1.199756
v -0.692566 0.416176 -1.191019
v -0.696877 0.466494 -1.206735
v -0.702751 0.486370 -1.201393
v -0.699395 0.133795 -1.159382
v -0.689864 0.185488 -1.156780
v -0.694194 0.202161 -1.163059
v -0.697656 0.241384 -1.147525
v -0.706673 0.282965 -1.160339
v -0.706672 0.319370 -1.161942
v -0.697170 0.357205 -1.151443
v -0.693440 0.383077 -1.154645
v -0.686396 0.407871 -1.139679
v -0.699129 0.456868 -1.159114
v -0.702751 0.155081 -1.112345
v -0.696878 0.169630 -1.126941
v -0.688430 0.219453 -1.119650
v -0.692618 0.247842 -1.126488
v -0.694329 0.291299 -1.122739
v -0.693409 0.315217 -1.122384
v -0.693810 0.363543 -1.135679
v -0.689984 0.376574 -1.130163
v -0.699395 0.426805 -1.120685
v -0.699129 0.201703 -1.090528
v -0.694781 0.250105 -1.084351
v -0.694781 0.295100 -1.078409
v -0.694781 0.340095 -1.084351
v -0.699395 0.388229 -1.090992
v -0.702751 0.243849 -1.060933
v -0.702751 0.295100 -1.054165
v -0.702751 0.346351 -1.060933
v -0.676557 0.288421 -1.300647
v -0.690357 0.290386 -1.300686
v -0.676557 0.301779 -1.300913
v -0.690357 0.301779 -1.300913
v -0.676557 0.289490 -1.211471
v -0.690357 0.290036 -1.211936
v -0.676557 0.302745 -1.211328
v -0.690357 0.302745 -1.211328
v -0.676557 0.292171 -1.196636
v -0.690357 0.292903 -1.198685
v -0.676557 0.304532 -1.201438
v -0.690357 0.304532 -1.201438
f 122 139 121
f 30 17 32
f 26 15 16
f 24 25 26
f 38 56 57
f 74 73 89
f 144 143 146
f 147 129 130
f 157 144 146
f 64 65 83
f 29 30 32
f 27 26 28
f 72 74 87
f 140 142 154
f 87 101 72
f 57 55 37
f 24 23 14
f 32 17 19
f 133 115 117
f 157 159 156
f 127 128 145
f 129 110 131
f 112 95 114
f 62 46 47
f 46 44 31
f 58 75 56
f 75 90 88
f 104 106 123
f 125 127 141
f 66 85 86
f 66 86 67
f 52 70 71
f 52 71 53
f 70 98 99
f 70 99 71
f 98 120 121
f 98 121 99
f 85 68 69
f 85 69 86
f 120 136 137
f 120 137 121
f 68 50 51
f 68 51 69
f 136 151 152
f 136 152 137
f 50 20 21
f 50 21 51
f 151 162 163
f 151 163 152
f 20 9 10
f 20 10 21
f 162 164 165
f 162 165 163
f 9 7 8
f 9 8 10
f 36 52 53
f 36 53 37
f 118 85 86
f 118 86 119
f 11 36 37
f 11 37 12
f 134 118 119
f 134 119 135
f 1 11 12
f 1 12 2
f 149 134 135
f 149 135 150
f 3 1 2
f 3 2 4
f 160 149 150
f 160 150 161
f 5 3 4
f 5 4 6
f 166 160 161
f 166 161 167
f 7 5 6
f 7 6 8
f 164 166 167
f 164 167 165
f 116 85 118
f 134 116 118
f 158 160 166
f 155 158 166
f 155 166 164
f 153 155 164
f 153 164 162
f 151 153 162
f 138 151 136
f 120 138 136
f 100 120 98
f 70 100 98
f 54 70 52
f 36 54 52
f 22 36 11
f 13 22 11
f 13 11 1
f 3 13 1
f 18 7 9
f 34 18 9
f 34 9 20
f 50 34 20
f 66 50 68
f 85 66 68
f 116 134 135
f 116 135 117
f 13 3 4
f 13 4 14
f 138 120 121
f 138 121 139
f 134 149 150
f 134 150 135
f 3 5 6
f 3 6 4
f 120 100 101
f 120 101 121
f 149 160 161
f 149 161 150
f 5 7 8
f 5 8 6
f 100 70 71
f 100 71 101
f 160 158 159
f 160 159 161
f 7 18 19
f 7 19 8
f 70 54 55
f 70 55 71
f 158 155 156
f 158 156 159
f 18 34 35
f 18 35 19
f 54 36 37
f 54 37 55
f 155 153 154
f 155 154 156
f 34 50 51
f 34 51 35
f 36 22 23
f 36 23 37
f 153 151 152
f 153 152 154
f 50 66 67
f 50 67 51
f 85 116 117
f 85 117 86
f 22 13 14
f 22 14 23
f 151 138 139
f 151 139 152
f 117 84 86
f 133 117 135
f 150 133 135
f 148 150 161
f 159 148 161
f 140 154 152
f 139 140 152
f 72 101 71
f 55 72 71
f 15 14 4
f 16 15 4
f 16 4 6
f 17 16 6
f 17 6 8
f 19 17 8
f 49 35 51
f 67 49 51
f 84 67 86
f 115 84 117
f 148 132 150
f 132 115 133
f 132 133 150
f 157 146 159
f 146 148 159
f 142 157 156
f 142 156 154
f 122 140 139
f 87 122 121
f 87 121 101
f 24 38 37
f 24 37 23
f 15 24 14
f 49 48 33
f 49 33 35
f 33 32 19
f 33 19 35
f 84 83 65
f 84 65 67
f 65 49 67
f 80 61 62
f 80 62 81
f 61 46 62
f 61 60 46
f 60 45 44
f 60 44 46
f 45 43 42
f 45 42 44
f 43 59 41
f 43 41 42
f 59 58 41
f 59 77 75
f 59 75 58
f 77 76 75
f 76 91 90
f 76 90 75
f 91 104 90
f 91 107 106
f 91 106 104
f 107 125 106
f 107 108 127
f 107 127 125
f 108 109 128
f 108 128 127
f 109 129 128
f 109 111 110
f 109 110 129
f 111 94 112
f 111 112 110
f 94 95 112
f 94 80 81
f 94 81 95
f 81 62 64
f 29 32 31
f 29 31 44
f 46 31 47
f 48 32 33
f 44 42 27
f 44 27 29
f 30 28 16
f 30 16 17
f 42 41 25
f 42 25 27
f 26 24 15
f 73 57 56
f 73 56 75
f 41 58 56
f 41 56 39
f 40 38 24
f 57 74 72
f 57 72 55
f 90 104 102
f 90 102 88
f 89 103 122
f 89 122 87
f 143 142 141
f 143 141 127
f 106 125 123
f 124 142 140
f 124 140 122
f 73 75 88
f 73 88 89
f 142 144 157
f 128 129 145
f 146 147 148
f 96 97 114
f 96 114 95
f 110 112 131
f 64 83 82
f 64 82 81
f 95 81 82
f 95 82 96
f 97 83 84
f 97 84 115
f 57 37 38
f 93 79 80
f 93 80 94
f 93 94 111
f 93 111 109
f 92 93 109
f 92 109 108
f 92 108 107
f 92 107 91
f 78 92 91
f 78 91 76
f 78 76 77
f 78 77 59
f 78 59 43
f 79 78 43
f 79 43 45
f 79 45 60
f 79 60 61
f 79 61 80
f 123 125 142
f 123 142 124
f 143 144 142
f 145 129 147
f 145 147 146
f 131 112 115
f 131 115 132
f 96 82 83
f 96 83 97
f 64 49 65
f 47 31 32
f 47 32 48
f 29 27 28
f 29 28 30
f 27 25 24
f 27 24 26
f 39 56 38
f 39 38 40
f 73 74 57
f 88 102 103
f 88 103 89
f 131 130 129
f 114 115 112
f 47 49 64
f 47 64 62
f 39 26 25
f 39 25 41
f 123 103 102
f 123 102 104
f 141 142 125
f 145 146 143
f 145 143 127
f 49 63 65
f 26 16 28
f 87 74 89
f 31 32 30
f 31 30 32
f 26 39 40
f 103 123 105
f 123 124 105
f 142 141 126
f 141 142 126
f 131 132 130
f 115 114 113
f 114 97 113
f 49 47 48
f 49 48 63
f 169 168 170
f 303 286 284
f 283 285 265
f 235 252 234
f 233 218 216
f 300 302 281
f 317 299 300
f 297 316 298
f 313 315 314
f 327 315 313
f 327 325 328
f 226 206 224
f 243 258 244
f 242 257 243
f 246 259 260
f 228 227 246
f 208 226 227
f 194 195 196
f 194 183 192
f 200 201 199
f 199 201 187
f 201 188 187
f 216 202 215
f 198 197 195
f 296 312 297
f 310 323 311
f 292 290 308
f 275 294 277
f 257 242 270
f 195 186 185
f 256 255 286
f 256 286 287
f 287 289 256
f 256 239 237
f 237 236 255
f 237 255 256
f 286 255 254
f 254 255 236
f 284 286 254
f 254 236 234
f 254 234 252
f 266 284 254
f 266 254 252
f 267 266 252
f 267 252 253
f 303 304 286
f 301 319 303
f 301 303 284
f 319 304 303
f 302 301 284
f 302 284 283
f 285 284 282
f 266 285 282
f 285 283 284
f 267 265 285
f 267 285 266
f 264 265 251
f 264 251 250
f 264 283 265
f 265 267 253
f 265 253 251
f 235 251 253
f 235 253 252
f 235 234 219
f 219 234 232
f 218 219 232
f 218 232 217
f 218 233 235
f 218 235 219
f 218 217 201
f 218 201 202
f 217 203 201
f 219 204 203
f 219 203 217
f 203 204 188
f 203 188 201
f 219 220 204
f 189 188 204
f 189 204 205
f 205 204 220
f 205 220 221
f 205 191 180
f 205 180 189
f 221 191 205
f 191 190 179
f 191 179 180
f 221 220 190
f 221 190 191
f 239 238 220
f 239 220 221
f 256 255 238
f 256 238 239
f 289 288 255
f 289 255 256
f 305 304 288
f 305 288 289
f 305 289 287
f 320 319 304
f 320 304 305
f 287 286 304
f 287 304 305
f 305 304 319
f 305 319 320
f 320 319 330
f 320 330 331
f 318 330 319
f 328 330 318
f 331 330 328
f 331 328 329
f 315 328 318
f 318 319 301
f 301 302 299
f 302 300 299
f 316 315 317
f 316 317 300
f 315 318 317
f 316 297 314
f 316 314 315
f 314 311 313
f 311 327 313
f 327 328 315
f 311 323 325
f 311 325 327
f 329 328 325
f 329 325 326
f 326 325 323
f 326 323 324
f 326 335 337
f 326 337 329
f 324 333 335
f 324 335 326
f 335 334 336
f 335 336 337
f 333 332 334
f 333 334 335
f 322 321 332
f 322 332 333
f 307 306 321
f 307 321 322
f 291 290 306
f 291 306 307
f 269 268 290
f 269 290 291
f 241 240 268
f 241 268 269
f 223 222 240
f 223 240 241
f 207 206 222
f 207 222 223
f 225 223 241
f 207 223 225
f 241 240 224
f 241 224 225
f 225 224 206
f 225 206 207
f 224 240 242
f 226 208 206
f 244 226 243
f 226 224 242
f 226 242 243
f 243 257 258
f 259 258 243
f 259 243 258
f 244 258 259
f 244 259 246
f 245 246 260
f 245 260 261
f 247 246 245
f 229 228 246
f 229 246 247
f 244 246 227
f 244 227 226
f 210 209 208
f 210 208 227
f 209 194 208
f 210 195 209
f 210 211 196
f 210 196 195
f 198 195 194
f 198 194 196
f 195 185 194
f 185 183 194
f 185 173 183
f 193 192 183
f 193 183 184
f 184 183 173
f 184 173 174
f 184 172 182
f 184 182 193
f 174 172 184
f 172 171 181
f 172 181 182
f 174 173 171
f 174 171 172
f 176 175 173
f 176 173 174
f 178 177 175
f 178 175 176
f 174 173 175
f 174 175 176
f 176 175 177
f 176 177 178
f 186 175 173
f 186 173 185
f 187 177 175
f 187 175 186
f 200 199 197
f 200 197 198
f 199 187 186
f 199 186 197
f 200 215 202
f 200 202 201
f 214 215 213
f 214 213 212
f 230 216 215
f 230 215 214
f 215 200 198
f 215 198 213
f 186 195 197
f 213 198 196
f 213 196 211
f 212 213 211
f 212 211 229
f 248 212 229
f 249 250 231
f 231 233 216
f 250 251 233
f 250 233 231
f 249 231 230
f 231 216 230
f 249 230 214
f 249 214 212
f 249 212 248
f 263 264 250
f 263 250 249
f 263 280 264
f 280 281 283
f 280 283 264
f 263 279 280
f 279 300 281
f 279 281 280
f 279 298 300
f 262 278 279
f 262 279 263
f 278 297 298
f 278 298 279
f 262 276 278
f 276 296 297
f 276 297 278
f 314 297 312
f 314 312 311
f 312 296 311
f 312 311 295
f 311 312 295
f 294 293 311
f 294 311 296
f 293 292 310
f 293 310 311
f 257 270 290
f 257 290 292
f 258 257 292
f 258 292 272
f 259 258 272
f 259 272 273
f 294 272 274
f 293 294 274
f 294 275 273
f 294 273 272
f 261 275 277
f 261 277 276
f 261 260 275
f 260 259 273
f 260 273 275
f 262 261 276
f 248 245 261
f 248 261 262
f 248 247 245
f 248 229 247
f 229 211 228
f 276 277 296
f 277 294 296
f 309 308 290
f 309 290 291
f 291 290 270
f 291 270 271
f 291 307 309
f 271 269 291
f 271 270 240
f 271 240 241
f 241 269 271
f 322 321 308
f 322 308 309
f 309 307 322
f 324 323 321
f 324 321 322
f 322 333 324
f 310 321 323
f 308 321 310
f 242 240 270
f 292 308 310
f 216 218 202
f 188 177 187
f 178 177 188
f 178 188 189
f 189 180 178
f 180 179 177
f 180 177 178
f 182 181 206
f 182 206 207
f 193 182 207
f 207 206 192
f 207 192 193
f 194 192 206
f 194 206 208
f 211 210 227
f 211 227 228
f 331 330 319
f 331 319 320
f 337 336 330
f 337 330 331
f 329 337 331
f 298 316 300
f 281 302 283
f 237 239 221
f 221 220 236
f 221 236 237
f 236 220 219
f 234 236 219
f 251 235 233
f 339 340 338
f 416 405 417
f 382 370 371
f 426 415 427
f 424 425 435
f 435 442 441
f 376 375 364
f 389 400 399
f 377 389 376
f 356 355 347
f 359 350 360
f 370 369 360
f 432 433 440
f 418 397 419
f 397 384 385
f 407 396 397
f 407 397 418
f 396 384 397
f 406 396 407
f 383 396 395
f 396 383 384
f 406 395 396
f 417 406 407
f 417 407 418
f 417 418 429
f 427 417 428
f 428 417 429
f 428 429 438
f 427 416 417
f 417 405 416
f 417 406 405
f 406 417 405
f 404 393 394
f 404 394 405
f 404 405 416
f 405 394 395
f 405 395 406
f 383 395 394
f 371 372 382
f 371 360 361
f 361 372 371
f 372 361 362
f 361 360 352
f 361 352 362
f 372 362 373
f 362 352 345
f 362 345 353
f 373 362 353
f 373 353 363
f 429 418 419
f 437 428 438
f 437 438 443
f 442 437 443
f 435 437 442
f 437 427 428
f 437 436 426
f 437 426 427
f 435 426 436
f 435 436 437
f 435 434 424
f 433 434 435
f 433 435 441
f 433 441 440
f 441 442 446
f 441 446 445
f 440 441 445
f 440 445 444
f 375 386 374
f 364 375 374
f 364 374 354
f 375 387 386
f 376 364 365
f 376 388 387
f 376 387 375
f 388 389 399
f 389 401 400
f 389 388 376
f 378 390 389
f 378 389 377
f 376 365 377
f 366 365 356
f 357 356 366
f 356 357 367
f 366 356 367
f 358 357 356
f 358 356 348
f 348 356 347
f 348 347 342
f 347 355 346
f 347 346 341
f 342 347 341
f 349 348 342
f 349 342 343
f 351 349 343
f 351 343 344
f 359 358 349
f 359 349 350
f 350 349 351
f 360 350 359
f 350 351 359
f 351 352 360
f 359 360 369
f 369 368 358
f 369 358 359
f 348 349 358
f 368 367 357
f 368 357 358
f 379 367 368
f 392 381 393
f 381 370 382
f 393 381 382
f 393 382 394
f 392 380 369
f 392 369 381
f 381 369 370
f 380 379 368
f 380 368 369
f 392 393 404
f 403 392 404
f 403 404 415
f 415 404 416
f 403 415 414
f 414 415 426
f 414 426 425
f 402 403 414
f 402 414 413
f 413 414 425
f 413 425 424
f 402 413 412
f 412 413 424
f 412 424 423
f 434 433 423
f 434 423 424
f 422 423 433
f 422 433 432
f 422 432 421
f 421 409 410
f 409 421 431
f 409 431 420
f 398 410 409
f 398 409 420
f 398 420 409
f 399 410 398
f 422 411 412
f 401 412 411
f 401 411 400
f 400 411 410
f 400 410 399
f 402 412 401
f 391 402 401
f 391 401 389
f 391 389 390
f 391 390 378
f 378 377 367
f 379 391 378
f 379 378 367
f 412 423 422
f 398 387 388
f 420 431 430
f 409 420 408
f 386 409 408
f 431 439 430
f 439 440 444
f 432 440 439
f 421 432 439
f 421 439 431
f 387 398 409
f 387 409 386
f 370 360 371
f 352 351 344
f 352 344 345
f 355 364 354
f 355 354 346
f 356 365 364
f 356 364 355
f 367 377 365
f 367 365 366
f 442 443 446
f 425 426 435
f 415 416 427
f 384 373 363
f 384 363 385
f 384 372 373
f 383 372 384
f 394 382 372
f 394 372 383
f 455 453 457
f 455 451 453
f 450 449 447
f 450 447 448
f 448 447 449
f 448 449 450
f 452 451 455
f 452 455 456
f 454 453 451
f 454 451 452
f 458 457 453
f 458 453 454
f 456 455 457
f 456 457 458
f 534 535 523
f 500 489 488
f 544 545 533
f 542 553 543
f 553 559 560
f 494 482 493
f 507 517 518
f 495 494 507
f 474 465 473
f 477 478 468
f 488 478 487
f 550 558 551
f 536 537 515
f 515 503 502
f 525 536 515
f 525 515 514
f 514 515 502
f 524 525 514
f 501 513 514
f 514 502 501
f 524 514 513
f 535 525 524
f 535 547 536
f 535 536 525
f 545 546 535
f 546 556 547
f 546 547 535
f 545 535 534
f 535 534 523
f 535 523 524
f 524 523 535
f 522 523 512
f 522 512 511
f 522 534 523
f 523 524 513
f 523 513 512
f 501 512 513
f 489 500 490
f 489 479 478
f 479 489 490
f 490 480 479
f 479 480 470
f 479 470 478
f 490 491 480
f 480 471 463
f 480 463 470
f 491 481 471
f 491 471 480
f 547 537 536
f 555 561 556
f 555 556 546
f 560 561 555
f 553 560 555
f 555 546 545
f 555 545 544
f 555 544 554
f 553 554 544
f 553 555 554
f 553 542 552
f 551 553 552
f 551 558 559
f 551 559 553
f 559 563 564
f 559 564 560
f 558 562 563
f 558 563 559
f 493 492 504
f 482 472 492
f 482 492 493
f 493 504 505
f 494 483 482
f 494 493 505
f 494 505 506
f 506 517 507
f 507 518 519
f 507 494 506
f 496 495 507
f 496 507 508
f 494 495 483
f 484 474 483
f 475 484 474
f 474 485 475
f 484 485 474
f 476 466 474
f 476 474 475
f 466 465 474
f 466 460 465
f 465 459 464
f 465 464 473
f 460 459 465
f 467 461 460
f 467 460 466
f 469 462 461
f 469 461 467
f 477 468 467
f 477 467 476
f 468 469 467
f 478 477 468
f 468 477 469
f 469 478 470
f 477 487 478
f 487 477 476
f 487 476 486
f 466 476 467
f 486 476 475
f 486 475 485
f 497 486 485
f 510 511 499
f 499 500 488
f 511 512 500
f 511 500 499
f 510 499 487
f 510 487 498
f 499 488 487
f 498 487 486
f 498 486 497
f 510 522 511
f 521 522 510
f 521 533 522
f 533 534 522
f 521 532 533
f 532 544 533
f 532 543 544
f 520 531 532
f 520 532 521
f 531 542 543
f 531 543 532
f 520 530 531
f 530 541 542
f 530 542 531
f 552 542 541
f 552 541 551
f 540 551 541
f 540 539 550
f 540 550 551
f 539 528 527
f 527 538 549
f 527 549 539
f 516 527 528
f 516 527 538
f 516 538 527
f 517 516 528
f 540 530 529
f 519 529 530
f 519 518 529
f 518 517 528
f 518 528 529
f 520 519 530
f 509 519 520
f 509 507 519
f 509 508 507
f 509 496 508
f 496 485 495
f 497 485 496
f 497 496 509
f 530 540 541
f 516 506 505
f 538 548 549
f 527 526 538
f 504 526 527
f 549 548 557
f 557 562 558
f 550 557 558
f 539 549 557
f 539 557 550
f 505 504 527
f 505 527 516
f 488 489 478
f 470 462 469
f 470 463 462
f 473 464 472
f 473 472 482
f 474 473 482
f 474 482 483
f 485 484 483
f 485 483 495
f 560 564 561
f 543 553 544
f 533 545 534
f 502 503 481
f 502 481 491
f 502 491 490
f 501 502 490
f 512 501 490
f 512 490 500
f 574 576 572
f 574 572 570
f 567 565 566
f 567 566 568
f 565 567 568
f 565 568 566
f 569 573 574
f 569 574 570
f 571 569 570
f 571 570 572
f 575 571 572
f 575 572 576
f 573 575 576
f 573 576 574
