# Grass blades, same vertices as the former _grass_mesh() SurfaceTool implementation
o GrassTuft
v 0.010000 0.000000 0.000000
v 0.190000 0.000000 0.000000
v 0.220000 0.750000 0.000000
f 1 2 3
v 0.003090 0.000000 -0.009511
v 0.058713 0.000000 -0.180701
v 0.067984 1.000000 -0.209232
f 4 5 6
v -0.008090 0.000000 -0.005878
v -0.153713 0.000000 -0.111679
v -0.177984 0.750000 -0.129313
f 7 8 9
v -0.008090 0.000000 0.005878
v -0.153713 0.000000 0.111679
v -0.177984 1.000000 0.129313
f 10 11 12
v 0.003090 0.000000 0.009511
v 0.058713 0.000000 0.180701
v 0.067984 0.750000 0.209232
f 13 14 15
